<?xml version="1.0" encoding="UTF-8"?>
<svg xmlns="http://www.w3.org/2000/svg" xmlns:xlink="http://www.w3.org/1999/xlink" width="459.84pt" height="191.14pt" viewBox="0 0 459.84 191.14">
<defs>
<g>
<g id="glyph-0-0">
<path d="M 3.359375 -3.421875 C 3.359375 -2.929688 3.210938 -2.554688 2.921875 -2.296875 C 2.640625 -2.035156 2.203125 -1.90625 1.609375 -1.90625 L 1.203125 -1.90625 L 1.203125 -0.109375 L 0.421875 -0.109375 L 0.421875 -4.84375 L 1.609375 -4.84375 C 1.867188 -4.84375 2.101562 -4.8125 2.3125 -4.75 C 2.53125 -4.695312 2.710938 -4.613281 2.859375 -4.5 C 3.015625 -4.394531 3.132812 -4.25 3.21875 -4.0625 C 3.3125 -3.882812 3.359375 -3.671875 3.359375 -3.421875 Z M 2.5625 -3.40625 C 2.5625 -3.5625 2.535156 -3.691406 2.484375 -3.796875 C 2.429688 -3.898438 2.363281 -3.976562 2.28125 -4.03125 C 2.195312 -4.09375 2.09375 -4.132812 1.96875 -4.15625 C 1.851562 -4.1875 1.722656 -4.203125 1.578125 -4.203125 L 1.203125 -4.203125 L 1.203125 -2.53125 L 1.5 -2.53125 C 1.65625 -2.53125 1.796875 -2.539062 1.921875 -2.5625 C 2.054688 -2.59375 2.171875 -2.640625 2.265625 -2.703125 C 2.359375 -2.773438 2.429688 -2.863281 2.484375 -2.96875 C 2.535156 -3.082031 2.5625 -3.226562 2.5625 -3.40625 Z M 2.5625 -3.40625 "/>
</g>
<g id="glyph-0-1">
<path d="M 1.734375 -4.921875 C 2.023438 -4.921875 2.269531 -4.867188 2.46875 -4.765625 C 2.664062 -4.660156 2.820312 -4.507812 2.9375 -4.3125 C 3.0625 -4.113281 3.144531 -3.859375 3.1875 -3.546875 C 3.238281 -3.242188 3.265625 -2.882812 3.265625 -2.46875 C 3.265625 -2.0625 3.238281 -1.703125 3.1875 -1.390625 C 3.144531 -1.085938 3.0625 -0.832031 2.9375 -0.625 C 2.820312 -0.425781 2.664062 -0.273438 2.46875 -0.171875 C 2.269531 -0.0664062 2.023438 -0.015625 1.734375 -0.015625 C 1.441406 -0.015625 1.195312 -0.0664062 1 -0.171875 C 0.8125 -0.273438 0.65625 -0.425781 0.53125 -0.625 C 0.414062 -0.832031 0.332031 -1.085938 0.28125 -1.390625 C 0.238281 -1.703125 0.21875 -2.0625 0.21875 -2.46875 C 0.21875 -2.882812 0.238281 -3.242188 0.28125 -3.546875 C 0.332031 -3.859375 0.414062 -4.113281 0.53125 -4.3125 C 0.65625 -4.507812 0.8125 -4.660156 1 -4.765625 C 1.195312 -4.867188 1.441406 -4.921875 1.734375 -4.921875 Z M 1.734375 -4.28125 C 1.460938 -4.28125 1.269531 -4.132812 1.15625 -3.84375 C 1.039062 -3.5625 0.984375 -3.101562 0.984375 -2.46875 C 0.984375 -1.84375 1.039062 -1.382812 1.15625 -1.09375 C 1.269531 -0.800781 1.460938 -0.65625 1.734375 -0.65625 C 2.003906 -0.65625 2.203125 -0.800781 2.328125 -1.09375 C 2.453125 -1.382812 2.515625 -1.84375 2.515625 -2.46875 C 2.515625 -3.101562 2.453125 -3.5625 2.328125 -3.84375 C 2.203125 -4.132812 2.003906 -4.28125 1.734375 -4.28125 Z M 1.734375 -4.28125 "/>
</g>
<g id="glyph-0-2">
<path d="M 2.953125 -4.84375 L 2.953125 -4.1875 L 2.140625 -4.1875 L 2.140625 -0.765625 L 3.09375 -0.765625 L 3.09375 -0.109375 L 0.390625 -0.109375 L 0.390625 -0.765625 L 1.359375 -0.765625 L 1.359375 -4.1875 L 0.53125 -4.1875 L 0.53125 -4.84375 Z M 2.953125 -4.84375 "/>
</g>
<g id="glyph-0-3">
<path d="M 2.15625 -0.109375 L 1.234375 -3.203125 L 1.0625 -4.078125 L 1.109375 -3.1875 L 1.109375 -0.109375 L 0.34375 -0.109375 L 0.34375 -4.84375 L 1.328125 -4.84375 L 2.234375 -1.8125 L 2.421875 -0.875 L 2.375 -1.796875 L 2.375 -4.84375 L 3.140625 -4.84375 L 3.140625 -0.109375 Z M 2.15625 -0.109375 "/>
</g>
<g id="glyph-0-4">
<path d="M 2.140625 -0.109375 L 1.359375 -0.109375 L 1.359375 -4.1875 L 0.109375 -4.1875 L 0.109375 -4.84375 L 3.390625 -4.84375 L 3.390625 -4.1875 L 2.140625 -4.1875 Z M 2.140625 -0.109375 "/>
</g>
<g id="glyph-0-5">
<path d="M 0.203125 -1.1875 L 0.328125 -1.1875 C 0.546875 -1.03125 0.765625 -0.910156 0.984375 -0.828125 C 1.210938 -0.753906 1.425781 -0.71875 1.625 -0.71875 C 1.882812 -0.71875 2.082031 -0.769531 2.21875 -0.875 C 2.363281 -0.976562 2.4375 -1.148438 2.4375 -1.390625 C 2.4375 -1.566406 2.367188 -1.722656 2.234375 -1.859375 C 2.097656 -2.003906 1.925781 -2.125 1.71875 -2.21875 C 1.488281 -2.332031 1.285156 -2.441406 1.109375 -2.546875 C 0.929688 -2.648438 0.78125 -2.757812 0.65625 -2.875 C 0.539062 -2.988281 0.453125 -3.113281 0.390625 -3.25 C 0.335938 -3.382812 0.3125 -3.535156 0.3125 -3.703125 C 0.3125 -3.910156 0.347656 -4.09375 0.421875 -4.25 C 0.503906 -4.40625 0.613281 -4.53125 0.75 -4.625 C 0.894531 -4.726562 1.054688 -4.804688 1.234375 -4.859375 C 1.410156 -4.910156 1.597656 -4.9375 1.796875 -4.9375 C 2.003906 -4.9375 2.21875 -4.914062 2.4375 -4.875 C 2.65625 -4.832031 2.851562 -4.742188 3.03125 -4.609375 L 3.03125 -3.921875 L 2.921875 -3.921875 C 2.753906 -4.023438 2.570312 -4.101562 2.375 -4.15625 C 2.175781 -4.21875 1.988281 -4.25 1.8125 -4.25 C 1.59375 -4.25 1.421875 -4.207031 1.296875 -4.125 C 1.179688 -4.050781 1.125 -3.921875 1.125 -3.734375 C 1.125 -3.554688 1.179688 -3.414062 1.296875 -3.3125 C 1.410156 -3.207031 1.550781 -3.117188 1.71875 -3.046875 C 2.007812 -2.929688 2.253906 -2.8125 2.453125 -2.6875 C 2.648438 -2.570312 2.8125 -2.445312 2.9375 -2.3125 C 3.0625 -2.1875 3.148438 -2.050781 3.203125 -1.90625 C 3.253906 -1.769531 3.28125 -1.613281 3.28125 -1.4375 C 3.28125 -0.957031 3.128906 -0.597656 2.828125 -0.359375 C 2.535156 -0.128906 2.128906 -0.015625 1.609375 -0.015625 C 1.335938 -0.015625 1.082031 -0.0507812 0.84375 -0.125 C 0.613281 -0.207031 0.398438 -0.316406 0.203125 -0.453125 Z M 0.203125 -1.1875 "/>
</g>
<g id="glyph-0-6">
<path d="M 3.265625 -0.765625 L 3.265625 -0.109375 L 0.484375 -0.109375 L 0.484375 -4.84375 L 1.265625 -4.84375 L 1.265625 -0.765625 Z M 3.265625 -0.765625 "/>
</g>
<g id="glyph-0-7">
<path d="M 3.28125 -0.109375 L 0.484375 -0.109375 L 0.484375 -4.84375 L 3.21875 -4.84375 L 3.21875 -4.1875 L 1.265625 -4.1875 L 1.265625 -2.96875 L 3.078125 -2.96875 L 3.078125 -2.3125 L 1.265625 -2.3125 L 1.265625 -0.765625 L 3.28125 -0.765625 Z M 3.28125 -0.109375 "/>
</g>
<g id="glyph-0-8">
<path d="M 3.1875 0.4375 L 3.1875 1.015625 L 0.296875 1.015625 L 0.296875 0.4375 Z M 3.1875 0.4375 "/>
</g>
<g id="glyph-0-9">
<path d="M 3.515625 -0.109375 L 2.5625 -0.109375 L 1.71875 -2.015625 L 1.140625 -2.015625 L 1.140625 -0.109375 L 0.359375 -0.109375 L 0.359375 -4.84375 L 1.578125 -4.84375 C 2.148438 -4.84375 2.566406 -4.722656 2.828125 -4.484375 C 3.097656 -4.242188 3.234375 -3.914062 3.234375 -3.5 C 3.234375 -3.15625 3.160156 -2.875 3.015625 -2.65625 C 2.867188 -2.445312 2.675781 -2.289062 2.4375 -2.1875 Z M 2.421875 -3.484375 C 2.421875 -3.617188 2.398438 -3.726562 2.359375 -3.8125 C 2.328125 -3.90625 2.273438 -3.976562 2.203125 -4.03125 C 2.128906 -4.09375 2.046875 -4.132812 1.953125 -4.15625 C 1.859375 -4.175781 1.753906 -4.1875 1.640625 -4.1875 L 1.140625 -4.1875 L 1.140625 -2.65625 L 1.453125 -2.65625 C 1.617188 -2.65625 1.757812 -2.664062 1.875 -2.6875 C 2 -2.707031 2.101562 -2.75 2.1875 -2.8125 C 2.269531 -2.875 2.328125 -2.957031 2.359375 -3.0625 C 2.398438 -3.164062 2.421875 -3.304688 2.421875 -3.484375 Z M 2.421875 -3.484375 "/>
</g>
<g id="glyph-0-10">
<path d="M 2.140625 -4.84375 L 3.5 -0.109375 L 2.6875 -0.109375 L 2.375 -1.328125 L 1.09375 -1.328125 L 0.796875 -0.109375 L 0 -0.109375 L 1.3125 -4.84375 Z M 2.21875 -1.96875 L 1.84375 -3.609375 L 1.734375 -4.125 L 1.65625 -3.609375 L 1.25 -1.96875 Z M 2.21875 -1.96875 "/>
</g>
<g id="glyph-0-11">
<path d="M 3 -3.953125 C 2.851562 -4.054688 2.691406 -4.132812 2.515625 -4.1875 C 2.335938 -4.25 2.164062 -4.28125 2 -4.28125 C 1.644531 -4.28125 1.382812 -4.132812 1.21875 -3.84375 C 1.050781 -3.550781 0.96875 -3.101562 0.96875 -2.5 C 0.96875 -1.882812 1.039062 -1.421875 1.1875 -1.109375 C 1.332031 -0.804688 1.59375 -0.65625 1.96875 -0.65625 C 2.03125 -0.65625 2.101562 -0.664062 2.1875 -0.6875 C 2.28125 -0.707031 2.359375 -0.742188 2.421875 -0.796875 L 2.421875 -2.03125 L 1.765625 -2.03125 L 1.765625 -2.65625 L 3.1875 -2.65625 L 3.1875 -0.46875 C 3.007812 -0.332031 2.8125 -0.222656 2.59375 -0.140625 C 2.375 -0.0546875 2.15625 -0.015625 1.9375 -0.015625 C 1.582031 -0.015625 1.289062 -0.078125 1.0625 -0.203125 C 0.832031 -0.328125 0.648438 -0.5 0.515625 -0.71875 C 0.378906 -0.9375 0.285156 -1.195312 0.234375 -1.5 C 0.179688 -1.800781 0.15625 -2.132812 0.15625 -2.5 C 0.15625 -2.851562 0.1875 -3.179688 0.25 -3.484375 C 0.3125 -3.785156 0.414062 -4.039062 0.5625 -4.25 C 0.707031 -4.46875 0.894531 -4.632812 1.125 -4.75 C 1.363281 -4.875 1.660156 -4.9375 2.015625 -4.9375 C 2.378906 -4.9375 2.742188 -4.835938 3.109375 -4.640625 L 3.109375 -3.953125 Z M 3 -3.953125 "/>
</g>
<g id="glyph-0-12">
<path d="M 3.296875 -4.84375 L 3.296875 -4.1875 L 1.375 -4.1875 L 1.375 -2.96875 L 3.15625 -2.96875 L 3.15625 -2.3125 L 1.375 -2.3125 L 1.375 -0.109375 L 0.59375 -0.109375 L 0.59375 -4.84375 Z M 3.296875 -4.84375 "/>
</g>
<g id="glyph-1-0">
<path d="M 4.4375 -4.453125 C 4.488281 -4.453125 4.519531 -4.441406 4.53125 -4.421875 C 4.550781 -4.410156 4.5625 -4.378906 4.5625 -4.328125 C 4.550781 -3.972656 4.523438 -3.65625 4.484375 -3.375 C 4.441406 -3.101562 4.398438 -2.847656 4.359375 -2.609375 L 3.890625 -2.609375 C 3.941406 -2.847656 3.976562 -3.082031 4 -3.3125 C 4.03125 -3.539062 4.050781 -3.785156 4.0625 -4.046875 L 0.75 -4.046875 L 0.75 -4.453125 Z M 5.125 -1.765625 L 0.171875 -1.765625 L 0.171875 -2.1875 L 2.15625 -2.1875 L 2.15625 -3.328125 L 2.640625 -3.328125 L 2.640625 -2.1875 L 5.125 -2.1875 Z M 0.703125 -0.1875 C 0.703125 -0.5 0.867188 -0.757812 1.203125 -0.96875 C 1.535156 -1.175781 2.019531 -1.28125 2.65625 -1.28125 C 3.28125 -1.28125 3.757812 -1.175781 4.09375 -0.96875 C 4.425781 -0.757812 4.59375 -0.5 4.59375 -0.1875 C 4.59375 0.121094 4.425781 0.378906 4.09375 0.578125 C 3.757812 0.785156 3.28125 0.890625 2.65625 0.890625 C 2.019531 0.890625 1.535156 0.785156 1.203125 0.578125 C 0.867188 0.378906 0.703125 0.121094 0.703125 -0.1875 Z M 2.65625 0.515625 C 3.070312 0.515625 3.410156 0.453125 3.671875 0.328125 C 3.941406 0.210938 4.078125 0.0351562 4.078125 -0.203125 C 4.078125 -0.421875 3.941406 -0.585938 3.671875 -0.703125 C 3.410156 -0.828125 3.070312 -0.890625 2.65625 -0.890625 C 2.226562 -0.890625 1.882812 -0.828125 1.625 -0.703125 C 1.363281 -0.585938 1.234375 -0.421875 1.234375 -0.203125 C 1.234375 0.0351562 1.363281 0.210938 1.625 0.328125 C 1.882812 0.453125 2.226562 0.515625 2.65625 0.515625 Z M 2.65625 0.515625 "/>
</g>
<g id="glyph-1-1">
<path d="M 0.734375 -3.3125 C 0.734375 -3.6875 0.898438 -3.988281 1.234375 -4.21875 C 1.578125 -4.457031 2.050781 -4.578125 2.65625 -4.578125 C 3.25 -4.578125 3.710938 -4.460938 4.046875 -4.234375 C 4.390625 -4.003906 4.5625 -3.695312 4.5625 -3.3125 C 4.5625 -2.925781 4.394531 -2.617188 4.0625 -2.390625 C 3.726562 -2.160156 3.257812 -2.046875 2.65625 -2.046875 C 2.351562 -2.046875 2.082031 -2.070312 1.84375 -2.125 C 1.601562 -2.1875 1.398438 -2.273438 1.234375 -2.390625 C 1.066406 -2.492188 0.941406 -2.625 0.859375 -2.78125 C 0.773438 -2.9375 0.734375 -3.113281 0.734375 -3.3125 Z M 2.65625 -2.453125 C 3.050781 -2.453125 3.382812 -2.523438 3.65625 -2.671875 C 3.925781 -2.816406 4.0625 -3.03125 4.0625 -3.3125 C 4.0625 -3.59375 3.925781 -3.804688 3.65625 -3.953125 C 3.394531 -4.097656 3.0625 -4.171875 2.65625 -4.171875 C 2.226562 -4.171875 1.882812 -4.097656 1.625 -3.953125 C 1.363281 -3.804688 1.234375 -3.59375 1.234375 -3.3125 C 1.234375 -3.164062 1.269531 -3.039062 1.34375 -2.9375 C 1.414062 -2.832031 1.515625 -2.742188 1.640625 -2.671875 C 1.765625 -2.597656 1.914062 -2.539062 2.09375 -2.5 C 2.269531 -2.46875 2.457031 -2.453125 2.65625 -2.453125 Z M 1.484375 0.75 L 1.484375 -1.109375 L 0.171875 -1.109375 L 0.171875 -1.53125 L 5.125 -1.53125 L 5.125 -1.109375 L 3.828125 -1.109375 L 3.828125 0.796875 L 3.34375 0.796875 L 3.34375 -1.109375 L 1.96875 -1.109375 L 1.96875 0.75 Z M 1.484375 0.75 "/>
</g>
<g id="glyph-1-2">
<path d="M 3.21875 -3.953125 L 2.15625 -3.953125 L 2.15625 -3.734375 C 2.15625 -3.515625 2.191406 -3.3125 2.265625 -3.125 C 2.347656 -2.945312 2.457031 -2.785156 2.59375 -2.640625 C 2.71875 -2.492188 2.863281 -2.367188 3.03125 -2.265625 C 3.195312 -2.160156 3.375 -2.078125 3.5625 -2.015625 L 3.25 -1.671875 C 3.144531 -1.710938 3.03125 -1.769531 2.90625 -1.84375 C 2.78125 -1.925781 2.65625 -2.015625 2.53125 -2.109375 C 2.414062 -2.203125 2.300781 -2.3125 2.1875 -2.4375 C 2.070312 -2.5625 1.976562 -2.695312 1.90625 -2.84375 C 1.8125 -2.5625 1.640625 -2.300781 1.390625 -2.0625 C 1.148438 -1.832031 0.875 -1.644531 0.5625 -1.5 L 0.203125 -1.828125 C 0.398438 -1.898438 0.585938 -1.992188 0.765625 -2.109375 C 0.941406 -2.234375 1.09375 -2.378906 1.21875 -2.546875 C 1.351562 -2.703125 1.457031 -2.878906 1.53125 -3.078125 C 1.613281 -3.285156 1.65625 -3.507812 1.65625 -3.75 L 1.65625 -3.953125 L 0.578125 -3.953125 L 0.578125 -4.375 L 3.21875 -4.375 Z M 4.296875 -1.34375 L 4.296875 -2.984375 L 3.171875 -2.984375 L 3.171875 -3.390625 L 4.296875 -3.390625 L 4.296875 -4.625 L 4.765625 -4.625 L 4.765625 -1.34375 Z M 3.015625 0.890625 C 2.734375 0.890625 2.476562 0.863281 2.25 0.8125 C 2.03125 0.757812 1.84375 0.6875 1.6875 0.59375 C 1.519531 0.5 1.390625 0.382812 1.296875 0.25 C 1.210938 0.113281 1.171875 -0.0351562 1.171875 -0.203125 C 1.171875 -0.367188 1.210938 -0.519531 1.296875 -0.65625 C 1.390625 -0.789062 1.519531 -0.90625 1.6875 -1 C 1.851562 -1.101562 2.046875 -1.179688 2.265625 -1.234375 C 2.492188 -1.285156 2.742188 -1.3125 3.015625 -1.3125 C 3.578125 -1.3125 4.023438 -1.207031 4.359375 -1 C 4.703125 -0.800781 4.875 -0.535156 4.875 -0.203125 C 4.875 0.128906 4.703125 0.394531 4.359375 0.59375 C 4.023438 0.789062 3.578125 0.890625 3.015625 0.890625 Z M 1.6875 -0.203125 C 1.6875 -0.0976562 1.71875 -0.00390625 1.78125 0.078125 C 1.851562 0.171875 1.953125 0.25 2.078125 0.3125 C 2.191406 0.375 2.328125 0.421875 2.484375 0.453125 C 2.648438 0.484375 2.828125 0.5 3.015625 0.5 C 3.210938 0.5 3.390625 0.484375 3.546875 0.453125 C 3.710938 0.421875 3.859375 0.375 3.984375 0.3125 C 4.097656 0.25 4.1875 0.175781 4.25 0.09375 C 4.320312 0.0078125 4.359375 -0.0859375 4.359375 -0.203125 C 4.359375 -0.421875 4.226562 -0.59375 3.96875 -0.71875 C 3.71875 -0.84375 3.398438 -0.90625 3.015625 -0.90625 C 2.828125 -0.90625 2.648438 -0.890625 2.484375 -0.859375 C 2.328125 -0.828125 2.191406 -0.78125 2.078125 -0.71875 C 1.953125 -0.664062 1.851562 -0.59375 1.78125 -0.5 C 1.71875 -0.414062 1.6875 -0.316406 1.6875 -0.203125 Z M 1.6875 -0.203125 "/>
</g>
<g id="glyph-1-3">
<path d="M 3.21875 -3.953125 L 2.171875 -3.953125 L 2.171875 -3.78125 C 2.171875 -3.5625 2.207031 -3.359375 2.28125 -3.171875 C 2.363281 -2.992188 2.472656 -2.832031 2.609375 -2.6875 C 2.742188 -2.550781 2.894531 -2.429688 3.0625 -2.328125 C 3.238281 -2.222656 3.421875 -2.144531 3.609375 -2.09375 L 3.296875 -1.734375 C 3.191406 -1.773438 3.070312 -1.832031 2.9375 -1.90625 C 2.8125 -1.976562 2.6875 -2.0625 2.5625 -2.15625 C 2.4375 -2.257812 2.316406 -2.367188 2.203125 -2.484375 C 2.085938 -2.609375 1.992188 -2.75 1.921875 -2.90625 C 1.804688 -2.59375 1.617188 -2.328125 1.359375 -2.109375 C 1.109375 -1.898438 0.832031 -1.722656 0.53125 -1.578125 L 0.171875 -1.890625 C 0.359375 -1.972656 0.546875 -2.070312 0.734375 -2.1875 C 0.921875 -2.300781 1.082031 -2.4375 1.21875 -2.59375 C 1.351562 -2.75 1.460938 -2.925781 1.546875 -3.125 C 1.628906 -3.332031 1.671875 -3.554688 1.671875 -3.796875 L 1.671875 -3.953125 L 0.578125 -3.953125 L 0.578125 -4.375 L 3.21875 -4.375 Z M 3.171875 -3.421875 L 4.28125 -3.421875 L 4.28125 -4.625 L 4.765625 -4.625 L 4.765625 -1.484375 L 4.28125 -1.484375 L 4.28125 -3 L 3.171875 -3 Z M 1.75 0.34375 L 4.28125 0.34375 L 4.28125 -0.8125 L 1.75 -0.8125 Z M 1.40625 -1.203125 L 4.640625 -1.203125 C 4.691406 -1.203125 4.722656 -1.191406 4.734375 -1.171875 C 4.753906 -1.160156 4.765625 -1.128906 4.765625 -1.078125 L 4.765625 0.609375 C 4.765625 0.648438 4.753906 0.679688 4.734375 0.703125 C 4.722656 0.722656 4.691406 0.734375 4.640625 0.734375 L 1.40625 0.734375 C 1.351562 0.734375 1.316406 0.722656 1.296875 0.703125 C 1.273438 0.679688 1.265625 0.648438 1.265625 0.609375 L 1.265625 -1.078125 C 1.265625 -1.128906 1.273438 -1.160156 1.296875 -1.171875 C 1.316406 -1.191406 1.351562 -1.203125 1.40625 -1.203125 Z M 1.40625 -1.203125 "/>
</g>
<g id="glyph-2-0">
<path d="M 1.21875 -2.59375 L 2.953125 -2.59375 L 2.953125 -3.625 L 1.21875 -3.625 Z M 3.46875 -2.265625 C 3.46875 -2.210938 3.457031 -2.175781 3.4375 -2.15625 C 3.414062 -2.132812 3.378906 -2.125 3.328125 -2.125 L 0.828125 -2.125 C 0.765625 -2.125 0.722656 -2.132812 0.703125 -2.15625 C 0.679688 -2.175781 0.671875 -2.210938 0.671875 -2.265625 L 0.671875 -5.078125 L 1.21875 -5.078125 L 1.21875 -4.09375 L 2.953125 -4.09375 L 2.953125 -5.078125 L 3.46875 -5.078125 L 3.46875 -3.953125 L 4.8125 -3.953125 L 4.8125 -5.28125 L 5.359375 -5.28125 L 5.359375 -1.71875 L 4.8125 -1.71875 L 4.8125 -3.5 L 3.46875 -3.5 Z M 1.90625 0.390625 L 4.8125 0.390625 L 4.8125 -0.9375 L 1.90625 -0.9375 Z M 1.5 -1.390625 L 5.21875 -1.390625 C 5.269531 -1.390625 5.304688 -1.378906 5.328125 -1.359375 C 5.347656 -1.335938 5.359375 -1.300781 5.359375 -1.25 L 5.359375 0.6875 C 5.359375 0.75 5.347656 0.789062 5.328125 0.8125 C 5.304688 0.832031 5.269531 0.84375 5.21875 0.84375 L 1.5 0.84375 C 1.445312 0.84375 1.410156 0.832031 1.390625 0.8125 C 1.367188 0.789062 1.359375 0.75 1.359375 0.6875 L 1.359375 -1.25 C 1.359375 -1.300781 1.367188 -1.335938 1.390625 -1.359375 C 1.410156 -1.378906 1.445312 -1.390625 1.5 -1.390625 Z M 1.5 -1.390625 "/>
</g>
<g id="glyph-2-1">
<path d="M 0.828125 -0.625 C 0.765625 -0.625 0.722656 -0.632812 0.703125 -0.65625 C 0.679688 -0.675781 0.671875 -0.71875 0.671875 -0.78125 L 0.671875 -2.859375 C 0.671875 -2.921875 0.679688 -2.960938 0.703125 -2.984375 C 0.722656 -3.003906 0.765625 -3.015625 0.828125 -3.015625 L 2.109375 -3.015625 L 2.109375 -4.46875 L 0.671875 -4.46875 L 0.671875 -4.9375 L 2.5 -4.9375 C 2.550781 -4.9375 2.585938 -4.925781 2.609375 -4.90625 C 2.628906 -4.882812 2.640625 -4.847656 2.640625 -4.796875 L 2.640625 -2.6875 C 2.640625 -2.632812 2.628906 -2.597656 2.609375 -2.578125 C 2.585938 -2.554688 2.550781 -2.546875 2.5 -2.546875 L 1.21875 -2.546875 L 1.21875 -1.109375 L 1.671875 -1.109375 C 1.796875 -1.109375 1.941406 -1.109375 2.109375 -1.109375 C 2.273438 -1.117188 2.441406 -1.132812 2.609375 -1.15625 C 2.765625 -1.164062 2.910156 -1.175781 3.046875 -1.1875 C 3.179688 -1.207031 3.28125 -1.226562 3.34375 -1.25 L 3.34375 -0.78125 C 3.289062 -0.757812 3.195312 -0.738281 3.0625 -0.71875 C 2.925781 -0.707031 2.773438 -0.691406 2.609375 -0.671875 C 2.429688 -0.660156 2.25 -0.648438 2.0625 -0.640625 C 1.875 -0.628906 1.691406 -0.625 1.515625 -0.625 Z M 5.4375 -5.265625 L 5.4375 0.90625 L 4.890625 0.90625 L 4.890625 -5.265625 Z M 2.921875 -4.0625 L 3.703125 -4.0625 L 3.703125 -5.171875 L 4.25 -5.171875 L 4.25 0.609375 L 3.703125 0.609375 L 3.703125 -2.046875 L 2.921875 -2.046875 L 2.921875 -2.5625 L 3.703125 -2.5625 L 3.703125 -3.5625 L 2.921875 -3.5625 Z M 2.921875 -4.0625 "/>
</g>
<g id="glyph-2-2">
<path d="M 3.6875 -4.53125 L 2.46875 -4.53125 L 2.46875 -4.28125 C 2.46875 -4.019531 2.507812 -3.785156 2.59375 -3.578125 C 2.6875 -3.367188 2.8125 -3.179688 2.96875 -3.015625 C 3.113281 -2.847656 3.28125 -2.703125 3.46875 -2.578125 C 3.65625 -2.460938 3.859375 -2.375 4.078125 -2.3125 L 3.71875 -1.90625 C 3.601562 -1.957031 3.472656 -2.023438 3.328125 -2.109375 C 3.179688 -2.191406 3.039062 -2.289062 2.90625 -2.40625 C 2.757812 -2.519531 2.625 -2.644531 2.5 -2.78125 C 2.375 -2.925781 2.269531 -3.082031 2.1875 -3.25 C 2.070312 -2.925781 1.875 -2.628906 1.59375 -2.359375 C 1.3125 -2.097656 1 -1.882812 0.65625 -1.71875 L 0.234375 -2.09375 C 0.460938 -2.175781 0.675781 -2.285156 0.875 -2.421875 C 1.070312 -2.566406 1.242188 -2.726562 1.390625 -2.90625 C 1.546875 -3.09375 1.664062 -3.300781 1.75 -3.53125 C 1.84375 -3.757812 1.890625 -4.007812 1.890625 -4.28125 L 1.890625 -4.53125 L 0.65625 -4.53125 L 0.65625 -5 L 3.6875 -5 Z M 4.90625 -1.53125 L 4.90625 -3.40625 L 3.625 -3.40625 L 3.625 -3.875 L 4.90625 -3.875 L 4.90625 -5.28125 L 5.453125 -5.28125 L 5.453125 -1.53125 Z M 3.453125 1.015625 C 3.128906 1.015625 2.835938 0.984375 2.578125 0.921875 C 2.316406 0.867188 2.097656 0.785156 1.921875 0.671875 C 1.734375 0.566406 1.585938 0.4375 1.484375 0.28125 C 1.390625 0.125 1.34375 -0.046875 1.34375 -0.234375 C 1.34375 -0.421875 1.390625 -0.59375 1.484375 -0.75 C 1.585938 -0.90625 1.734375 -1.035156 1.921875 -1.140625 C 2.109375 -1.253906 2.328125 -1.34375 2.578125 -1.40625 C 2.835938 -1.46875 3.128906 -1.5 3.453125 -1.5 C 4.097656 -1.5 4.609375 -1.378906 4.984375 -1.140625 C 5.367188 -0.910156 5.5625 -0.609375 5.5625 -0.234375 C 5.5625 0.148438 5.367188 0.453125 4.984375 0.671875 C 4.609375 0.898438 4.097656 1.015625 3.453125 1.015625 Z M 1.9375 -0.234375 C 1.9375 -0.109375 1.972656 0.00390625 2.046875 0.109375 C 2.128906 0.210938 2.238281 0.296875 2.375 0.359375 C 2.507812 0.429688 2.664062 0.484375 2.84375 0.515625 C 3.03125 0.554688 3.234375 0.578125 3.453125 0.578125 C 3.671875 0.578125 3.875 0.554688 4.0625 0.515625 C 4.25 0.484375 4.410156 0.429688 4.546875 0.359375 C 4.679688 0.296875 4.785156 0.210938 4.859375 0.109375 C 4.941406 0.00390625 4.984375 -0.109375 4.984375 -0.234375 C 4.984375 -0.484375 4.835938 -0.679688 4.546875 -0.828125 C 4.253906 -0.972656 3.890625 -1.046875 3.453125 -1.046875 C 3.234375 -1.046875 3.03125 -1.023438 2.84375 -0.984375 C 2.664062 -0.941406 2.507812 -0.890625 2.375 -0.828125 C 2.238281 -0.753906 2.128906 -0.664062 2.046875 -0.5625 C 1.972656 -0.46875 1.9375 -0.359375 1.9375 -0.234375 Z M 1.9375 -0.234375 "/>
</g>
<g id="glyph-2-3">
<path d="M 3.6875 -4.515625 L 2.484375 -4.515625 L 2.484375 -4.328125 C 2.484375 -4.078125 2.53125 -3.847656 2.625 -3.640625 C 2.71875 -3.429688 2.835938 -3.242188 2.984375 -3.078125 C 3.140625 -2.910156 3.316406 -2.769531 3.515625 -2.65625 C 3.710938 -2.539062 3.914062 -2.453125 4.125 -2.390625 L 3.765625 -1.984375 C 3.648438 -2.035156 3.519531 -2.101562 3.375 -2.1875 C 3.226562 -2.269531 3.082031 -2.363281 2.9375 -2.46875 C 2.789062 -2.582031 2.648438 -2.707031 2.515625 -2.84375 C 2.390625 -2.988281 2.285156 -3.144531 2.203125 -3.3125 C 2.066406 -2.96875 1.851562 -2.671875 1.5625 -2.421875 C 1.269531 -2.171875 0.953125 -1.960938 0.609375 -1.796875 L 0.1875 -2.171875 C 0.414062 -2.253906 0.632812 -2.363281 0.84375 -2.5 C 1.050781 -2.632812 1.234375 -2.789062 1.390625 -2.96875 C 1.546875 -3.144531 1.671875 -3.347656 1.765625 -3.578125 C 1.859375 -3.804688 1.90625 -4.0625 1.90625 -4.34375 L 1.90625 -4.515625 L 0.65625 -4.515625 L 0.65625 -5 L 3.6875 -5 Z M 3.625 -3.90625 L 4.90625 -3.90625 L 4.90625 -5.28125 L 5.453125 -5.28125 L 5.453125 -1.703125 L 4.90625 -1.703125 L 4.90625 -3.4375 L 3.625 -3.4375 Z M 2 0.390625 L 4.90625 0.390625 L 4.90625 -0.921875 L 2 -0.921875 Z M 1.59375 -1.390625 L 5.3125 -1.390625 C 5.363281 -1.390625 5.398438 -1.375 5.421875 -1.34375 C 5.441406 -1.320312 5.453125 -1.285156 5.453125 -1.234375 L 5.453125 0.6875 C 5.453125 0.75 5.441406 0.789062 5.421875 0.8125 C 5.398438 0.832031 5.363281 0.84375 5.3125 0.84375 L 1.59375 0.84375 C 1.539062 0.84375 1.503906 0.832031 1.484375 0.8125 C 1.460938 0.789062 1.453125 0.75 1.453125 0.6875 L 1.453125 -1.234375 C 1.453125 -1.285156 1.460938 -1.320312 1.484375 -1.34375 C 1.503906 -1.375 1.539062 -1.390625 1.59375 -1.390625 Z M 1.59375 -1.390625 "/>
</g>
<g id="glyph-2-4">
<path d="M 0.40625 -2.21875 C 0.40625 -2.5 0.4375 -2.789062 0.5 -3.09375 C 0.5625 -3.394531 0.65625 -3.691406 0.78125 -3.984375 C 0.90625 -4.273438 1.054688 -4.550781 1.234375 -4.8125 C 1.410156 -5.082031 1.609375 -5.335938 1.828125 -5.578125 L 2.25 -5.578125 C 1.832031 -5.023438 1.523438 -4.460938 1.328125 -3.890625 C 1.128906 -3.316406 1.03125 -2.757812 1.03125 -2.21875 C 1.03125 -1.675781 1.128906 -1.113281 1.328125 -0.53125 C 1.523438 0.0390625 1.832031 0.59375 2.25 1.125 L 1.828125 1.125 C 1.609375 0.90625 1.410156 0.660156 1.234375 0.390625 C 1.054688 0.117188 0.90625 -0.164062 0.78125 -0.46875 C 0.65625 -0.75 0.5625 -1.035156 0.5 -1.328125 C 0.4375 -1.628906 0.40625 -1.925781 0.40625 -2.21875 Z M 0.40625 -2.21875 "/>
</g>
<g id="glyph-2-5">
<path d="M 1.25 -1.125 L 3 -1.125 L 3 -2.90625 L 1.25 -2.90625 Z M 0.6875 -0.78125 L 0.6875 -4.984375 L 1.25 -4.984375 L 1.25 -3.390625 L 3 -3.390625 L 3 -4.984375 L 3.53125 -4.984375 L 3.53125 -3.140625 L 4.765625 -3.140625 L 4.765625 -5.28125 L 5.328125 -5.28125 L 5.328125 0.921875 L 4.765625 0.921875 L 4.765625 -2.65625 L 3.53125 -2.65625 L 3.53125 -0.78125 C 3.53125 -0.726562 3.519531 -0.691406 3.5 -0.671875 C 3.476562 -0.648438 3.441406 -0.640625 3.390625 -0.640625 L 0.84375 -0.640625 C 0.78125 -0.640625 0.738281 -0.648438 0.71875 -0.671875 C 0.695312 -0.691406 0.6875 -0.726562 0.6875 -0.78125 Z M 0.6875 -0.78125 "/>
</g>
<g id="glyph-2-6">
<path d="M 0.4375 -1.203125 L 1.1875 -1.203125 L 1.171875 -4.4375 L 0.59375 -4.4375 L 0.59375 -4.921875 L 3.96875 -4.921875 L 3.96875 -4.4375 L 3.390625 -4.4375 L 3.390625 -1.25 C 3.566406 -1.25 3.738281 -1.253906 3.90625 -1.265625 C 4.070312 -1.285156 4.222656 -1.304688 4.359375 -1.328125 L 4.359375 -0.859375 C 4.191406 -0.835938 4.007812 -0.816406 3.8125 -0.796875 C 3.625 -0.773438 3.425781 -0.757812 3.21875 -0.75 C 3.007812 -0.738281 2.800781 -0.726562 2.59375 -0.71875 C 2.394531 -0.71875 2.203125 -0.71875 2.015625 -0.71875 L 0.4375 -0.71875 Z M 1.734375 -1.203125 L 1.859375 -1.203125 C 2.023438 -1.203125 2.1875 -1.203125 2.34375 -1.203125 C 2.507812 -1.203125 2.671875 -1.207031 2.828125 -1.21875 L 2.859375 -4.4375 L 1.71875 -4.4375 Z M 3.828125 -3.203125 L 4.90625 -3.203125 L 4.90625 -5.28125 L 5.453125 -5.28125 L 5.453125 0.921875 L 4.90625 0.921875 L 4.90625 -2.703125 L 3.828125 -2.703125 Z M 3.828125 -3.203125 "/>
</g>
<g id="glyph-2-7">
<path d="M 0.765625 -3.53125 C 0.765625 -3.738281 0.800781 -3.9375 0.875 -4.125 C 0.945312 -4.3125 1.050781 -4.472656 1.1875 -4.609375 C 1.320312 -4.742188 1.488281 -4.851562 1.6875 -4.9375 C 1.894531 -5.03125 2.125 -5.078125 2.375 -5.078125 C 2.632812 -5.078125 2.863281 -5.03125 3.0625 -4.9375 C 3.257812 -4.851562 3.425781 -4.742188 3.5625 -4.609375 C 3.695312 -4.472656 3.800781 -4.3125 3.875 -4.125 C 3.957031 -3.9375 4 -3.738281 4 -3.53125 C 4 -3.3125 3.957031 -3.109375 3.875 -2.921875 C 3.800781 -2.734375 3.695312 -2.570312 3.5625 -2.4375 C 3.414062 -2.289062 3.242188 -2.175781 3.046875 -2.09375 C 2.847656 -2.019531 2.625 -1.984375 2.375 -1.984375 C 2.125 -1.984375 1.894531 -2.019531 1.6875 -2.09375 C 1.488281 -2.175781 1.320312 -2.289062 1.1875 -2.4375 C 1.050781 -2.570312 0.945312 -2.734375 0.875 -2.921875 C 0.800781 -3.109375 0.765625 -3.3125 0.765625 -3.53125 Z M 1.3125 -3.53125 C 1.3125 -3.226562 1.398438 -2.96875 1.578125 -2.75 C 1.753906 -2.539062 2.019531 -2.4375 2.375 -2.4375 C 2.738281 -2.4375 3.003906 -2.539062 3.171875 -2.75 C 3.347656 -2.96875 3.4375 -3.226562 3.4375 -3.53125 C 3.4375 -3.820312 3.347656 -4.070312 3.171875 -4.28125 C 2.992188 -4.5 2.726562 -4.609375 2.375 -4.609375 C 2.03125 -4.609375 1.765625 -4.5 1.578125 -4.28125 C 1.398438 -4.070312 1.3125 -3.820312 1.3125 -3.53125 Z M 1.140625 -0.46875 L 0.4375 -0.46875 L 0.4375 -0.953125 L 1.140625 -0.953125 L 2.3125 -0.96875 C 2.425781 -0.96875 2.578125 -0.972656 2.765625 -0.984375 C 2.960938 -0.992188 3.171875 -1.007812 3.390625 -1.03125 C 3.609375 -1.050781 3.828125 -1.070312 4.046875 -1.09375 C 4.265625 -1.113281 4.46875 -1.140625 4.65625 -1.171875 L 4.65625 -0.703125 C 4.1875 -0.628906 3.65625 -0.570312 3.0625 -0.53125 C 2.46875 -0.488281 1.828125 -0.46875 1.140625 -0.46875 Z M 4.890625 -5.28125 L 5.4375 -5.28125 L 5.4375 0.90625 L 4.890625 0.90625 Z M 4.890625 -5.28125 "/>
</g>
<g id="glyph-2-8">
<path d="M 3.75 -4.453125 L 2.53125 -4.453125 L 2.53125 -4.296875 C 2.53125 -4.085938 2.570312 -3.890625 2.65625 -3.703125 C 2.738281 -3.523438 2.859375 -3.359375 3.015625 -3.203125 C 3.160156 -3.046875 3.328125 -2.910156 3.515625 -2.796875 C 3.703125 -2.679688 3.894531 -2.585938 4.09375 -2.515625 L 3.734375 -2.109375 C 3.609375 -2.171875 3.472656 -2.238281 3.328125 -2.3125 C 3.179688 -2.394531 3.039062 -2.492188 2.90625 -2.609375 C 2.769531 -2.710938 2.640625 -2.832031 2.515625 -2.96875 C 2.398438 -3.101562 2.304688 -3.253906 2.234375 -3.421875 C 2.085938 -3.078125 1.867188 -2.785156 1.578125 -2.546875 C 1.296875 -2.304688 0.988281 -2.113281 0.65625 -1.96875 L 0.234375 -2.34375 C 0.460938 -2.4375 0.679688 -2.546875 0.890625 -2.671875 C 1.097656 -2.804688 1.28125 -2.953125 1.4375 -3.109375 C 1.582031 -3.273438 1.703125 -3.457031 1.796875 -3.65625 C 1.890625 -3.851562 1.9375 -4.066406 1.9375 -4.296875 L 1.9375 -4.453125 L 0.703125 -4.453125 L 0.703125 -4.9375 L 3.75 -4.9375 Z M 0.265625 -0.890625 L 1.984375 -0.890625 L 1.984375 -2.203125 L 2.515625 -2.203125 L 2.515625 -0.90625 C 2.609375 -0.90625 2.734375 -0.910156 2.890625 -0.921875 C 3.054688 -0.929688 3.234375 -0.941406 3.421875 -0.953125 C 3.597656 -0.960938 3.769531 -0.972656 3.9375 -0.984375 C 4.113281 -1.003906 4.257812 -1.023438 4.375 -1.046875 L 4.375 -0.578125 C 4.175781 -0.546875 3.957031 -0.519531 3.71875 -0.5 C 3.476562 -0.476562 3.226562 -0.460938 2.96875 -0.453125 C 2.707031 -0.429688 2.441406 -0.414062 2.171875 -0.40625 C 1.910156 -0.394531 1.660156 -0.390625 1.421875 -0.390625 L 0.265625 -0.390625 Z M 4.59375 0.921875 L 4.59375 -5.28125 L 5.140625 -5.28125 L 5.140625 -2.921875 L 6.015625 -2.921875 L 6.015625 -2.40625 L 5.140625 -2.40625 L 5.140625 0.921875 Z M 4.59375 0.921875 "/>
</g>
<g id="glyph-2-9">
<path d="M 3.984375 -4.484375 L 2.078125 -4.484375 C 2.078125 -4.296875 2.078125 -4.125 2.078125 -3.96875 C 2.078125 -3.8125 2.082031 -3.65625 2.09375 -3.5 C 2.09375 -3.34375 2.09375 -3.1875 2.09375 -3.03125 C 2.09375 -2.875 2.097656 -2.707031 2.109375 -2.53125 L 3.953125 -2.53125 C 3.953125 -2.707031 3.953125 -2.875 3.953125 -3.03125 C 3.953125 -3.1875 3.957031 -3.34375 3.96875 -3.5 C 3.96875 -3.65625 3.96875 -3.8125 3.96875 -3.96875 C 3.96875 -4.125 3.972656 -4.296875 3.984375 -4.484375 Z M 3.875 -1.84375 L 4.40625 -1.84375 L 4.40625 -0.34375 L 5.875 -0.34375 L 5.875 0.125 L 0.1875 0.125 L 0.1875 -0.34375 L 1.703125 -0.34375 L 1.703125 -1.84375 L 2.234375 -1.84375 L 2.234375 -0.34375 L 3.875 -0.34375 Z M 0.6875 -2.0625 L 0.6875 -2.53125 L 1.546875 -2.53125 C 1.546875 -2.707031 1.539062 -2.875 1.53125 -3.03125 C 1.53125 -3.1875 1.53125 -3.34375 1.53125 -3.5 C 1.53125 -3.65625 1.523438 -3.8125 1.515625 -3.96875 C 1.515625 -4.125 1.515625 -4.296875 1.515625 -4.484375 L 0.828125 -4.484375 L 0.828125 -4.9375 L 5.21875 -4.9375 L 5.21875 -4.484375 L 4.53125 -4.484375 C 4.519531 -4.296875 4.515625 -4.125 4.515625 -3.96875 C 4.515625 -3.8125 4.507812 -3.65625 4.5 -3.5 C 4.5 -3.34375 4.492188 -3.1875 4.484375 -3.03125 C 4.484375 -2.875 4.484375 -2.707031 4.484375 -2.53125 L 5.359375 -2.53125 L 5.359375 -2.0625 Z M 0.6875 -2.0625 "/>
</g>
<g id="glyph-2-10">
<path d="M 1.828125 -2.21875 C 1.828125 -1.925781 1.796875 -1.628906 1.734375 -1.328125 C 1.671875 -1.035156 1.578125 -0.75 1.453125 -0.46875 C 1.328125 -0.164062 1.175781 0.117188 1 0.390625 C 0.820312 0.660156 0.625 0.90625 0.40625 1.125 L 0 1.125 C 0.40625 0.59375 0.707031 0.0390625 0.90625 -0.53125 C 1.101562 -1.113281 1.203125 -1.675781 1.203125 -2.21875 C 1.203125 -2.757812 1.101562 -3.316406 0.90625 -3.890625 C 0.707031 -4.460938 0.40625 -5.023438 0 -5.578125 L 0.40625 -5.578125 C 0.625 -5.335938 0.820312 -5.082031 1 -4.8125 C 1.175781 -4.550781 1.328125 -4.273438 1.453125 -3.984375 C 1.578125 -3.691406 1.671875 -3.394531 1.734375 -3.09375 C 1.796875 -2.789062 1.828125 -2.5 1.828125 -2.21875 Z M 1.828125 -2.21875 "/>
</g>
<g id="glyph-2-11">
<path d="M 5.171875 -4.484375 L 3.34375 -4.484375 L 3.34375 -4.28125 C 3.34375 -4 3.410156 -3.738281 3.546875 -3.5 C 3.679688 -3.269531 3.859375 -3.0625 4.078125 -2.875 C 4.304688 -2.6875 4.554688 -2.53125 4.828125 -2.40625 C 5.097656 -2.28125 5.367188 -2.1875 5.640625 -2.125 L 5.25 -1.703125 C 5.050781 -1.753906 4.835938 -1.832031 4.609375 -1.9375 C 4.390625 -2.050781 4.175781 -2.175781 3.96875 -2.3125 C 3.769531 -2.457031 3.582031 -2.617188 3.40625 -2.796875 C 3.238281 -2.984375 3.113281 -3.175781 3.03125 -3.375 C 2.945312 -3.15625 2.820312 -2.957031 2.65625 -2.78125 C 2.488281 -2.613281 2.304688 -2.460938 2.109375 -2.328125 C 1.910156 -2.191406 1.695312 -2.070312 1.46875 -1.96875 C 1.25 -1.863281 1.03125 -1.773438 0.8125 -1.703125 L 0.390625 -2.125 C 0.703125 -2.207031 1 -2.3125 1.28125 -2.4375 C 1.5625 -2.5625 1.804688 -2.710938 2.015625 -2.890625 C 2.234375 -3.066406 2.40625 -3.269531 2.53125 -3.5 C 2.65625 -3.726562 2.71875 -3.988281 2.71875 -4.28125 L 2.71875 -4.484375 L 0.875 -4.484375 L 0.875 -4.9375 L 5.171875 -4.9375 Z M 5.875 0.125 L 0.1875 0.125 L 0.1875 -0.34375 L 2.75 -0.34375 L 2.75 -1.859375 L 3.3125 -1.859375 L 3.3125 -0.34375 L 5.875 -0.34375 Z M 5.875 0.125 "/>
</g>
<g id="glyph-2-12">
<path d="M 0.796875 -3.796875 L 2.9375 -3.796875 L 2.9375 -4.578125 L 0.65625 -4.578125 L 0.65625 -5.046875 L 3.328125 -5.046875 C 3.378906 -5.046875 3.414062 -5.035156 3.4375 -5.015625 C 3.457031 -4.992188 3.46875 -4.953125 3.46875 -4.890625 L 3.46875 -3.5 C 3.46875 -3.4375 3.457031 -3.394531 3.4375 -3.375 C 3.414062 -3.351562 3.378906 -3.34375 3.328125 -3.34375 L 1.1875 -3.34375 L 1.1875 -2.5625 L 1.859375 -2.5625 C 2.109375 -2.5625 2.359375 -2.566406 2.609375 -2.578125 C 2.867188 -2.585938 3.117188 -2.601562 3.359375 -2.625 C 3.578125 -2.644531 3.78125 -2.664062 3.96875 -2.6875 C 4.164062 -2.71875 4.328125 -2.742188 4.453125 -2.765625 L 4.453125 -2.3125 C 4.316406 -2.289062 4.144531 -2.265625 3.9375 -2.234375 C 3.726562 -2.203125 3.503906 -2.175781 3.265625 -2.15625 C 3.023438 -2.132812 2.765625 -2.113281 2.484375 -2.09375 C 2.210938 -2.082031 1.941406 -2.078125 1.671875 -2.078125 L 0.796875 -2.078125 C 0.742188 -2.078125 0.707031 -2.085938 0.6875 -2.109375 C 0.664062 -2.128906 0.65625 -2.171875 0.65625 -2.234375 L 0.65625 -3.65625 C 0.65625 -3.707031 0.664062 -3.742188 0.6875 -3.765625 C 0.707031 -3.785156 0.742188 -3.796875 0.796875 -3.796875 Z M 5.328125 -5.28125 L 5.328125 -1.90625 L 4.78125 -1.90625 L 4.78125 -5.28125 Z M 1.875 0.390625 L 4.78125 0.390625 L 4.78125 -0.453125 L 1.875 -0.453125 Z M 1.3125 0.703125 L 1.3125 -1.546875 L 1.875 -1.546875 L 1.875 -0.90625 L 4.78125 -0.90625 L 4.78125 -1.578125 L 5.328125 -1.578125 L 5.328125 0.703125 C 5.328125 0.753906 5.316406 0.789062 5.296875 0.8125 C 5.273438 0.832031 5.238281 0.84375 5.1875 0.84375 L 1.46875 0.84375 C 1.414062 0.84375 1.375 0.832031 1.34375 0.8125 C 1.320312 0.789062 1.3125 0.753906 1.3125 0.703125 Z M 1.3125 0.703125 "/>
</g>
<g id="glyph-2-13">
<path d="M 1.09375 -5.046875 L 4.078125 -5.046875 L 4.078125 -4.59375 L 1.484375 -4.59375 L 1.484375 -3.375 L 4.171875 -3.375 L 4.171875 -2.921875 L 2.78125 -2.921875 L 2.78125 -2.03125 C 2.90625 -2.03125 3.050781 -2.03125 3.21875 -2.03125 C 3.394531 -2.039062 3.570312 -2.050781 3.75 -2.0625 C 3.914062 -2.082031 4.082031 -2.097656 4.25 -2.109375 C 4.414062 -2.128906 4.554688 -2.148438 4.671875 -2.171875 L 4.671875 -1.71875 C 4.535156 -1.6875 4.359375 -1.660156 4.140625 -1.640625 C 3.921875 -1.617188 3.679688 -1.597656 3.421875 -1.578125 C 3.160156 -1.566406 2.882812 -1.550781 2.59375 -1.53125 C 2.3125 -1.519531 2.023438 -1.515625 1.734375 -1.515625 L 0.421875 -1.515625 L 0.421875 -2 L 2.234375 -2 L 2.234375 -2.921875 L 1.09375 -2.921875 C 1.03125 -2.921875 0.988281 -2.929688 0.96875 -2.953125 C 0.957031 -2.972656 0.953125 -3.007812 0.953125 -3.0625 L 0.953125 -4.90625 C 0.953125 -4.957031 0.960938 -4.992188 0.984375 -5.015625 C 1.003906 -5.035156 1.039062 -5.046875 1.09375 -5.046875 Z M 4.90625 -0.59375 L 4.90625 -5.265625 L 5.453125 -5.265625 L 5.453125 -0.59375 Z M 1.578125 0.796875 C 1.515625 0.796875 1.472656 0.78125 1.453125 0.75 C 1.429688 0.726562 1.421875 0.691406 1.421875 0.640625 L 1.421875 -0.96875 L 1.984375 -0.96875 L 1.984375 0.3125 L 5.578125 0.3125 L 5.578125 0.796875 Z M 1.578125 0.796875 "/>
</g>
<g id="glyph-2-14">
<path d="M 3.671875 -1.828125 C 3.535156 -1.890625 3.394531 -1.960938 3.25 -2.046875 C 3.101562 -2.140625 2.957031 -2.25 2.8125 -2.375 C 2.675781 -2.488281 2.546875 -2.613281 2.421875 -2.75 C 2.296875 -2.894531 2.195312 -3.054688 2.125 -3.234375 C 2.0625 -3.046875 1.972656 -2.875 1.859375 -2.71875 C 1.753906 -2.570312 1.628906 -2.429688 1.484375 -2.296875 C 1.347656 -2.160156 1.203125 -2.039062 1.046875 -1.9375 C 0.890625 -1.832031 0.734375 -1.734375 0.578125 -1.640625 L 0.15625 -2.03125 C 0.382812 -2.132812 0.597656 -2.257812 0.796875 -2.40625 C 1.003906 -2.5625 1.179688 -2.726562 1.328125 -2.90625 C 1.484375 -3.09375 1.601562 -3.300781 1.6875 -3.53125 C 1.78125 -3.769531 1.828125 -4.023438 1.828125 -4.296875 L 1.828125 -5.125 L 2.40625 -5.125 L 2.40625 -4.34375 C 2.40625 -4.082031 2.445312 -3.84375 2.53125 -3.625 C 2.625 -3.40625 2.75 -3.207031 2.90625 -3.03125 C 3.050781 -2.851562 3.222656 -2.695312 3.421875 -2.5625 C 3.617188 -2.4375 3.820312 -2.335938 4.03125 -2.265625 Z M 3.46875 -4.046875 L 4.828125 -4.046875 L 4.828125 -5.28125 L 5.375 -5.28125 L 5.375 -0.75 L 4.828125 -0.75 L 4.828125 -3.5625 L 3.46875 -3.5625 Z M 1.515625 0.78125 C 1.460938 0.78125 1.425781 0.769531 1.40625 0.75 C 1.382812 0.726562 1.375 0.691406 1.375 0.640625 L 1.375 -1.1875 L 1.9375 -1.1875 L 1.9375 0.3125 L 5.5625 0.3125 L 5.5625 0.78125 Z M 1.515625 0.78125 "/>
</g>
<g id="glyph-2-15">
<path d="M 1.46875 -3.203125 L 4.578125 -3.203125 L 4.578125 -4 L 1.46875 -4 Z M 0.9375 -2.875 L 0.9375 -5.21875 L 1.46875 -5.21875 L 1.46875 -4.453125 L 4.578125 -4.453125 L 4.578125 -5.21875 L 5.125 -5.21875 L 5.125 -2.875 C 5.125 -2.820312 5.113281 -2.785156 5.09375 -2.765625 C 5.070312 -2.742188 5.03125 -2.734375 4.96875 -2.734375 L 1.078125 -2.734375 C 1.023438 -2.734375 0.988281 -2.742188 0.96875 -2.765625 C 0.945312 -2.785156 0.9375 -2.820312 0.9375 -2.875 Z M 5.859375 -1.609375 L 3.390625 -1.609375 L 3.390625 -0.296875 L 2.84375 -0.296875 L 2.84375 -1.609375 L 0.203125 -1.609375 L 0.203125 -2.09375 L 5.859375 -2.09375 Z M 1.109375 0.78125 C 1.046875 0.78125 1.003906 0.769531 0.984375 0.75 C 0.960938 0.726562 0.953125 0.691406 0.953125 0.640625 L 0.953125 -0.984375 L 1.5 -0.984375 L 1.5 0.3125 L 5.34375 0.3125 L 5.34375 0.78125 Z M 1.109375 0.78125 "/>
</g>
<g id="glyph-2-16">
<path d="M 0.015625 -2.296875 C 0.253906 -2.398438 0.472656 -2.523438 0.671875 -2.671875 C 0.878906 -2.816406 1.054688 -2.984375 1.203125 -3.171875 C 1.359375 -3.359375 1.476562 -3.566406 1.5625 -3.796875 C 1.644531 -4.035156 1.6875 -4.304688 1.6875 -4.609375 L 1.6875 -5.125 L 2.265625 -5.125 L 2.265625 -4.59375 C 2.265625 -4.332031 2.304688 -4.085938 2.390625 -3.859375 C 2.484375 -3.640625 2.609375 -3.445312 2.765625 -3.28125 C 2.910156 -3.101562 3.078125 -2.953125 3.265625 -2.828125 C 3.460938 -2.703125 3.671875 -2.601562 3.890625 -2.53125 L 3.53125 -2.09375 C 3.394531 -2.15625 3.253906 -2.226562 3.109375 -2.3125 C 2.960938 -2.40625 2.820312 -2.515625 2.6875 -2.640625 C 2.539062 -2.742188 2.40625 -2.863281 2.28125 -3 C 2.164062 -3.144531 2.066406 -3.300781 1.984375 -3.46875 C 1.921875 -3.289062 1.832031 -3.125 1.71875 -2.96875 C 1.613281 -2.820312 1.488281 -2.679688 1.34375 -2.546875 C 1.207031 -2.410156 1.0625 -2.289062 0.90625 -2.1875 C 0.75 -2.082031 0.59375 -1.988281 0.4375 -1.90625 Z M 5.953125 -3.359375 L 5.09375 -3.359375 L 5.09375 -1.71875 L 4.546875 -1.71875 L 4.546875 -5.28125 L 5.09375 -5.28125 L 5.09375 -3.84375 L 5.953125 -3.84375 Z M 1.78125 0.390625 L 4.5625 0.390625 L 4.5625 -0.921875 L 1.78125 -0.921875 Z M 1.390625 -1.390625 L 4.96875 -1.390625 C 5.019531 -1.390625 5.054688 -1.378906 5.078125 -1.359375 C 5.097656 -1.335938 5.109375 -1.300781 5.109375 -1.25 L 5.109375 0.6875 C 5.109375 0.75 5.097656 0.789062 5.078125 0.8125 C 5.054688 0.832031 5.019531 0.84375 4.96875 0.84375 L 1.390625 0.84375 C 1.335938 0.84375 1.300781 0.832031 1.28125 0.8125 C 1.257812 0.789062 1.25 0.75 1.25 0.6875 L 1.25 -1.25 C 1.25 -1.300781 1.257812 -1.335938 1.28125 -1.359375 C 1.300781 -1.378906 1.335938 -1.390625 1.390625 -1.390625 Z M 1.390625 -1.390625 "/>
</g>
<g id="glyph-2-17">
<path d="M 3.328125 -5 C 3.378906 -5 3.414062 -4.988281 3.4375 -4.96875 C 3.457031 -4.945312 3.46875 -4.90625 3.46875 -4.84375 C 3.382812 -4.070312 3.097656 -3.421875 2.609375 -2.890625 C 2.128906 -2.367188 1.476562 -1.972656 0.65625 -1.703125 L 0.3125 -2.09375 C 0.644531 -2.1875 0.953125 -2.304688 1.234375 -2.453125 C 1.523438 -2.609375 1.78125 -2.785156 2 -2.984375 C 2.226562 -3.179688 2.410156 -3.40625 2.546875 -3.65625 C 2.691406 -3.914062 2.789062 -4.203125 2.84375 -4.515625 L 0.65625 -4.515625 L 0.65625 -5 Z M 5.15625 -5.28125 L 5.15625 -3.703125 L 6.03125 -3.703125 L 6.03125 -3.21875 L 5.15625 -3.21875 L 5.15625 -1.578125 L 4.609375 -1.578125 L 4.609375 -5.28125 Z M 1.109375 -1.25 L 5.015625 -1.25 C 5.066406 -1.25 5.101562 -1.238281 5.125 -1.21875 C 5.144531 -1.195312 5.15625 -1.15625 5.15625 -1.09375 L 5.15625 0.953125 L 4.609375 0.953125 L 4.609375 -0.765625 L 1.109375 -0.765625 Z M 1.109375 -1.25 "/>
</g>
<g id="glyph-2-18">
<path d="M 0.421875 -4.484375 L 3.875 -4.484375 L 3.875 -4.0625 L 0.421875 -4.0625 Z M 3.09375 -4.875 L 1.265625 -4.875 L 1.265625 -5.296875 L 3.09375 -5.296875 Z M 2.1875 -3.78125 C 2.644531 -3.78125 3.015625 -3.679688 3.296875 -3.484375 C 3.585938 -3.296875 3.734375 -3.046875 3.734375 -2.734375 C 3.734375 -2.578125 3.691406 -2.429688 3.609375 -2.296875 C 3.535156 -2.171875 3.429688 -2.0625 3.296875 -1.96875 C 3.160156 -1.875 2.992188 -1.800781 2.796875 -1.75 C 2.609375 -1.695312 2.40625 -1.671875 2.1875 -1.671875 C 1.96875 -1.671875 1.765625 -1.695312 1.578125 -1.75 C 1.390625 -1.800781 1.226562 -1.875 1.09375 -1.96875 C 0.957031 -2.0625 0.847656 -2.171875 0.765625 -2.296875 C 0.691406 -2.429688 0.65625 -2.578125 0.65625 -2.734375 C 0.65625 -3.046875 0.796875 -3.296875 1.078125 -3.484375 C 1.367188 -3.679688 1.738281 -3.78125 2.1875 -3.78125 Z M 2.1875 -3.359375 C 1.882812 -3.359375 1.644531 -3.300781 1.46875 -3.1875 C 1.300781 -3.070312 1.21875 -2.921875 1.21875 -2.734375 C 1.21875 -2.535156 1.300781 -2.375 1.46875 -2.25 C 1.644531 -2.132812 1.882812 -2.078125 2.1875 -2.078125 C 2.488281 -2.078125 2.722656 -2.132812 2.890625 -2.25 C 3.066406 -2.375 3.15625 -2.535156 3.15625 -2.734375 C 3.15625 -2.921875 3.066406 -3.070312 2.890625 -3.1875 C 2.722656 -3.300781 2.488281 -3.359375 2.1875 -3.359375 Z M 5.46875 -5.28125 L 5.46875 -1.328125 L 4.9375 -1.328125 L 4.921875 -2.140625 L 3.90625 -2.140625 L 3.90625 -2.59375 L 4.9375 -2.59375 L 4.9375 -3.296875 L 3.90625 -3.296875 L 3.90625 -3.734375 L 4.9375 -3.734375 L 4.9375 -5.28125 Z M 1.25 -0.125 C 1.25 -0.457031 1.429688 -0.734375 1.796875 -0.953125 C 2.171875 -1.171875 2.707031 -1.28125 3.40625 -1.28125 C 4.101562 -1.28125 4.632812 -1.171875 5 -0.953125 C 5.363281 -0.734375 5.546875 -0.457031 5.546875 -0.125 C 5.546875 0.214844 5.363281 0.5 5 0.71875 C 4.632812 0.9375 4.101562 1.046875 3.40625 1.046875 C 2.707031 1.046875 2.171875 0.9375 1.796875 0.71875 C 1.429688 0.5 1.25 0.214844 1.25 -0.125 Z M 4.953125 -0.109375 C 4.953125 -0.347656 4.804688 -0.53125 4.515625 -0.65625 C 4.222656 -0.78125 3.851562 -0.84375 3.40625 -0.84375 C 2.945312 -0.84375 2.570312 -0.78125 2.28125 -0.65625 C 1.988281 -0.53125 1.84375 -0.351562 1.84375 -0.125 C 1.84375 0.113281 1.988281 0.296875 2.28125 0.421875 C 2.570312 0.546875 2.945312 0.609375 3.40625 0.609375 C 3.851562 0.609375 4.222656 0.546875 4.515625 0.421875 C 4.804688 0.296875 4.953125 0.117188 4.953125 -0.109375 Z M 4.953125 -0.109375 "/>
</g>
</g>
<clipPath id="clip-0">
<path clip-rule="nonzero" d="M 0.949219 0 L 118 0 L 118 98 L 0.949219 98 Z M 0.949219 0 "/>
</clipPath>
<clipPath id="clip-1">
<path clip-rule="nonzero" d="M 0.949219 92 L 118 92 L 118 190.285156 L 0.949219 190.285156 Z M 0.949219 92 "/>
</clipPath>
<clipPath id="clip-2">
<path clip-rule="nonzero" d="M 111 92 L 231 92 L 231 190.285156 L 111 190.285156 Z M 111 92 "/>
</clipPath>
<clipPath id="clip-3">
<path clip-rule="nonzero" d="M 224 92 L 343 92 L 343 190.285156 L 224 190.285156 Z M 224 92 "/>
</clipPath>
<clipPath id="clip-4">
<path clip-rule="nonzero" d="M 337 92 L 456 92 L 456 190.285156 L 337 190.285156 Z M 337 92 "/>
</clipPath>
</defs>
<path fill-rule="nonzero" fill="rgb(95.588684%, 96.998596%, 98.762512%)" fill-opacity="1" d="M 105.8125 6.25 L 10.171875 6.25 C 8.53125 6.25 7.199219 7.582031 7.199219 9.226562 L 7.199219 86.523438 C 7.199219 88.167969 8.53125 89.5 10.171875 89.5 L 105.8125 89.5 C 107.457031 89.5 108.789062 88.167969 108.789062 86.523438 L 108.789062 9.226562 C 108.789062 7.582031 107.457031 6.25 105.8125 6.25 Z M 105.8125 6.25 "/>
<g clip-path="url(#clip-0)">
<path fill="none" stroke-width="0.59776" stroke-linecap="butt" stroke-linejoin="miter" stroke="rgb(82.351685%, 83.921814%, 86.274719%)" stroke-opacity="1" stroke-miterlimit="10" d="M 48.034101 41.812879 L -48.036842 41.812879 C -49.684849 41.812879 -51.022873 40.474855 -51.022873 38.822924 L -51.022873 -38.821734 C -51.022873 -40.473665 -49.684849 -41.811689 -48.036842 -41.811689 L 48.034101 -41.811689 C 49.686031 -41.811689 51.024056 -40.473665 51.024056 -38.821734 L 51.024056 38.822924 C 51.024056 40.474855 49.686031 41.812879 48.034101 41.812879 Z M 48.034101 41.812879 " transform="matrix(0.995521, 0, 0, -0.995521, 57.993552, 47.875592)"/>
</g>
<g fill="rgb(8.599854%, 21.998596%, 39.199829%)" fill-opacity="1">
<use xlink:href="#glyph-0-0" x="47.519677" y="17.887518"/>
<use xlink:href="#glyph-0-1" x="51.01082" y="17.887518"/>
<use xlink:href="#glyph-0-2" x="54.501962" y="17.887518"/>
<use xlink:href="#glyph-0-3" x="57.993104" y="17.887518"/>
<use xlink:href="#glyph-0-4" x="61.484246" y="17.887518"/>
<use xlink:href="#glyph-0-5" x="64.975389" y="17.887518"/>
</g>
<path fill-rule="nonzero" fill="rgb(8.625793%, 21.961975%, 39.216614%)" fill-opacity="1" d="M 31.558594 36.585938 C 31.558594 35.601562 30.757812 34.800781 29.773438 34.800781 C 28.789062 34.800781 27.988281 35.601562 27.988281 36.585938 C 27.988281 37.574219 28.789062 38.375 29.773438 38.375 C 30.757812 38.375 31.558594 37.574219 31.558594 36.585938 Z M 31.558594 36.585938 "/>
<path fill-rule="nonzero" fill="rgb(8.625793%, 21.961975%, 39.216614%)" fill-opacity="1" d="M 56.957031 29.53125 C 56.957031 28.546875 56.15625 27.746094 55.171875 27.746094 C 54.183594 27.746094 53.386719 28.546875 53.386719 29.53125 C 53.386719 30.519531 54.183594 31.316406 55.171875 31.316406 C 56.15625 31.316406 56.957031 30.519531 56.957031 29.53125 Z M 56.957031 29.53125 "/>
<path fill-rule="nonzero" fill="rgb(8.625793%, 21.961975%, 39.216614%)" fill-opacity="1" d="M 85.175781 40.820312 C 85.175781 39.835938 84.378906 39.035156 83.390625 39.035156 C 82.40625 39.035156 81.605469 39.835938 81.605469 40.820312 C 81.605469 41.808594 82.40625 42.605469 83.390625 42.605469 C 84.378906 42.605469 85.175781 41.808594 85.175781 40.820312 Z M 85.175781 40.820312 "/>
<path fill-rule="nonzero" fill="rgb(8.625793%, 21.961975%, 39.216614%)" fill-opacity="1" d="M 45.667969 69.039062 C 45.667969 68.054688 44.871094 67.253906 43.882812 67.253906 C 42.898438 67.253906 42.097656 68.054688 42.097656 69.039062 C 42.097656 70.027344 42.898438 70.824219 43.882812 70.824219 C 44.871094 70.824219 45.667969 70.027344 45.667969 69.039062 Z M 45.667969 69.039062 "/>
<path fill-rule="nonzero" fill="rgb(8.625793%, 21.961975%, 39.216614%)" fill-opacity="1" d="M 76.710938 64.808594 C 76.710938 63.820312 75.910156 63.023438 74.925781 63.023438 C 73.941406 63.023438 73.140625 63.820312 73.140625 64.808594 C 73.140625 65.792969 73.941406 66.59375 74.925781 66.59375 C 75.910156 66.59375 76.710938 65.792969 76.710938 64.808594 Z M 76.710938 64.808594 "/>
<path fill-rule="nonzero" fill="rgb(95.588684%, 96.998596%, 98.762512%)" fill-opacity="1" stroke-width="0.59776" stroke-linecap="butt" stroke-linejoin="miter" stroke="rgb(82.351685%, 83.921814%, 86.274719%)" stroke-opacity="1" stroke-miterlimit="10" d="M 161.420885 41.812879 L 65.349942 41.812879 C 63.701936 41.812879 62.363911 40.474855 62.363911 38.822924 L 62.363911 -38.821734 C 62.363911 -40.473665 63.701936 -41.811689 65.349942 -41.811689 L 161.420885 -41.811689 C 163.072816 -41.811689 164.41084 -40.473665 164.41084 -38.821734 L 164.41084 38.822924 C 164.41084 40.474855 163.072816 41.812879 161.420885 41.812879 Z M 161.420885 41.812879 " transform="matrix(0.995521, 0, 0, -0.995521, 57.993552, 47.875592)"/>
<g fill="rgb(8.599854%, 21.998596%, 39.199829%)" fill-opacity="1">
<use xlink:href="#glyph-0-6" x="162.144942" y="17.887518"/>
<use xlink:href="#glyph-0-2" x="165.636084" y="17.887518"/>
<use xlink:href="#glyph-0-3" x="169.127226" y="17.887518"/>
<use xlink:href="#glyph-0-7" x="172.618368" y="17.887518"/>
<use xlink:href="#glyph-0-5" x="176.109511" y="17.887518"/>
</g>
<path fill="none" stroke-width="0.99628" stroke-linecap="butt" stroke-linejoin="miter" stroke="rgb(78.431702%, 41.175842%, 19.607544%)" stroke-opacity="1" stroke-miterlimit="10" d="M 85.039699 14.173453 L 109.135911 -15.592687 " transform="matrix(0.995521, 0, 0, -0.995521, 57.993552, 47.875592)"/>
<path fill="none" stroke-width="0.99628" stroke-linecap="butt" stroke-linejoin="miter" stroke="rgb(78.431702%, 41.175842%, 19.607544%)" stroke-opacity="1" stroke-miterlimit="10" d="M 120.475766 15.589954 L 141.735053 -14.172263 " transform="matrix(0.995521, 0, 0, -0.995521, 57.993552, 47.875592)"/>
<path fill-rule="nonzero" fill="rgb(8.625793%, 21.961975%, 39.216614%)" fill-opacity="1" d="M 144.4375 33.765625 C 144.4375 32.78125 143.640625 31.980469 142.652344 31.980469 C 141.667969 31.980469 140.867188 32.78125 140.867188 33.765625 C 140.867188 34.75 141.667969 35.550781 142.652344 35.550781 C 143.640625 35.550781 144.4375 34.75 144.4375 33.765625 Z M 144.4375 33.765625 "/>
<path fill-rule="nonzero" fill="rgb(8.625793%, 21.961975%, 39.216614%)" fill-opacity="1" d="M 168.425781 63.398438 C 168.425781 62.410156 167.625 61.609375 166.640625 61.609375 C 165.652344 61.609375 164.855469 62.410156 164.855469 63.398438 C 164.855469 64.382812 165.652344 65.183594 166.640625 65.183594 C 167.625 65.183594 168.425781 64.382812 168.425781 63.398438 Z M 168.425781 63.398438 "/>
<path fill-rule="nonzero" fill="rgb(8.625793%, 21.961975%, 39.216614%)" fill-opacity="1" d="M 179.714844 32.355469 C 179.714844 31.367188 178.914062 30.570312 177.929688 30.570312 C 176.941406 30.570312 176.144531 31.367188 176.144531 32.355469 C 176.144531 33.339844 176.941406 34.140625 177.929688 34.140625 C 178.914062 34.140625 179.714844 33.339844 179.714844 32.355469 Z M 179.714844 32.355469 "/>
<path fill-rule="nonzero" fill="rgb(8.625793%, 21.961975%, 39.216614%)" fill-opacity="1" d="M 200.878906 61.984375 C 200.878906 61 200.078125 60.199219 199.09375 60.199219 C 198.105469 60.199219 197.308594 61 197.308594 61.984375 C 197.308594 62.972656 198.105469 63.769531 199.09375 63.769531 C 200.078125 63.769531 200.878906 62.972656 200.878906 61.984375 Z M 200.878906 61.984375 "/>
<path fill-rule="nonzero" fill="rgb(95.588684%, 96.998596%, 98.762512%)" fill-opacity="1" stroke-width="0.59776" stroke-linecap="butt" stroke-linejoin="miter" stroke="rgb(82.351685%, 83.921814%, 86.274719%)" stroke-opacity="1" stroke-miterlimit="10" d="M 274.811594 41.812879 L 178.740651 41.812879 C 177.08872 41.812879 175.750696 40.474855 175.750696 38.822924 L 175.750696 -38.821734 C 175.750696 -40.473665 177.08872 -41.811689 178.740651 -41.811689 L 274.811594 -41.811689 C 276.4596 -41.811689 277.797625 -40.473665 277.797625 -38.821734 L 277.797625 38.822924 C 277.797625 40.474855 276.4596 41.812879 274.811594 41.812879 Z M 274.811594 41.812879 " transform="matrix(0.995521, 0, 0, -0.995521, 57.993552, 47.875592)"/>
<g fill="rgb(8.599854%, 21.998596%, 39.199829%)" fill-opacity="1">
<use xlink:href="#glyph-0-6" x="266.296331" y="17.377812"/>
<use xlink:href="#glyph-0-2" x="269.787473" y="17.377812"/>
<use xlink:href="#glyph-0-3" x="273.278616" y="17.377812"/>
<use xlink:href="#glyph-0-7" x="276.769758" y="17.377812"/>
<use xlink:href="#glyph-0-8" x="280.2609" y="17.377812"/>
<use xlink:href="#glyph-0-5" x="283.752042" y="17.377812"/>
<use xlink:href="#glyph-0-4" x="287.243185" y="17.377812"/>
<use xlink:href="#glyph-0-9" x="290.734327" y="17.377812"/>
<use xlink:href="#glyph-0-2" x="294.225469" y="17.377812"/>
<use xlink:href="#glyph-0-0" x="297.716611" y="17.377812"/>
</g>
<path fill="none" stroke-width="0.99628" stroke-linecap="butt" stroke-linejoin="miter" stroke="rgb(78.431702%, 41.175842%, 19.607544%)" stroke-opacity="1" stroke-miterlimit="10" d="M 198.426483 -11.339261 L 216.852768 17.006455 L 238.112054 -15.592687 L 255.121837 12.756952 " transform="matrix(0.995521, 0, 0, -0.995521, 57.993552, 47.875592)"/>
<path fill-rule="nonzero" fill="rgb(8.625793%, 21.961975%, 39.216614%)" fill-opacity="1" d="M 257.316406 59.164062 C 257.316406 58.175781 256.519531 57.378906 255.53125 57.378906 C 254.546875 57.378906 253.746094 58.175781 253.746094 59.164062 C 253.746094 60.148438 254.546875 60.949219 255.53125 60.949219 C 256.519531 60.949219 257.316406 60.148438 257.316406 59.164062 Z M 257.316406 59.164062 "/>
<path fill-rule="nonzero" fill="rgb(8.625793%, 21.961975%, 39.216614%)" fill-opacity="1" d="M 275.660156 30.945312 C 275.660156 29.957031 274.859375 29.160156 273.875 29.160156 C 272.890625 29.160156 272.089844 29.957031 272.089844 30.945312 C 272.089844 31.929688 272.890625 32.730469 273.875 32.730469 C 274.859375 32.730469 275.660156 31.929688 275.660156 30.945312 Z M 275.660156 30.945312 "/>
<path fill-rule="nonzero" fill="rgb(8.625793%, 21.961975%, 39.216614%)" fill-opacity="1" d="M 296.824219 63.398438 C 296.824219 62.410156 296.027344 61.609375 295.039062 61.609375 C 294.054688 61.609375 293.253906 62.410156 293.253906 63.398438 C 293.253906 64.382812 294.054688 65.183594 295.039062 65.183594 C 296.027344 65.183594 296.824219 64.382812 296.824219 63.398438 Z M 296.824219 63.398438 "/>
<path fill-rule="nonzero" fill="rgb(8.625793%, 21.961975%, 39.216614%)" fill-opacity="1" d="M 313.757812 35.175781 C 313.757812 34.191406 312.957031 33.390625 311.972656 33.390625 C 310.984375 33.390625 310.1875 34.191406 310.1875 35.175781 C 310.1875 36.164062 310.984375 36.960938 311.972656 36.960938 C 312.957031 36.960938 313.757812 36.164062 313.757812 35.175781 Z M 313.757812 35.175781 "/>
<path fill-rule="nonzero" fill="rgb(95.588684%, 96.998596%, 98.762512%)" fill-opacity="1" stroke-width="0.59776" stroke-linecap="butt" stroke-linejoin="miter" stroke="rgb(82.351685%, 83.921814%, 86.274719%)" stroke-opacity="1" stroke-miterlimit="10" d="M 388.198378 41.812879 L 292.127435 41.812879 C 290.475505 41.812879 289.13748 40.474855 289.13748 38.822924 L 289.13748 -38.821734 C 289.13748 -40.473665 290.475505 -41.811689 292.127435 -41.811689 L 388.198378 -41.811689 C 389.846385 -41.811689 391.184409 -40.473665 391.184409 -38.821734 L 391.184409 38.822924 C 391.184409 40.474855 389.846385 41.812879 388.198378 41.812879 Z M 388.198378 41.812879 " transform="matrix(0.995521, 0, 0, -0.995521, 57.993552, 47.875592)"/>
<g fill="rgb(8.599854%, 21.998596%, 39.199829%)" fill-opacity="1">
<use xlink:href="#glyph-0-6" x="380.921596" y="17.374825"/>
<use xlink:href="#glyph-0-2" x="384.412738" y="17.374825"/>
<use xlink:href="#glyph-0-3" x="387.90388" y="17.374825"/>
<use xlink:href="#glyph-0-7" x="391.395022" y="17.374825"/>
<use xlink:href="#glyph-0-8" x="394.886164" y="17.374825"/>
<use xlink:href="#glyph-0-6" x="398.377307" y="17.374825"/>
<use xlink:href="#glyph-0-1" x="401.868449" y="17.374825"/>
<use xlink:href="#glyph-0-1" x="405.359591" y="17.374825"/>
<use xlink:href="#glyph-0-0" x="408.850733" y="17.374825"/>
</g>
<path fill="none" stroke-width="0.99628" stroke-linecap="butt" stroke-linejoin="miter" stroke="rgb(78.431702%, 41.175842%, 19.607544%)" stroke-opacity="1" stroke-miterlimit="10" d="M 314.650194 -14.172263 L 320.320121 15.589954 L 351.498839 18.426879 L 365.67562 -12.755762 Z M 314.650194 -14.172263 " transform="matrix(0.995521, 0, 0, -0.995521, 57.993552, 47.875592)"/>
<path fill-rule="nonzero" fill="rgb(8.625793%, 21.961975%, 39.216614%)" fill-opacity="1" d="M 373.019531 61.984375 C 373.019531 61 372.21875 60.199219 371.234375 60.199219 C 370.246094 60.199219 369.449219 61 369.449219 61.984375 C 369.449219 62.972656 370.246094 63.769531 371.234375 63.769531 C 372.21875 63.769531 373.019531 62.972656 373.019531 61.984375 Z M 373.019531 61.984375 "/>
<path fill-rule="nonzero" fill="rgb(8.625793%, 21.961975%, 39.216614%)" fill-opacity="1" d="M 378.664062 32.355469 C 378.664062 31.367188 377.863281 30.570312 376.878906 30.570312 C 375.890625 30.570312 375.09375 31.367188 375.09375 32.355469 C 375.09375 33.339844 375.890625 34.140625 376.878906 34.140625 C 377.863281 34.140625 378.664062 33.339844 378.664062 32.355469 Z M 378.664062 32.355469 "/>
<path fill-rule="nonzero" fill="rgb(8.625793%, 21.961975%, 39.216614%)" fill-opacity="1" d="M 409.703125 29.53125 C 409.703125 28.546875 408.90625 27.746094 407.917969 27.746094 C 406.933594 27.746094 406.132812 28.546875 406.132812 29.53125 C 406.132812 30.519531 406.933594 31.316406 407.917969 31.316406 C 408.90625 31.316406 409.703125 30.519531 409.703125 29.53125 Z M 409.703125 29.53125 "/>
<path fill-rule="nonzero" fill="rgb(8.625793%, 21.961975%, 39.216614%)" fill-opacity="1" d="M 423.816406 60.574219 C 423.816406 59.589844 423.015625 58.789062 422.03125 58.789062 C 421.042969 58.789062 420.242188 59.589844 420.242188 60.574219 C 420.242188 61.558594 421.042969 62.359375 422.03125 62.359375 C 423.015625 62.359375 423.816406 61.558594 423.816406 60.574219 Z M 423.816406 60.574219 "/>
<path fill-rule="nonzero" fill="rgb(95.588684%, 96.998596%, 98.762512%)" fill-opacity="1" d="M 105.8125 100.789062 L 10.171875 100.789062 C 8.53125 100.789062 7.199219 102.121094 7.199219 103.761719 L 7.199219 181.0625 C 7.199219 182.703125 8.53125 184.035156 10.171875 184.035156 L 105.8125 184.035156 C 107.457031 184.035156 108.789062 182.703125 108.789062 181.0625 L 108.789062 103.761719 C 108.789062 102.121094 107.457031 100.789062 105.8125 100.789062 Z M 105.8125 100.789062 "/>
<g clip-path="url(#clip-1)">
<path fill="none" stroke-width="0.59776" stroke-linecap="butt" stroke-linejoin="miter" stroke="rgb(82.351685%, 83.921814%, 86.274719%)" stroke-opacity="1" stroke-miterlimit="10" d="M 48.034101 -53.151545 L -48.036842 -53.151545 C -49.684849 -53.151545 -51.022873 -54.489569 -51.022873 -56.137576 L -51.022873 -133.786158 C -51.022873 -135.434165 -49.684849 -136.772189 -48.036842 -136.772189 L 48.034101 -136.772189 C 49.686031 -136.772189 51.024056 -135.434165 51.024056 -133.786158 L 51.024056 -56.137576 C 51.024056 -54.489569 49.686031 -53.151545 48.034101 -53.151545 Z M 48.034101 -53.151545 " transform="matrix(0.995521, 0, 0, -0.995521, 57.993552, 47.875592)"/>
</g>
<g fill="rgb(8.599854%, 21.998596%, 39.199829%)" fill-opacity="1">
<use xlink:href="#glyph-0-4" x="42.283238" y="112.424168"/>
<use xlink:href="#glyph-0-9" x="45.77438" y="112.424168"/>
<use xlink:href="#glyph-0-2" x="49.265522" y="112.424168"/>
<use xlink:href="#glyph-0-10" x="52.756665" y="112.424168"/>
<use xlink:href="#glyph-0-3" x="56.247807" y="112.424168"/>
<use xlink:href="#glyph-0-11" x="59.738949" y="112.424168"/>
<use xlink:href="#glyph-0-6" x="63.230091" y="112.424168"/>
<use xlink:href="#glyph-0-7" x="66.721233" y="112.424168"/>
<use xlink:href="#glyph-0-5" x="70.212376" y="112.424168"/>
</g>
<path fill-rule="nonzero" fill="rgb(96.546936%, 90.586853%, 87.136841%)" fill-opacity="1" stroke-width="0.79701" stroke-linecap="butt" stroke-linejoin="miter" stroke="rgb(78.431702%, 41.175842%, 19.607544%)" stroke-opacity="1" stroke-miterlimit="10" d="M -28.347086 -79.370547 L -28.347086 -113.386189 L -2.834373 -96.38033 Z M -28.347086 -79.370547 " transform="matrix(0.995521, 0, 0, -0.995521, 57.993552, 47.875592)"/>
<path fill-rule="nonzero" fill="rgb(96.546936%, 90.586853%, 87.136841%)" fill-opacity="1" stroke-width="0.79701" stroke-linecap="butt" stroke-linejoin="miter" stroke="rgb(78.431702%, 41.175842%, 19.607544%)" stroke-opacity="1" stroke-miterlimit="10" d="M 2.835555 -77.954046 L 4.252056 -111.969689 L 28.348268 -94.963829 Z M 2.835555 -77.954046 " transform="matrix(0.995521, 0, 0, -0.995521, 57.993552, 47.875592)"/>
<path fill-rule="nonzero" fill="rgb(8.625793%, 21.961975%, 39.216614%)" fill-opacity="1" d="M 31.558594 126.890625 C 31.558594 125.90625 30.757812 125.105469 29.773438 125.105469 C 28.789062 125.105469 27.988281 125.90625 27.988281 126.890625 C 27.988281 127.878906 28.789062 128.675781 29.773438 128.675781 C 30.757812 128.675781 31.558594 127.878906 31.558594 126.890625 Z M 31.558594 126.890625 "/>
<path fill-rule="nonzero" fill="rgb(8.625793%, 21.961975%, 39.216614%)" fill-opacity="1" d="M 31.558594 160.753906 C 31.558594 159.769531 30.757812 158.96875 29.773438 158.96875 C 28.789062 158.96875 27.988281 159.769531 27.988281 160.753906 C 27.988281 161.742188 28.789062 162.539062 29.773438 162.539062 C 30.757812 162.539062 31.558594 161.742188 31.558594 160.753906 Z M 31.558594 160.753906 "/>
<path fill-rule="nonzero" fill="rgb(8.625793%, 21.961975%, 39.216614%)" fill-opacity="1" d="M 56.957031 143.824219 C 56.957031 142.835938 56.15625 142.039062 55.171875 142.039062 C 54.183594 142.039062 53.386719 142.835938 53.386719 143.824219 C 53.386719 144.808594 54.183594 145.609375 55.171875 145.609375 C 56.15625 145.609375 56.957031 144.808594 56.957031 143.824219 Z M 56.957031 143.824219 "/>
<path fill-rule="nonzero" fill="rgb(8.625793%, 21.961975%, 39.216614%)" fill-opacity="1" d="M 62.601562 125.480469 C 62.601562 124.496094 61.800781 123.695312 60.816406 123.695312 C 59.828125 123.695312 59.03125 124.496094 59.03125 125.480469 C 59.03125 126.464844 59.828125 127.265625 60.816406 127.265625 C 61.800781 127.265625 62.601562 126.464844 62.601562 125.480469 Z M 62.601562 125.480469 "/>
<path fill-rule="nonzero" fill="rgb(8.625793%, 21.961975%, 39.216614%)" fill-opacity="1" d="M 64.011719 159.34375 C 64.011719 158.359375 63.210938 157.558594 62.226562 157.558594 C 61.242188 157.558594 60.441406 158.359375 60.441406 159.34375 C 60.441406 160.332031 61.242188 161.128906 62.226562 161.128906 C 63.210938 161.128906 64.011719 160.332031 64.011719 159.34375 Z M 64.011719 159.34375 "/>
<path fill-rule="nonzero" fill="rgb(8.625793%, 21.961975%, 39.216614%)" fill-opacity="1" d="M 88 142.414062 C 88 141.425781 87.199219 140.625 86.214844 140.625 C 85.226562 140.625 84.429688 141.425781 84.429688 142.414062 C 84.429688 143.398438 85.226562 144.199219 86.214844 144.199219 C 87.199219 144.199219 88 143.398438 88 142.414062 Z M 88 142.414062 "/>
<path fill-rule="nonzero" fill="rgb(95.588684%, 96.998596%, 98.762512%)" fill-opacity="1" d="M 218.691406 100.789062 L 123.050781 100.789062 C 121.410156 100.789062 120.078125 102.121094 120.078125 103.761719 L 120.078125 181.0625 C 120.078125 182.703125 121.410156 184.035156 123.050781 184.035156 L 218.691406 184.035156 C 220.335938 184.035156 221.667969 182.703125 221.667969 181.0625 L 221.667969 103.761719 C 221.667969 102.121094 220.335938 100.789062 218.691406 100.789062 Z M 218.691406 100.789062 "/>
<g clip-path="url(#clip-2)">
<path fill="none" stroke-width="0.59776" stroke-linecap="butt" stroke-linejoin="miter" stroke="rgb(82.351685%, 83.921814%, 86.274719%)" stroke-opacity="1" stroke-miterlimit="10" d="M 161.420885 -53.151545 L 65.349942 -53.151545 C 63.701936 -53.151545 62.363911 -54.489569 62.363911 -56.137576 L 62.363911 -133.786158 C 62.363911 -135.434165 63.701936 -136.772189 65.349942 -136.772189 L 161.420885 -136.772189 C 163.072816 -136.772189 164.41084 -135.434165 164.41084 -133.786158 L 164.41084 -56.137576 C 164.41084 -54.489569 163.072816 -53.151545 161.420885 -53.151545 Z M 161.420885 -53.151545 " transform="matrix(0.995521, 0, 0, -0.995521, 57.993552, 47.875592)"/>
</g>
<g fill="rgb(8.599854%, 21.998596%, 39.199829%)" fill-opacity="1">
<use xlink:href="#glyph-0-4" x="146.434627" y="111.914461"/>
<use xlink:href="#glyph-0-9" x="149.92577" y="111.914461"/>
<use xlink:href="#glyph-0-2" x="153.416912" y="111.914461"/>
<use xlink:href="#glyph-0-10" x="156.908054" y="111.914461"/>
<use xlink:href="#glyph-0-3" x="160.399196" y="111.914461"/>
<use xlink:href="#glyph-0-11" x="163.890339" y="111.914461"/>
<use xlink:href="#glyph-0-6" x="167.381481" y="111.914461"/>
<use xlink:href="#glyph-0-7" x="170.872623" y="111.914461"/>
<use xlink:href="#glyph-0-8" x="174.363765" y="111.914461"/>
<use xlink:href="#glyph-0-5" x="177.854908" y="111.914461"/>
<use xlink:href="#glyph-0-4" x="181.34605" y="111.914461"/>
<use xlink:href="#glyph-0-9" x="184.837192" y="111.914461"/>
<use xlink:href="#glyph-0-2" x="188.328334" y="111.914461"/>
<use xlink:href="#glyph-0-0" x="191.819476" y="111.914461"/>
</g>
<path fill-rule="nonzero" fill="rgb(96.546936%, 90.586853%, 87.136841%)" fill-opacity="1" stroke-width="0.79701" stroke-linecap="butt" stroke-linejoin="miter" stroke="rgb(78.431702%, 41.175842%, 19.607544%)" stroke-opacity="1" stroke-miterlimit="10" d="M 83.623198 -77.954046 L 83.623198 -111.969689 L 109.135911 -77.954046 Z M 83.623198 -77.954046 " transform="matrix(0.995521, 0, 0, -0.995521, 57.993552, 47.875592)"/>
<path fill-rule="nonzero" fill="rgb(96.546936%, 90.586853%, 87.136841%)" fill-opacity="1" stroke-width="0.79701" stroke-linecap="butt" stroke-linejoin="miter" stroke="rgb(78.431702%, 41.175842%, 19.607544%)" stroke-opacity="1" stroke-miterlimit="10" d="M 109.135911 -77.954046 L 83.623198 -111.969689 L 109.135911 -111.969689 Z M 109.135911 -77.954046 " transform="matrix(0.995521, 0, 0, -0.995521, 57.993552, 47.875592)"/>
<path fill-rule="nonzero" fill="rgb(96.546936%, 90.586853%, 87.136841%)" fill-opacity="1" stroke-width="0.79701" stroke-linecap="butt" stroke-linejoin="miter" stroke="rgb(78.431702%, 41.175842%, 19.607544%)" stroke-opacity="1" stroke-miterlimit="10" d="M 109.135911 -77.954046 L 109.135911 -111.969689 L 134.648624 -77.954046 Z M 109.135911 -77.954046 " transform="matrix(0.995521, 0, 0, -0.995521, 57.993552, 47.875592)"/>
<path fill-rule="nonzero" fill="rgb(96.546936%, 90.586853%, 87.136841%)" fill-opacity="1" stroke-width="0.79701" stroke-linecap="butt" stroke-linejoin="miter" stroke="rgb(78.431702%, 41.175842%, 19.607544%)" stroke-opacity="1" stroke-miterlimit="10" d="M 134.648624 -77.954046 L 109.135911 -111.969689 L 134.648624 -111.969689 Z M 134.648624 -77.954046 " transform="matrix(0.995521, 0, 0, -0.995521, 57.993552, 47.875592)"/>
<path fill-rule="nonzero" fill="rgb(8.625793%, 21.961975%, 39.216614%)" fill-opacity="1" d="M 143.027344 125.480469 C 143.027344 124.496094 142.226562 123.695312 141.242188 123.695312 C 140.257812 123.695312 139.457031 124.496094 139.457031 125.480469 C 139.457031 126.464844 140.257812 127.265625 141.242188 127.265625 C 142.226562 127.265625 143.027344 126.464844 143.027344 125.480469 Z M 143.027344 125.480469 "/>
<path fill-rule="nonzero" fill="rgb(8.625793%, 21.961975%, 39.216614%)" fill-opacity="1" d="M 143.027344 159.34375 C 143.027344 158.359375 142.226562 157.558594 141.242188 157.558594 C 140.257812 157.558594 139.457031 158.359375 139.457031 159.34375 C 139.457031 160.332031 140.257812 161.128906 141.242188 161.128906 C 142.226562 161.128906 143.027344 160.332031 143.027344 159.34375 Z M 143.027344 159.34375 "/>
<path fill-rule="nonzero" fill="rgb(8.625793%, 21.961975%, 39.216614%)" fill-opacity="1" d="M 168.425781 125.480469 C 168.425781 124.496094 167.625 123.695312 166.640625 123.695312 C 165.652344 123.695312 164.855469 124.496094 164.855469 125.480469 C 164.855469 126.464844 165.652344 127.265625 166.640625 127.265625 C 167.625 127.265625 168.425781 126.464844 168.425781 125.480469 Z M 168.425781 125.480469 "/>
<path fill-rule="nonzero" fill="rgb(8.625793%, 21.961975%, 39.216614%)" fill-opacity="1" d="M 168.425781 159.34375 C 168.425781 158.359375 167.625 157.558594 166.640625 157.558594 C 165.652344 157.558594 164.855469 158.359375 164.855469 159.34375 C 164.855469 160.332031 165.652344 161.128906 166.640625 161.128906 C 167.625 161.128906 168.425781 160.332031 168.425781 159.34375 Z M 168.425781 159.34375 "/>
<path fill-rule="nonzero" fill="rgb(8.625793%, 21.961975%, 39.216614%)" fill-opacity="1" d="M 193.824219 125.480469 C 193.824219 124.496094 193.023438 123.695312 192.039062 123.695312 C 191.050781 123.695312 190.253906 124.496094 190.253906 125.480469 C 190.253906 126.464844 191.050781 127.265625 192.039062 127.265625 C 193.023438 127.265625 193.824219 126.464844 193.824219 125.480469 Z M 193.824219 125.480469 "/>
<path fill-rule="nonzero" fill="rgb(8.625793%, 21.961975%, 39.216614%)" fill-opacity="1" d="M 193.824219 159.34375 C 193.824219 158.359375 193.023438 157.558594 192.039062 157.558594 C 191.050781 157.558594 190.253906 158.359375 190.253906 159.34375 C 190.253906 160.332031 191.050781 161.128906 192.039062 161.128906 C 193.023438 161.128906 193.824219 160.332031 193.824219 159.34375 Z M 193.824219 159.34375 "/>
<path fill-rule="nonzero" fill="rgb(95.588684%, 96.998596%, 98.762512%)" fill-opacity="1" d="M 331.574219 100.789062 L 235.933594 100.789062 C 234.289062 100.789062 232.957031 102.121094 232.957031 103.761719 L 232.957031 181.0625 C 232.957031 182.703125 234.289062 184.035156 235.933594 184.035156 L 331.574219 184.035156 C 333.214844 184.035156 334.546875 182.703125 334.546875 181.0625 L 334.546875 103.761719 C 334.546875 102.121094 333.214844 100.789062 331.574219 100.789062 Z M 331.574219 100.789062 "/>
<g clip-path="url(#clip-3)">
<path fill="none" stroke-width="0.59776" stroke-linecap="butt" stroke-linejoin="miter" stroke="rgb(82.351685%, 83.921814%, 86.274719%)" stroke-opacity="1" stroke-miterlimit="10" d="M 274.811594 -53.151545 L 178.740651 -53.151545 C 177.08872 -53.151545 175.750696 -54.489569 175.750696 -56.137576 L 175.750696 -133.786158 C 175.750696 -135.434165 177.08872 -136.772189 178.740651 -136.772189 L 274.811594 -136.772189 C 276.4596 -136.772189 277.797625 -135.434165 277.797625 -133.786158 L 277.797625 -56.137576 C 277.797625 -54.489569 276.4596 -53.151545 274.811594 -53.151545 Z M 274.811594 -53.151545 " transform="matrix(0.995521, 0, 0, -0.995521, 57.993552, 47.875592)"/>
</g>
<g fill="rgb(8.599854%, 21.998596%, 39.199829%)" fill-opacity="1">
<use xlink:href="#glyph-0-4" x="262.80504" y="111.914461"/>
<use xlink:href="#glyph-0-9" x="266.296182" y="111.914461"/>
<use xlink:href="#glyph-0-2" x="269.787324" y="111.914461"/>
<use xlink:href="#glyph-0-10" x="273.278466" y="111.914461"/>
<use xlink:href="#glyph-0-3" x="276.769609" y="111.914461"/>
<use xlink:href="#glyph-0-11" x="280.260751" y="111.914461"/>
<use xlink:href="#glyph-0-6" x="283.751893" y="111.914461"/>
<use xlink:href="#glyph-0-7" x="287.243035" y="111.914461"/>
<use xlink:href="#glyph-0-8" x="290.734178" y="111.914461"/>
<use xlink:href="#glyph-0-12" x="294.22532" y="111.914461"/>
<use xlink:href="#glyph-0-10" x="297.716462" y="111.914461"/>
<use xlink:href="#glyph-0-3" x="301.207604" y="111.914461"/>
</g>
<path fill-rule="nonzero" fill="rgb(96.546936%, 90.586853%, 87.136841%)" fill-opacity="1" stroke-width="0.79701" stroke-linecap="butt" stroke-linejoin="miter" stroke="rgb(78.431702%, 41.175842%, 19.607544%)" stroke-opacity="1" stroke-miterlimit="10" d="M 199.846908 -114.80269 L 253.705336 -110.553188 L 248.035409 -85.040474 Z M 199.846908 -114.80269 " transform="matrix(0.995521, 0, 0, -0.995521, 57.993552, 47.875592)"/>
<path fill-rule="nonzero" fill="rgb(96.546936%, 90.586853%, 87.136841%)" fill-opacity="1" stroke-width="0.79701" stroke-linecap="butt" stroke-linejoin="miter" stroke="rgb(78.431702%, 41.175842%, 19.607544%)" stroke-opacity="1" stroke-miterlimit="10" d="M 199.846908 -114.80269 L 248.035409 -85.040474 L 226.776122 -75.121044 Z M 199.846908 -114.80269 " transform="matrix(0.995521, 0, 0, -0.995521, 57.993552, 47.875592)"/>
<path fill-rule="nonzero" fill="rgb(96.546936%, 90.586853%, 87.136841%)" fill-opacity="1" stroke-width="0.79701" stroke-linecap="butt" stroke-linejoin="miter" stroke="rgb(78.431702%, 41.175842%, 19.607544%)" stroke-opacity="1" stroke-miterlimit="10" d="M 199.846908 -114.80269 L 226.776122 -75.121044 L 205.512912 -86.456975 Z M 199.846908 -114.80269 " transform="matrix(0.995521, 0, 0, -0.995521, 57.993552, 47.875592)"/>
<path fill-rule="nonzero" fill="rgb(8.625793%, 21.961975%, 39.216614%)" fill-opacity="1" d="M 258.730469 162.164062 C 258.730469 161.179688 257.929688 160.378906 256.945312 160.378906 C 255.957031 160.378906 255.160156 161.179688 255.160156 162.164062 C 255.160156 163.152344 255.957031 163.953125 256.945312 163.953125 C 257.929688 163.953125 258.730469 163.152344 258.730469 162.164062 Z M 258.730469 162.164062 "/>
<path fill-rule="nonzero" fill="rgb(8.625793%, 21.961975%, 39.216614%)" fill-opacity="1" d="M 312.347656 157.933594 C 312.347656 156.945312 311.546875 156.148438 310.5625 156.148438 C 309.574219 156.148438 308.777344 156.945312 308.777344 157.933594 C 308.777344 158.917969 309.574219 159.71875 310.5625 159.71875 C 311.546875 159.71875 312.347656 158.917969 312.347656 157.933594 Z M 312.347656 157.933594 "/>
<path fill-rule="nonzero" fill="rgb(8.625793%, 21.961975%, 39.216614%)" fill-opacity="1" d="M 306.703125 132.535156 C 306.703125 131.550781 305.902344 130.75 304.917969 130.75 C 303.929688 130.75 303.132812 131.550781 303.132812 132.535156 C 303.132812 133.519531 303.929688 134.320312 304.917969 134.320312 C 305.902344 134.320312 306.703125 133.519531 306.703125 132.535156 Z M 306.703125 132.535156 "/>
<path fill-rule="nonzero" fill="rgb(8.625793%, 21.961975%, 39.216614%)" fill-opacity="1" d="M 285.539062 122.660156 C 285.539062 121.671875 284.738281 120.875 283.753906 120.875 C 282.765625 120.875 281.96875 121.671875 281.96875 122.660156 C 281.96875 123.644531 282.765625 124.445312 283.753906 124.445312 C 284.738281 124.445312 285.539062 123.644531 285.539062 122.660156 Z M 285.539062 122.660156 "/>
<path fill-rule="nonzero" fill="rgb(8.625793%, 21.961975%, 39.216614%)" fill-opacity="1" d="M 264.371094 133.945312 C 264.371094 132.960938 263.574219 132.160156 262.585938 132.160156 C 261.601562 132.160156 260.800781 132.960938 260.800781 133.945312 C 260.800781 134.933594 261.601562 135.730469 262.585938 135.730469 C 263.574219 135.730469 264.371094 134.933594 264.371094 133.945312 Z M 264.371094 133.945312 "/>
<g fill="rgb(78.399658%, 41.19873%, 19.599915%)" fill-opacity="1">
<use xlink:href="#glyph-1-0" x="245.40234" y="170.884138"/>
<use xlink:href="#glyph-1-1" x="250.729834" y="170.884138"/>
</g>
<g fill="rgb(78.399658%, 41.19873%, 19.599915%)" fill-opacity="1">
<use xlink:href="#glyph-1-2" x="257.829086" y="170.884138"/>
<use xlink:href="#glyph-1-3" x="263.15658" y="170.884138"/>
</g>
<path fill-rule="nonzero" fill="rgb(95.588684%, 96.998596%, 98.762512%)" fill-opacity="1" d="M 444.453125 100.789062 L 348.8125 100.789062 C 347.167969 100.789062 345.835938 102.121094 345.835938 103.761719 L 345.835938 181.0625 C 345.835938 182.703125 347.167969 184.035156 348.8125 184.035156 L 444.453125 184.035156 C 446.09375 184.035156 447.425781 182.703125 447.425781 181.0625 L 447.425781 103.761719 C 447.425781 102.121094 446.09375 100.789062 444.453125 100.789062 Z M 444.453125 100.789062 "/>
<g clip-path="url(#clip-4)">
<path fill="none" stroke-width="0.59776" stroke-linecap="butt" stroke-linejoin="miter" stroke="rgb(82.351685%, 83.921814%, 86.274719%)" stroke-opacity="1" stroke-miterlimit="10" d="M 388.198378 -53.151545 L 292.127435 -53.151545 C 290.475505 -53.151545 289.13748 -54.489569 289.13748 -56.137576 L 289.13748 -133.786158 C 289.13748 -135.434165 290.475505 -136.772189 292.127435 -136.772189 L 388.198378 -136.772189 C 389.846385 -136.772189 391.184409 -135.434165 391.184409 -133.786158 L 391.184409 -56.137576 C 391.184409 -54.489569 389.846385 -53.151545 388.198378 -53.151545 Z M 388.198378 -53.151545 " transform="matrix(0.995521, 0, 0, -0.995521, 57.993552, 47.875592)"/>
</g>
<g fill="rgb(8.599854%, 21.998596%, 39.199829%)" fill-opacity="1">
<use xlink:href="#glyph-2-0" x="390.543304" y="112.145422"/>
<use xlink:href="#glyph-2-1" x="396.631856" y="112.145422"/>
</g>
<path fill-rule="nonzero" fill="rgb(8.625793%, 21.961975%, 39.216614%)" fill-opacity="1" d="M 374.429688 129.714844 C 374.429688 128.726562 373.628906 127.929688 372.644531 127.929688 C 371.660156 127.929688 370.859375 128.726562 370.859375 129.714844 C 370.859375 130.699219 371.660156 131.5 372.644531 131.5 C 373.628906 131.5 374.429688 130.699219 374.429688 129.714844 Z M 374.429688 129.714844 "/>
<g fill="rgb(21.598816%, 25.498962%, 31.399536%)" fill-opacity="1">
<use xlink:href="#glyph-2-2" x="383.379536" y="131.933389"/>
<use xlink:href="#glyph-2-3" x="389.468089" y="131.933389"/>
</g>
<g fill="rgb(21.598816%, 25.498962%, 31.399536%)" fill-opacity="1">
<use xlink:href="#glyph-2-4" x="397.581503" y="131.933389"/>
<use xlink:href="#glyph-2-5" x="399.746011" y="131.933389"/>
<use xlink:href="#glyph-2-6" x="405.834563" y="131.933389"/>
<use xlink:href="#glyph-2-7" x="411.923115" y="131.933389"/>
</g>
<g fill="rgb(21.598816%, 25.498962%, 31.399536%)" fill-opacity="1">
<use xlink:href="#glyph-2-8" x="420.03653" y="131.933389"/>
<use xlink:href="#glyph-2-9" x="426.125082" y="131.933389"/>
<use xlink:href="#glyph-2-10" x="432.213634" y="131.933389"/>
</g>
<path fill="none" stroke-width="0.99628" stroke-linecap="butt" stroke-linejoin="miter" stroke="rgb(78.431702%, 41.175842%, 19.607544%)" stroke-opacity="1" stroke-miterlimit="10" d="M 311.813268 -99.213332 L 323.153123 -99.213332 " transform="matrix(0.995521, 0, 0, -0.995521, 57.993552, 47.875592)"/>
<g fill="rgb(21.598816%, 25.498962%, 31.399536%)" fill-opacity="1">
<use xlink:href="#glyph-2-11" x="388.45072" y="148.862221"/>
<use xlink:href="#glyph-2-12" x="394.539272" y="148.862221"/>
<use xlink:href="#glyph-2-13" x="400.627824" y="148.862221"/>
</g>
<g fill="rgb(21.598816%, 25.498962%, 31.399536%)" fill-opacity="1">
<use xlink:href="#glyph-2-14" x="408.741238" y="148.862221"/>
<use xlink:href="#glyph-2-15" x="414.82979" y="148.862221"/>
</g>
<path fill-rule="nonzero" fill="rgb(96.546936%, 90.586853%, 87.136841%)" fill-opacity="1" stroke-width="0.79701" stroke-linecap="butt" stroke-linejoin="miter" stroke="rgb(78.431702%, 41.175842%, 19.607544%)" stroke-opacity="1" stroke-miterlimit="10" d="M 311.813268 -120.472618 L 311.813268 -110.553188 L 323.153123 -110.553188 L 323.153123 -120.472618 Z M 311.813268 -120.472618 " transform="matrix(0.995521, 0, 0, -0.995521, 57.993552, 47.875592)"/>
<g fill="rgb(21.598816%, 25.498962%, 31.399536%)" fill-opacity="1">
<use xlink:href="#glyph-2-11" x="388.45072" y="164.860241"/>
<use xlink:href="#glyph-2-12" x="394.539272" y="164.860241"/>
<use xlink:href="#glyph-2-13" x="400.627824" y="164.860241"/>
</g>
<g fill="rgb(21.598816%, 25.498962%, 31.399536%)" fill-opacity="1">
<use xlink:href="#glyph-2-16" x="408.741238" y="164.860241"/>
<use xlink:href="#glyph-2-17" x="414.82979" y="164.860241"/>
<use xlink:href="#glyph-2-18" x="420.918342" y="164.860241"/>
</g>
</svg>
