<?xml version="1.0" encoding="UTF-8"?>
<svg xmlns="http://www.w3.org/2000/svg" xmlns:xlink="http://www.w3.org/1999/xlink" width="225.23pt" height="210.9pt" viewBox="0 0 225.23 210.9">
<defs>
<g>
<g id="glyph-0-0">
<path d="M 4.390625 -3.609375 C 4.0625 -3.546875 3.96875 -3.265625 3.96875 -3.125 C 3.96875 -2.953125 4.09375 -2.8125 4.3125 -2.8125 C 4.5625 -2.8125 4.8125 -3.015625 4.8125 -3.328125 C 4.8125 -3.75 4.359375 -3.953125 3.9375 -3.953125 C 3.40625 -3.953125 3.09375 -3.484375 2.984375 -3.28125 C 2.8125 -3.734375 2.421875 -3.953125 2 -3.953125 C 1.03125 -3.953125 0.515625 -2.8125 0.515625 -2.578125 C 0.515625 -2.5 0.578125 -2.46875 0.640625 -2.46875 C 0.71875 -2.46875 0.75 -2.515625 0.765625 -2.5625 C 1.046875 -3.453125 1.640625 -3.734375 1.96875 -3.734375 C 2.234375 -3.734375 2.46875 -3.5625 2.46875 -3.140625 C 2.46875 -2.8125 2.078125 -1.390625 1.96875 -0.953125 C 1.890625 -0.671875 1.625 -0.125 1.140625 -0.125 C 0.953125 -0.125 0.765625 -0.1875 0.671875 -0.234375 C 0.921875 -0.28125 1.09375 -0.484375 1.09375 -0.71875 C 1.09375 -0.953125 0.921875 -1.046875 0.765625 -1.046875 C 0.5 -1.046875 0.265625 -0.828125 0.265625 -0.515625 C 0.265625 -0.078125 0.75 0.09375 1.125 0.09375 C 1.640625 0.09375 1.953125 -0.328125 2.078125 -0.578125 C 2.3125 0.015625 2.828125 0.09375 3.078125 0.09375 C 4.046875 0.09375 4.546875 -1.0625 4.546875 -1.28125 C 4.546875 -1.328125 4.515625 -1.390625 4.4375 -1.390625 C 4.328125 -1.390625 4.328125 -1.34375 4.28125 -1.21875 C 4.078125 -0.578125 3.5625 -0.125 3.09375 -0.125 C 2.84375 -0.125 2.59375 -0.28125 2.59375 -0.71875 C 2.59375 -0.90625 2.71875 -1.40625 2.8125 -1.75 C 2.84375 -1.90625 3.078125 -2.875 3.09375 -2.9375 C 3.203125 -3.25 3.484375 -3.734375 3.9375 -3.734375 C 4.09375 -3.734375 4.265625 -3.703125 4.390625 -3.609375 Z M 4.390625 -3.609375 "/>
</g>
<g id="glyph-0-1">
<path d="M 4.484375 -3.4375 C 4.5 -3.484375 4.515625 -3.546875 4.515625 -3.59375 C 4.515625 -3.703125 4.4375 -3.859375 4.234375 -3.859375 C 4.125 -3.859375 3.953125 -3.78125 3.890625 -3.609375 C 3.875 -3.578125 3.796875 -3.203125 3.734375 -3.015625 L 3.28125 -1.21875 C 3.21875 -0.96875 3.21875 -0.953125 3.203125 -0.859375 C 3.1875 -0.828125 2.8125 -0.125 2.171875 -0.125 C 1.625 -0.125 1.625 -0.6875 1.625 -0.859375 C 1.625 -1.265625 1.734375 -1.703125 2.125 -2.703125 C 2.1875 -2.90625 2.25 -3.03125 2.25 -3.203125 C 2.25 -3.640625 1.90625 -3.953125 1.46875 -3.953125 C 0.609375 -3.953125 0.265625 -2.6875 0.265625 -2.578125 C 0.265625 -2.5 0.328125 -2.46875 0.390625 -2.46875 C 0.484375 -2.46875 0.484375 -2.515625 0.53125 -2.640625 C 0.71875 -3.296875 1.078125 -3.734375 1.453125 -3.734375 C 1.65625 -3.734375 1.65625 -3.5625 1.65625 -3.4375 C 1.65625 -3.28125 1.625 -3.125 1.546875 -2.90625 C 1.125 -1.796875 1.015625 -1.421875 1.015625 -0.984375 C 1.015625 0 1.8125 0.09375 2.140625 0.09375 C 2.578125 0.09375 2.890625 -0.140625 3.0625 -0.296875 C 2.9375 0.15625 2.84375 0.5625 2.5 1.015625 C 2.21875 1.375 1.875 1.609375 1.46875 1.609375 C 1.21875 1.609375 0.921875 1.515625 0.796875 1.265625 C 1.28125 1.265625 1.34375 0.875 1.34375 0.78125 C 1.34375 0.59375 1.203125 0.46875 1 0.46875 C 0.78125 0.46875 0.5 0.640625 0.5 1.046875 C 0.5 1.515625 0.90625 1.828125 1.46875 1.828125 C 2.390625 1.828125 3.359375 1.046875 3.625 0.015625 Z M 4.484375 -3.4375 "/>
</g>
<g id="glyph-1-0">
<path d="M 2.640625 1.984375 C 2.703125 1.984375 2.796875 1.984375 2.796875 1.890625 C 2.796875 1.859375 2.796875 1.84375 2.6875 1.75 C 1.609375 0.71875 1.328125 -0.75 1.328125 -1.984375 C 1.328125 -4.265625 2.28125 -5.34375 2.6875 -5.703125 C 2.796875 -5.8125 2.796875 -5.8125 2.796875 -5.859375 C 2.796875 -5.890625 2.765625 -5.953125 2.6875 -5.953125 C 2.5625 -5.953125 2.171875 -5.546875 2.109375 -5.484375 C 1.046875 -4.359375 0.8125 -2.9375 0.8125 -1.984375 C 0.8125 -0.203125 1.5625 1.21875 2.640625 1.984375 Z M 2.640625 1.984375 "/>
</g>
<g id="glyph-1-1">
<path d="M 2.5 -5.0625 C 2.5 -5.265625 2.46875 -5.28125 2.265625 -5.28125 C 1.9375 -4.953125 1.515625 -4.765625 0.765625 -4.765625 L 0.765625 -4.515625 C 0.96875 -4.515625 1.40625 -4.515625 1.859375 -4.71875 L 1.859375 -0.65625 C 1.859375 -0.359375 1.84375 -0.265625 1.09375 -0.265625 L 0.8125 -0.265625 L 0.8125 0 C 1.140625 -0.03125 1.8125 -0.03125 2.171875 -0.03125 C 2.53125 -0.03125 3.21875 -0.03125 3.546875 0 L 3.546875 -0.265625 L 3.265625 -0.265625 C 2.515625 -0.265625 2.5 -0.359375 2.5 -0.65625 Z M 2.5 -5.0625 "/>
</g>
<g id="glyph-1-2">
<path d="M 2.453125 -1.984375 C 2.453125 -2.734375 2.328125 -3.640625 1.828125 -4.578125 C 1.4375 -5.3125 0.71875 -5.953125 0.578125 -5.953125 C 0.5 -5.953125 0.46875 -5.890625 0.46875 -5.859375 C 0.46875 -5.828125 0.46875 -5.8125 0.578125 -5.71875 C 1.6875 -4.65625 1.9375 -3.203125 1.9375 -1.984375 C 1.9375 0.296875 0.984375 1.375 0.59375 1.734375 C 0.484375 1.84375 0.46875 1.84375 0.46875 1.890625 C 0.46875 1.921875 0.5 1.984375 0.578125 1.984375 C 0.703125 1.984375 1.109375 1.578125 1.171875 1.515625 C 2.234375 0.390625 2.453125 -1.03125 2.453125 -1.984375 Z M 2.453125 -1.984375 "/>
</g>
<g id="glyph-1-3">
<path d="M 3.875 -2.53125 C 3.875 -3.375 3.796875 -3.890625 3.53125 -4.40625 C 3.1875 -5.109375 2.546875 -5.28125 2.109375 -5.28125 C 1.109375 -5.28125 0.734375 -4.53125 0.625 -4.3125 C 0.34375 -3.734375 0.328125 -2.9375 0.328125 -2.53125 C 0.328125 -2.015625 0.34375 -1.203125 0.734375 -0.578125 C 1.09375 0.015625 1.6875 0.171875 2.109375 0.171875 C 2.484375 0.171875 3.171875 0.046875 3.5625 -0.734375 C 3.859375 -1.3125 3.875 -2.015625 3.875 -2.53125 Z M 2.109375 -0.0625 C 1.828125 -0.0625 1.28125 -0.1875 1.125 -1.015625 C 1.03125 -1.46875 1.03125 -2.21875 1.03125 -2.625 C 1.03125 -3.171875 1.03125 -3.734375 1.125 -4.171875 C 1.28125 -4.984375 1.90625 -5.0625 2.109375 -5.0625 C 2.375 -5.0625 2.921875 -4.921875 3.078125 -4.203125 C 3.171875 -3.765625 3.171875 -3.171875 3.171875 -2.625 C 3.171875 -2.15625 3.171875 -1.4375 3.078125 -1 C 2.90625 -0.171875 2.359375 -0.0625 2.109375 -0.0625 Z M 2.109375 -0.0625 "/>
</g>
<g id="glyph-1-4">
<path d="M 2.15625 1.984375 L 2.15625 1.625 L 1.34375 1.625 L 1.34375 -5.59375 L 2.15625 -5.59375 L 2.15625 -5.953125 L 0.984375 -5.953125 L 0.984375 1.984375 Z M 2.15625 1.984375 "/>
</g>
<g id="glyph-1-5">
<path d="M 1.34375 -5.953125 L 0.1875 -5.953125 L 0.1875 -5.59375 L 0.984375 -5.59375 L 0.984375 1.625 L 0.1875 1.625 L 0.1875 1.984375 L 1.34375 1.984375 Z M 1.34375 -5.953125 "/>
</g>
<g id="glyph-2-0">
<path d="M 5.546875 -1.796875 C 5.671875 -1.796875 5.84375 -1.796875 5.84375 -1.984375 C 5.84375 -2.171875 5.671875 -2.171875 5.546875 -2.171875 L 1 -2.171875 C 0.875 -2.171875 0.703125 -2.171875 0.703125 -1.984375 C 0.703125 -1.796875 0.875 -1.796875 1 -1.796875 Z M 5.546875 -1.796875 "/>
</g>
<g id="glyph-2-1">
<path d="M 5.203125 -3.65625 C 5.296875 -3.75 5.3125 -3.78125 5.3125 -3.84375 C 5.3125 -3.9375 5.234375 -4.03125 5.125 -4.03125 C 5.0625 -4.03125 5.03125 -4 4.9375 -3.90625 L 3.28125 -2.25 L 1.609375 -3.90625 C 1.515625 -4.015625 1.46875 -4.03125 1.421875 -4.03125 C 1.328125 -4.03125 1.234375 -3.9375 1.234375 -3.84375 C 1.234375 -3.765625 1.265625 -3.734375 1.34375 -3.65625 L 3.015625 -1.984375 L 1.359375 -0.328125 C 1.25 -0.21875 1.234375 -0.1875 1.234375 -0.125 C 1.234375 -0.03125 1.328125 0.0625 1.421875 0.0625 C 1.5 0.0625 1.515625 0.03125 1.609375 -0.0625 L 3.265625 -1.71875 L 5 0.015625 C 5.046875 0.03125 5.09375 0.0625 5.125 0.0625 C 5.234375 0.0625 5.3125 -0.03125 5.3125 -0.125 C 5.3125 -0.1875 5.265625 -0.21875 5.265625 -0.234375 C 5.234375 -0.28125 3.96875 -1.546875 3.53125 -1.984375 Z M 5.203125 -3.65625 "/>
</g>
<g id="glyph-3-0">
<path d="M 1.484375 -0.125 C 1.484375 0.390625 1.375 0.84375 0.875 1.34375 C 0.84375 1.359375 0.828125 1.375 0.828125 1.421875 C 0.828125 1.484375 0.890625 1.53125 0.953125 1.53125 C 1.046875 1.53125 1.703125 0.90625 1.703125 -0.03125 C 1.703125 -0.53125 1.515625 -0.875 1.171875 -0.875 C 0.890625 -0.875 0.734375 -0.65625 0.734375 -0.4375 C 0.734375 -0.21875 0.875 0 1.171875 0 C 1.359375 0 1.484375 -0.109375 1.484375 -0.125 Z M 1.484375 -0.125 "/>
</g>
<g id="glyph-4-0">
<path d="M 2.015625 -3.28125 C 1.859375 -3.238281 1.691406 -3.210938 1.515625 -3.203125 C 1.335938 -3.191406 1.160156 -3.1875 0.984375 -3.1875 L 0.5625 -3.1875 L 0.5625 -3.609375 L 1.359375 -3.609375 C 1.503906 -3.609375 1.65625 -3.609375 1.8125 -3.609375 C 1.96875 -3.617188 2.109375 -3.640625 2.234375 -3.671875 C 2.285156 -3.804688 2.328125 -3.945312 2.359375 -4.09375 C 2.398438 -4.238281 2.425781 -4.390625 2.4375 -4.546875 L 0.71875 -4.546875 L 0.71875 -5 L 2.890625 -5 C 2.941406 -5 2.976562 -4.988281 3 -4.96875 C 3.019531 -4.945312 3.03125 -4.90625 3.03125 -4.84375 C 2.957031 -4.0625 2.722656 -3.394531 2.328125 -2.84375 C 1.941406 -2.300781 1.40625 -1.859375 0.71875 -1.515625 L 0.3125 -1.875 C 0.675781 -2.03125 1.003906 -2.222656 1.296875 -2.453125 C 1.585938 -2.691406 1.828125 -2.96875 2.015625 -3.28125 Z M 3.640625 -0.828125 L 3.640625 -5.171875 L 4.171875 -5.171875 L 4.171875 -3.5 L 4.9375 -3.5 L 4.9375 -5.265625 L 5.484375 -5.265625 L 5.484375 -0.6875 L 4.9375 -0.6875 L 4.9375 -2.984375 L 4.171875 -2.984375 L 4.171875 -0.828125 Z M 1.578125 0.78125 C 1.523438 0.78125 1.488281 0.769531 1.46875 0.75 C 1.445312 0.726562 1.4375 0.691406 1.4375 0.640625 L 1.4375 -1.203125 L 2 -1.203125 L 2 0.3125 L 5.640625 0.3125 L 5.640625 0.78125 Z M 1.578125 0.78125 "/>
</g>
<g id="glyph-4-1">
<path d="M 1.25 -1.125 L 3 -1.125 L 3 -2.90625 L 1.25 -2.90625 Z M 0.6875 -0.78125 L 0.6875 -4.984375 L 1.25 -4.984375 L 1.25 -3.390625 L 3 -3.390625 L 3 -4.984375 L 3.53125 -4.984375 L 3.53125 -3.140625 L 4.765625 -3.140625 L 4.765625 -5.28125 L 5.328125 -5.28125 L 5.328125 0.921875 L 4.765625 0.921875 L 4.765625 -2.65625 L 3.53125 -2.65625 L 3.53125 -0.78125 C 3.53125 -0.726562 3.519531 -0.691406 3.5 -0.671875 C 3.476562 -0.648438 3.441406 -0.640625 3.390625 -0.640625 L 0.84375 -0.640625 C 0.78125 -0.640625 0.738281 -0.648438 0.71875 -0.671875 C 0.695312 -0.691406 0.6875 -0.726562 0.6875 -0.78125 Z M 0.6875 -0.78125 "/>
</g>
<g id="glyph-4-2">
<path d="M 3.328125 -4.5 C 3.328125 -4.238281 3.390625 -3.976562 3.515625 -3.71875 C 3.648438 -3.46875 3.820312 -3.234375 4.03125 -3.015625 C 4.25 -2.804688 4.492188 -2.617188 4.765625 -2.453125 C 5.046875 -2.285156 5.332031 -2.15625 5.625 -2.0625 L 5.234375 -1.65625 C 5.023438 -1.726562 4.8125 -1.820312 4.59375 -1.9375 C 4.375 -2.0625 4.160156 -2.207031 3.953125 -2.375 C 3.753906 -2.539062 3.570312 -2.722656 3.40625 -2.921875 C 3.25 -3.117188 3.128906 -3.332031 3.046875 -3.5625 C 2.953125 -3.34375 2.828125 -3.132812 2.671875 -2.9375 C 2.515625 -2.738281 2.332031 -2.554688 2.125 -2.390625 C 1.925781 -2.234375 1.71875 -2.085938 1.5 -1.953125 C 1.28125 -1.828125 1.066406 -1.722656 0.859375 -1.640625 L 0.4375 -2.078125 C 0.71875 -2.160156 0.992188 -2.28125 1.265625 -2.4375 C 1.546875 -2.59375 1.789062 -2.773438 2 -2.984375 C 2.21875 -3.191406 2.394531 -3.425781 2.53125 -3.6875 C 2.664062 -3.945312 2.734375 -4.21875 2.734375 -4.5 L 2.734375 -5.03125 L 3.328125 -5.03125 Z M 5.875 0.0625 L 0.1875 0.0625 L 0.1875 -0.421875 L 5.875 -0.421875 Z M 5.875 0.0625 "/>
</g>
<g id="glyph-4-3">
<path d="M 0.671875 -5 L 3.6875 -5 L 3.6875 -4.53125 L 2.46875 -4.53125 L 2.46875 -4.140625 C 2.46875 -3.910156 2.503906 -3.695312 2.578125 -3.5 C 2.660156 -3.300781 2.765625 -3.125 2.890625 -2.96875 C 3.035156 -2.75 3.210938 -2.566406 3.421875 -2.421875 C 3.640625 -2.285156 3.859375 -2.179688 4.078125 -2.109375 C 4.003906 -2.046875 3.929688 -1.972656 3.859375 -1.890625 C 3.796875 -1.816406 3.742188 -1.75 3.703125 -1.6875 C 3.578125 -1.75 3.441406 -1.828125 3.296875 -1.921875 C 3.148438 -2.015625 3.007812 -2.125 2.875 -2.25 C 2.738281 -2.363281 2.609375 -2.488281 2.484375 -2.625 C 2.367188 -2.769531 2.269531 -2.925781 2.1875 -3.09375 C 2.125 -2.914062 2.039062 -2.75 1.9375 -2.59375 C 1.832031 -2.445312 1.71875 -2.304688 1.59375 -2.171875 C 1.457031 -2.046875 1.304688 -1.925781 1.140625 -1.8125 C 0.984375 -1.695312 0.820312 -1.597656 0.65625 -1.515625 C 0.613281 -1.554688 0.546875 -1.613281 0.453125 -1.6875 C 0.367188 -1.769531 0.296875 -1.835938 0.234375 -1.890625 C 0.472656 -1.992188 0.707031 -2.128906 0.9375 -2.296875 C 1.164062 -2.472656 1.359375 -2.671875 1.515625 -2.890625 C 1.628906 -3.066406 1.722656 -3.257812 1.796875 -3.46875 C 1.867188 -3.675781 1.90625 -3.90625 1.90625 -4.15625 L 1.90625 -4.53125 L 0.671875 -4.53125 Z M 4.90625 -5.28125 L 5.453125 -5.28125 L 5.453125 -0.734375 L 4.90625 -0.734375 L 4.90625 -3.328125 L 3.625 -3.328125 L 3.625 -3.828125 L 4.90625 -3.828125 Z M 1.59375 0.78125 C 1.539062 0.78125 1.503906 0.769531 1.484375 0.75 C 1.460938 0.726562 1.453125 0.691406 1.453125 0.640625 L 1.453125 -1.203125 L 2.015625 -1.203125 L 2.015625 0.3125 L 5.625 0.3125 L 5.625 0.78125 Z M 1.59375 0.78125 "/>
</g>
<g id="glyph-4-4">
<path d="M 5.078125 -5.28125 L 5.59375 -5.28125 L 5.59375 0.90625 L 5.078125 0.90625 Z M 2.671875 -4.65625 L 1.078125 -4.65625 L 1.078125 -5.125 L 2.671875 -5.125 Z M 3.234375 -3.484375 L 2.171875 -3.484375 L 2.171875 -3.125 C 2.171875 -2.875 2.203125 -2.640625 2.265625 -2.421875 C 2.335938 -2.203125 2.429688 -2 2.546875 -1.8125 C 2.671875 -1.613281 2.8125 -1.4375 2.96875 -1.28125 C 3.125 -1.132812 3.289062 -1.003906 3.46875 -0.890625 C 3.445312 -0.867188 3.414062 -0.84375 3.375 -0.8125 C 3.34375 -0.78125 3.300781 -0.742188 3.25 -0.703125 C 3.207031 -0.660156 3.164062 -0.625 3.125 -0.59375 C 3.082031 -0.5625 3.054688 -0.539062 3.046875 -0.53125 C 2.941406 -0.613281 2.832031 -0.707031 2.71875 -0.8125 C 2.613281 -0.914062 2.515625 -1.035156 2.421875 -1.171875 C 2.316406 -1.296875 2.21875 -1.425781 2.125 -1.5625 C 2.039062 -1.707031 1.960938 -1.867188 1.890625 -2.046875 C 1.816406 -1.859375 1.734375 -1.675781 1.640625 -1.5 C 1.546875 -1.320312 1.4375 -1.15625 1.3125 -1 C 1.207031 -0.863281 1.09375 -0.734375 0.96875 -0.609375 C 0.851562 -0.484375 0.742188 -0.378906 0.640625 -0.296875 C 0.609375 -0.316406 0.570312 -0.34375 0.53125 -0.375 C 0.488281 -0.40625 0.441406 -0.4375 0.390625 -0.46875 C 0.347656 -0.5 0.304688 -0.523438 0.265625 -0.546875 C 0.222656 -0.578125 0.179688 -0.609375 0.140625 -0.640625 C 0.328125 -0.765625 0.507812 -0.914062 0.6875 -1.09375 C 0.863281 -1.269531 1.019531 -1.46875 1.15625 -1.6875 C 1.28125 -1.882812 1.382812 -2.101562 1.46875 -2.34375 C 1.550781 -2.59375 1.59375 -2.851562 1.59375 -3.125 L 1.59375 -3.484375 L 0.5 -3.484375 L 0.5 -3.953125 L 3.234375 -3.953125 Z M 3.875 -5.171875 L 4.421875 -5.171875 L 4.421875 0.609375 L 3.875 0.609375 L 3.875 -2.3125 L 2.921875 -2.3125 L 2.921875 -2.796875 L 3.875 -2.796875 Z M 3.875 -5.171875 "/>
</g>
<g id="glyph-4-5">
<path d="M 3.609375 -3.25 L 3.609375 -2.765625 L 0.484375 -2.765625 L 0.484375 -3.25 Z M 3.609375 -1.859375 L 3.609375 -1.375 L 0.484375 -1.375 L 0.484375 -1.859375 Z M 3.609375 -1.859375 "/>
</g>
<g id="glyph-4-6">
<path d="M 4.546875 -3.671875 C 4.234375 -3.617188 3.894531 -3.582031 3.53125 -3.5625 C 3.164062 -3.550781 2.796875 -3.546875 2.421875 -3.546875 L 0.859375 -3.546875 L 0.859375 -3.953125 L 2.78125 -3.953125 C 3.125 -3.953125 3.4375 -3.957031 3.71875 -3.96875 C 4 -3.976562 4.289062 -4 4.59375 -4.03125 C 4.601562 -4.132812 4.613281 -4.238281 4.625 -4.34375 C 4.632812 -4.445312 4.644531 -4.554688 4.65625 -4.671875 L 0.9375 -4.671875 L 0.9375 -5.109375 L 5.078125 -5.109375 C 5.128906 -5.109375 5.164062 -5.097656 5.1875 -5.078125 C 5.207031 -5.054688 5.21875 -5.015625 5.21875 -4.953125 C 5.207031 -4.796875 5.191406 -4.625 5.171875 -4.4375 C 5.148438 -4.25 5.125 -4.0625 5.09375 -3.875 C 5.0625 -3.675781 5.03125 -3.484375 5 -3.296875 C 4.96875 -3.117188 4.9375 -2.957031 4.90625 -2.8125 L 5.859375 -2.8125 L 5.859375 -2.375 L 0.203125 -2.375 L 0.203125 -2.8125 L 4.375 -2.8125 C 4.40625 -2.957031 4.429688 -3.097656 4.453125 -3.234375 C 4.484375 -3.378906 4.515625 -3.523438 4.546875 -3.671875 Z M 1.109375 0.859375 C 1.054688 0.859375 1.019531 0.847656 1 0.828125 C 0.976562 0.804688 0.96875 0.765625 0.96875 0.703125 L 0.96875 -0.546875 C 0.96875 -0.609375 0.976562 -0.648438 1 -0.671875 C 1.019531 -0.691406 1.054688 -0.703125 1.109375 -0.703125 L 4.5 -0.703125 L 4.5 -1.375 L 0.96875 -1.375 L 0.96875 -1.8125 L 4.953125 -1.8125 C 5.015625 -1.8125 5.054688 -1.800781 5.078125 -1.78125 C 5.097656 -1.757812 5.109375 -1.71875 5.109375 -1.65625 L 5.109375 -0.421875 C 5.109375 -0.367188 5.097656 -0.332031 5.078125 -0.3125 C 5.054688 -0.289062 5.015625 -0.28125 4.953125 -0.28125 L 1.578125 -0.28125 L 1.578125 0.421875 L 5.25 0.421875 L 5.25 0.859375 Z M 1.109375 0.859375 "/>
</g>
<g id="glyph-4-7">
<path d="M 0.796875 -3.796875 L 2.9375 -3.796875 L 2.9375 -4.578125 L 0.65625 -4.578125 L 0.65625 -5.046875 L 3.328125 -5.046875 C 3.378906 -5.046875 3.414062 -5.035156 3.4375 -5.015625 C 3.457031 -4.992188 3.46875 -4.953125 3.46875 -4.890625 L 3.46875 -3.5 C 3.46875 -3.4375 3.457031 -3.394531 3.4375 -3.375 C 3.414062 -3.351562 3.378906 -3.34375 3.328125 -3.34375 L 1.1875 -3.34375 L 1.1875 -2.5625 L 1.859375 -2.5625 C 2.109375 -2.5625 2.359375 -2.566406 2.609375 -2.578125 C 2.867188 -2.585938 3.117188 -2.601562 3.359375 -2.625 C 3.578125 -2.644531 3.78125 -2.664062 3.96875 -2.6875 C 4.164062 -2.71875 4.328125 -2.742188 4.453125 -2.765625 L 4.453125 -2.3125 C 4.316406 -2.289062 4.144531 -2.265625 3.9375 -2.234375 C 3.726562 -2.203125 3.503906 -2.175781 3.265625 -2.15625 C 3.023438 -2.132812 2.765625 -2.113281 2.484375 -2.09375 C 2.210938 -2.082031 1.941406 -2.078125 1.671875 -2.078125 L 0.796875 -2.078125 C 0.742188 -2.078125 0.707031 -2.085938 0.6875 -2.109375 C 0.664062 -2.128906 0.65625 -2.171875 0.65625 -2.234375 L 0.65625 -3.65625 C 0.65625 -3.707031 0.664062 -3.742188 0.6875 -3.765625 C 0.707031 -3.785156 0.742188 -3.796875 0.796875 -3.796875 Z M 5.328125 -5.28125 L 5.328125 -1.90625 L 4.78125 -1.90625 L 4.78125 -5.28125 Z M 1.875 0.390625 L 4.78125 0.390625 L 4.78125 -0.453125 L 1.875 -0.453125 Z M 1.3125 0.703125 L 1.3125 -1.546875 L 1.875 -1.546875 L 1.875 -0.90625 L 4.78125 -0.90625 L 4.78125 -1.578125 L 5.328125 -1.578125 L 5.328125 0.703125 C 5.328125 0.753906 5.316406 0.789062 5.296875 0.8125 C 5.273438 0.832031 5.238281 0.84375 5.1875 0.84375 L 1.46875 0.84375 C 1.414062 0.84375 1.375 0.832031 1.34375 0.8125 C 1.320312 0.789062 1.3125 0.753906 1.3125 0.703125 Z M 1.3125 0.703125 "/>
</g>
<g id="glyph-4-8">
<path d="M 5.078125 -5.09375 C 5.128906 -5.09375 5.164062 -5.082031 5.1875 -5.0625 C 5.207031 -5.039062 5.21875 -5.003906 5.21875 -4.953125 C 5.207031 -4.546875 5.175781 -4.179688 5.125 -3.859375 C 5.082031 -3.546875 5.035156 -3.25 4.984375 -2.96875 L 4.453125 -2.96875 C 4.503906 -3.25 4.546875 -3.519531 4.578125 -3.78125 C 4.609375 -4.039062 4.632812 -4.320312 4.65625 -4.625 L 0.859375 -4.625 L 0.859375 -5.09375 Z M 5.859375 -2.03125 L 0.203125 -2.03125 L 0.203125 -2.5 L 2.453125 -2.5 L 2.453125 -3.8125 L 3.015625 -3.8125 L 3.015625 -2.5 L 5.859375 -2.5 Z M 0.796875 -0.21875 C 0.796875 -0.570312 0.988281 -0.863281 1.375 -1.09375 C 1.757812 -1.332031 2.3125 -1.453125 3.03125 -1.453125 C 3.738281 -1.453125 4.285156 -1.332031 4.671875 -1.09375 C 5.066406 -0.863281 5.265625 -0.570312 5.265625 -0.21875 C 5.265625 0.144531 5.070312 0.441406 4.6875 0.671875 C 4.300781 0.910156 3.75 1.03125 3.03125 1.03125 C 2.3125 1.03125 1.757812 0.910156 1.375 0.671875 C 0.988281 0.441406 0.796875 0.144531 0.796875 -0.21875 Z M 3.03125 0.59375 C 3.507812 0.59375 3.898438 0.519531 4.203125 0.375 C 4.503906 0.238281 4.65625 0.0390625 4.65625 -0.21875 C 4.65625 -0.46875 4.503906 -0.660156 4.203125 -0.796875 C 3.898438 -0.941406 3.507812 -1.015625 3.03125 -1.015625 C 2.539062 -1.015625 2.144531 -0.941406 1.84375 -0.796875 C 1.550781 -0.660156 1.40625 -0.46875 1.40625 -0.21875 C 1.40625 0.0390625 1.550781 0.238281 1.84375 0.375 C 2.144531 0.519531 2.539062 0.59375 3.03125 0.59375 Z M 3.03125 0.59375 "/>
</g>
<g id="glyph-4-9">
<path d="M 3.3125 -5 C 3.375 -5 3.414062 -4.988281 3.4375 -4.96875 C 3.457031 -4.945312 3.46875 -4.90625 3.46875 -4.84375 C 3.425781 -4.425781 3.328125 -4.039062 3.171875 -3.6875 C 3.023438 -3.34375 2.828125 -3.035156 2.578125 -2.765625 C 2.328125 -2.472656 2.035156 -2.21875 1.703125 -2 C 1.378906 -1.789062 1.019531 -1.613281 0.625 -1.46875 L 0.25 -1.875 C 0.96875 -2.113281 1.554688 -2.460938 2.015625 -2.921875 C 2.484375 -3.378906 2.757812 -3.910156 2.84375 -4.515625 L 0.65625 -4.515625 L 0.65625 -5 Z M 5.15625 -5.28125 L 5.15625 -3.421875 L 6.015625 -3.421875 L 6.015625 -2.921875 L 5.15625 -2.921875 L 5.15625 -0.75 L 4.625 -0.75 L 4.625 -5.28125 Z M 1.296875 -1.203125 L 1.84375 -1.203125 L 1.84375 0.3125 L 5.359375 0.3125 L 5.359375 0.78125 L 1.4375 0.78125 C 1.382812 0.78125 1.347656 0.769531 1.328125 0.75 C 1.304688 0.726562 1.296875 0.691406 1.296875 0.640625 Z M 1.296875 -1.203125 "/>
</g>
<g id="glyph-5-0">
<path d="M 0.359375 -1.9375 C 0.359375 -2.1875 0.382812 -2.441406 0.4375 -2.703125 C 0.5 -2.960938 0.582031 -3.222656 0.6875 -3.484375 C 0.789062 -3.734375 0.921875 -3.972656 1.078125 -4.203125 C 1.234375 -4.441406 1.40625 -4.664062 1.59375 -4.875 L 1.96875 -4.875 C 1.601562 -4.394531 1.332031 -3.90625 1.15625 -3.40625 C 0.988281 -2.90625 0.90625 -2.414062 0.90625 -1.9375 C 0.90625 -1.46875 0.988281 -0.976562 1.15625 -0.46875 C 1.332031 0.0273438 1.601562 0.515625 1.96875 0.984375 L 1.59375 0.984375 C 1.40625 0.785156 1.234375 0.566406 1.078125 0.328125 C 0.921875 0.0976562 0.789062 -0.144531 0.6875 -0.40625 C 0.582031 -0.65625 0.5 -0.910156 0.4375 -1.171875 C 0.382812 -1.429688 0.359375 -1.6875 0.359375 -1.9375 Z M 0.359375 -1.9375 "/>
</g>
<g id="glyph-5-1">
<path d="M 0.328125 -2.171875 L 1.015625 -2.171875 L 0.984375 -3.96875 L 0.484375 -3.96875 L 0.484375 -4.375 L 3.4375 -4.375 L 3.4375 -3.96875 L 2.921875 -3.96875 L 2.90625 -2.1875 C 3.082031 -2.195312 3.25 -2.207031 3.40625 -2.21875 C 3.5625 -2.238281 3.71875 -2.257812 3.875 -2.28125 L 3.875 -1.890625 C 3.59375 -1.835938 3.28125 -1.800781 2.9375 -1.78125 C 2.601562 -1.769531 2.269531 -1.765625 1.9375 -1.765625 L 0.328125 -1.765625 Z M 1.46875 -2.171875 L 1.875 -2.171875 C 1.96875 -2.171875 2.0625 -2.171875 2.15625 -2.171875 C 2.25 -2.171875 2.34375 -2.171875 2.4375 -2.171875 L 2.46875 -3.96875 L 1.4375 -3.96875 Z M 4.75 -4.625 L 4.75 -1.375 L 4.265625 -1.375 L 4.265625 -4.625 Z M 4.609375 -1.078125 C 4.660156 -1.078125 4.691406 -1.066406 4.703125 -1.046875 C 4.722656 -1.035156 4.734375 -1.003906 4.734375 -0.953125 L 4.734375 0.828125 L 4.25 0.828125 L 4.25 -0.671875 L 1.125 -0.671875 L 1.125 -1.078125 Z M 4.609375 -1.078125 "/>
</g>
<g id="glyph-5-2">
<path d="M 2.59375 -2.03125 C 2.382812 -2.132812 2.1875 -2.273438 2 -2.453125 C 1.8125 -2.628906 1.660156 -2.832031 1.546875 -3.0625 C 1.453125 -2.8125 1.3125 -2.585938 1.125 -2.390625 C 0.9375 -2.203125 0.722656 -2.023438 0.484375 -1.859375 L 0.09375 -2.1875 C 0.507812 -2.40625 0.8125 -2.671875 1 -2.984375 C 1.1875 -3.296875 1.28125 -3.671875 1.28125 -4.109375 L 1.28125 -4.46875 L 1.78125 -4.46875 L 1.78125 -4.09375 C 1.78125 -3.695312 1.863281 -3.359375 2.03125 -3.078125 C 2.207031 -2.796875 2.5 -2.5625 2.90625 -2.375 Z M 4.765625 -4.609375 L 4.765625 -1.78125 L 4.28125 -1.78125 L 4.28125 -4.609375 Z M 2.40625 -3.734375 L 3.28125 -3.734375 L 3.28125 -4.53125 L 3.75 -4.53125 L 3.75 -1.78125 L 3.28125 -1.78125 L 3.28125 -3.3125 L 2.40625 -3.3125 Z M 1.3125 0.75 C 1.257812 0.75 1.222656 0.738281 1.203125 0.71875 C 1.191406 0.695312 1.1875 0.660156 1.1875 0.609375 L 1.1875 -0.453125 C 1.1875 -0.503906 1.191406 -0.539062 1.203125 -0.5625 C 1.222656 -0.582031 1.257812 -0.59375 1.3125 -0.59375 L 4.234375 -0.59375 L 4.234375 -1.125 L 1.1875 -1.125 L 1.1875 -1.515625 L 4.625 -1.515625 C 4.664062 -1.515625 4.695312 -1.503906 4.71875 -1.484375 C 4.738281 -1.460938 4.75 -1.429688 4.75 -1.390625 L 4.75 -0.34375 C 4.75 -0.289062 4.738281 -0.253906 4.71875 -0.234375 C 4.695312 -0.222656 4.664062 -0.21875 4.625 -0.21875 L 1.703125 -0.21875 L 1.703125 0.359375 L 4.875 0.359375 L 4.875 0.75 Z M 1.3125 0.75 "/>
</g>
<g id="glyph-5-3">
<path d="M 3.859375 -2.09375 C 3.585938 -2.039062 3.289062 -2.003906 2.96875 -1.984375 C 2.65625 -1.972656 2.34375 -1.96875 2.03125 -1.96875 L 0.703125 -1.96875 L 0.703125 -2.375 L 2.34375 -2.375 C 2.632812 -2.375 2.90625 -2.378906 3.15625 -2.390625 C 3.40625 -2.398438 3.65625 -2.421875 3.90625 -2.453125 C 3.945312 -2.691406 3.976562 -2.921875 4 -3.140625 C 4.019531 -3.367188 4.03125 -3.585938 4.03125 -3.796875 L 0.796875 -3.796875 L 0.796875 -4.203125 L 4.40625 -4.203125 C 4.445312 -4.203125 4.476562 -4.191406 4.5 -4.171875 C 4.519531 -4.160156 4.53125 -4.128906 4.53125 -4.078125 C 4.5 -3.460938 4.429688 -2.832031 4.328125 -2.1875 C 4.234375 -1.550781 4.117188 -0.945312 3.984375 -0.375 L 5.140625 -0.375 L 5.140625 0.03125 L 0.171875 0.03125 L 0.171875 -0.375 L 3.5 -0.375 C 3.5625 -0.632812 3.625 -0.910156 3.6875 -1.203125 C 3.75 -1.492188 3.804688 -1.789062 3.859375 -2.09375 Z M 3.859375 -2.09375 "/>
</g>
<g id="glyph-5-4">
<path d="M 2.953125 -4.3125 C 3.003906 -4.3125 3.035156 -4.300781 3.046875 -4.28125 C 3.066406 -4.257812 3.078125 -4.222656 3.078125 -4.171875 C 3.054688 -3.753906 2.984375 -3.351562 2.859375 -2.96875 C 2.742188 -2.59375 2.582031 -2.242188 2.375 -1.921875 C 2.175781 -1.597656 1.9375 -1.300781 1.65625 -1.03125 C 1.382812 -0.769531 1.082031 -0.539062 0.75 -0.34375 L 0.359375 -0.671875 C 0.984375 -0.992188 1.488281 -1.425781 1.875 -1.96875 C 2.257812 -2.519531 2.484375 -3.160156 2.546875 -3.890625 L 0.671875 -3.890625 L 0.671875 -4.3125 Z M 4.21875 0.796875 L 4.21875 -4.625 L 4.703125 -4.625 L 4.703125 0.796875 Z M 4.21875 0.796875 "/>
</g>
<g id="glyph-5-5">
<path d="M 0.5 -3.125 C 0.5 -3.320312 0.53125 -3.503906 0.59375 -3.671875 C 0.65625 -3.835938 0.75 -3.976562 0.875 -4.09375 C 1 -4.21875 1.144531 -4.316406 1.3125 -4.390625 C 1.488281 -4.460938 1.6875 -4.5 1.90625 -4.5 C 2.113281 -4.5 2.304688 -4.460938 2.484375 -4.390625 C 2.660156 -4.316406 2.804688 -4.21875 2.921875 -4.09375 C 3.046875 -3.976562 3.140625 -3.835938 3.203125 -3.671875 C 3.273438 -3.503906 3.3125 -3.320312 3.3125 -3.125 C 3.3125 -2.769531 3.207031 -2.46875 3 -2.21875 C 2.789062 -1.96875 2.507812 -1.816406 2.15625 -1.765625 L 2.15625 -0.78125 C 2.269531 -0.78125 2.398438 -0.78125 2.546875 -0.78125 C 2.703125 -0.789062 2.851562 -0.800781 3 -0.8125 C 3.15625 -0.820312 3.300781 -0.832031 3.4375 -0.84375 C 3.582031 -0.863281 3.707031 -0.878906 3.8125 -0.890625 L 3.8125 -0.484375 C 3.59375 -0.441406 3.296875 -0.40625 2.921875 -0.375 C 2.554688 -0.351562 2.175781 -0.34375 1.78125 -0.34375 L 0.21875 -0.34375 L 0.21875 -0.765625 L 1.671875 -0.765625 L 1.671875 -1.765625 C 1.492188 -1.785156 1.332031 -1.832031 1.1875 -1.90625 C 1.039062 -1.988281 0.914062 -2.09375 0.8125 -2.21875 C 0.707031 -2.332031 0.628906 -2.46875 0.578125 -2.625 C 0.523438 -2.78125 0.5 -2.945312 0.5 -3.125 Z M 0.96875 -3.125 C 0.96875 -2.832031 1.046875 -2.597656 1.203125 -2.421875 C 1.359375 -2.253906 1.59375 -2.171875 1.90625 -2.171875 C 2.207031 -2.171875 2.4375 -2.257812 2.59375 -2.4375 C 2.757812 -2.613281 2.84375 -2.84375 2.84375 -3.125 C 2.84375 -3.394531 2.757812 -3.625 2.59375 -3.8125 C 2.4375 -4 2.207031 -4.09375 1.90625 -4.09375 C 1.59375 -4.09375 1.359375 -4 1.203125 -3.8125 C 1.046875 -3.625 0.96875 -3.394531 0.96875 -3.125 Z M 4.5 -4.625 L 4.5 -2.46875 L 5.265625 -2.46875 L 5.265625 -2.03125 L 4.5 -2.03125 L 4.5 0.796875 L 4.015625 0.796875 L 4.015625 -4.625 Z M 4.5 -4.625 "/>
</g>
<g id="glyph-5-6">
<path d="M 1.3125 -2.75 L 3.984375 -2.75 L 3.984375 -4.015625 L 1.3125 -4.015625 Z M 0.953125 -4.421875 L 4.34375 -4.421875 C 4.382812 -4.421875 4.414062 -4.410156 4.4375 -4.390625 C 4.457031 -4.378906 4.46875 -4.347656 4.46875 -4.296875 L 4.46875 -2.46875 C 4.46875 -2.414062 4.457031 -2.378906 4.4375 -2.359375 C 4.414062 -2.335938 4.382812 -2.328125 4.34375 -2.328125 L 0.953125 -2.328125 C 0.910156 -2.328125 0.878906 -2.335938 0.859375 -2.359375 C 0.835938 -2.378906 0.828125 -2.414062 0.828125 -2.46875 L 0.828125 -4.296875 C 0.828125 -4.347656 0.835938 -4.378906 0.859375 -4.390625 C 0.878906 -4.410156 0.910156 -4.421875 0.953125 -4.421875 Z M 2.421875 0.8125 L 2.421875 -1.125 L 0.171875 -1.125 L 0.171875 -1.546875 L 5.125 -1.546875 L 5.125 -1.125 L 2.921875 -1.125 L 2.921875 0.8125 Z M 2.421875 0.8125 "/>
</g>
<g id="glyph-5-7">
<path d="M 3.15625 -4.40625 C 3.195312 -4.40625 3.226562 -4.394531 3.25 -4.375 C 3.269531 -4.351562 3.28125 -4.316406 3.28125 -4.265625 C 3.269531 -4.097656 3.253906 -3.925781 3.234375 -3.75 C 3.222656 -3.582031 3.207031 -3.414062 3.1875 -3.25 C 3.164062 -3.082031 3.144531 -2.925781 3.125 -2.78125 C 3.101562 -2.644531 3.082031 -2.519531 3.0625 -2.40625 L 2.578125 -2.40625 C 2.597656 -2.5 2.617188 -2.613281 2.640625 -2.75 C 2.660156 -2.882812 2.675781 -3.023438 2.6875 -3.171875 C 2.707031 -3.304688 2.722656 -3.441406 2.734375 -3.578125 C 2.753906 -3.722656 2.769531 -3.859375 2.78125 -3.984375 L 0.5625 -3.984375 L 0.5625 -4.40625 Z M 4.046875 -0.53125 L 4.046875 -4.625 L 4.515625 -4.625 L 4.515625 -2.875 L 5.265625 -2.875 L 5.265625 -2.453125 L 4.515625 -2.453125 L 4.515625 -0.53125 Z M 1.828125 -3.140625 L 1.828125 -1.84375 C 1.941406 -1.84375 2.085938 -1.847656 2.265625 -1.859375 C 2.441406 -1.867188 2.625 -1.882812 2.8125 -1.90625 C 3 -1.914062 3.179688 -1.929688 3.359375 -1.953125 C 3.546875 -1.972656 3.707031 -1.992188 3.84375 -2.015625 L 3.84375 -1.609375 C 3.582031 -1.566406 3.195312 -1.523438 2.6875 -1.484375 C 2.1875 -1.441406 1.585938 -1.421875 0.890625 -1.421875 L 0.21875 -1.421875 L 0.21875 -1.84375 L 1.375 -1.84375 L 1.375 -3.140625 Z M 1.234375 0.6875 C 1.191406 0.6875 1.160156 0.675781 1.140625 0.65625 C 1.117188 0.632812 1.109375 0.601562 1.109375 0.5625 L 1.109375 -0.921875 L 1.59375 -0.921875 L 1.59375 0.265625 L 4.703125 0.265625 L 4.703125 0.6875 Z M 1.234375 0.6875 "/>
</g>
<g id="glyph-5-8">
<path d="M 1.25 0.171875 C 1.25 0.460938 1.1875 0.679688 1.0625 0.828125 C 0.9375 0.984375 0.785156 1.070312 0.609375 1.09375 L 0.609375 0.875 C 0.703125 0.851562 0.769531 0.785156 0.8125 0.671875 C 0.863281 0.554688 0.882812 0.445312 0.875 0.34375 L 0.546875 0.34375 L 0.546875 -0.296875 L 1.171875 -0.296875 C 1.203125 -0.296875 1.222656 -0.285156 1.234375 -0.265625 C 1.242188 -0.253906 1.25 -0.238281 1.25 -0.21875 Z M 1.25 0.171875 "/>
</g>
<g id="glyph-5-9">
<path d="M 1.0625 -2.265625 L 2.578125 -2.265625 L 2.578125 -3.171875 L 1.0625 -3.171875 Z M 3.03125 -1.984375 C 3.03125 -1.929688 3.019531 -1.894531 3 -1.875 C 2.988281 -1.863281 2.957031 -1.859375 2.90625 -1.859375 L 0.71875 -1.859375 C 0.664062 -1.859375 0.628906 -1.863281 0.609375 -1.875 C 0.597656 -1.894531 0.59375 -1.929688 0.59375 -1.984375 L 0.59375 -4.4375 L 1.0625 -4.4375 L 1.0625 -3.578125 L 2.578125 -3.578125 L 2.578125 -4.4375 L 3.03125 -4.4375 L 3.03125 -3.46875 L 4.203125 -3.46875 L 4.203125 -4.625 L 4.6875 -4.625 L 4.6875 -1.5 L 4.203125 -1.5 L 4.203125 -3.0625 L 3.03125 -3.0625 Z M 1.671875 0.34375 L 4.203125 0.34375 L 4.203125 -0.828125 L 1.671875 -0.828125 Z M 1.3125 -1.21875 L 4.5625 -1.21875 C 4.613281 -1.21875 4.644531 -1.207031 4.65625 -1.1875 C 4.675781 -1.175781 4.6875 -1.144531 4.6875 -1.09375 L 4.6875 0.609375 C 4.6875 0.648438 4.675781 0.679688 4.65625 0.703125 C 4.644531 0.722656 4.613281 0.734375 4.5625 0.734375 L 1.3125 0.734375 C 1.257812 0.734375 1.222656 0.722656 1.203125 0.703125 C 1.191406 0.679688 1.1875 0.648438 1.1875 0.609375 L 1.1875 -1.09375 C 1.1875 -1.144531 1.191406 -1.175781 1.203125 -1.1875 C 1.222656 -1.207031 1.257812 -1.21875 1.3125 -1.21875 Z M 1.3125 -1.21875 "/>
</g>
<g id="glyph-5-10">
<path d="M 0.703125 -3.359375 C 0.703125 -3.515625 0.734375 -3.664062 0.796875 -3.8125 C 0.859375 -3.957031 0.945312 -4.082031 1.0625 -4.1875 C 1.175781 -4.300781 1.316406 -4.390625 1.484375 -4.453125 C 1.648438 -4.515625 1.84375 -4.546875 2.0625 -4.546875 C 2.269531 -4.546875 2.457031 -4.515625 2.625 -4.453125 C 2.800781 -4.390625 2.945312 -4.300781 3.0625 -4.1875 C 3.175781 -4.082031 3.265625 -3.957031 3.328125 -3.8125 C 3.390625 -3.664062 3.421875 -3.515625 3.421875 -3.359375 C 3.421875 -3.191406 3.390625 -3.035156 3.328125 -2.890625 C 3.265625 -2.753906 3.175781 -2.632812 3.0625 -2.53125 C 2.945312 -2.425781 2.800781 -2.34375 2.625 -2.28125 C 2.457031 -2.21875 2.269531 -2.1875 2.0625 -2.1875 C 1.84375 -2.1875 1.648438 -2.21875 1.484375 -2.28125 C 1.316406 -2.34375 1.175781 -2.425781 1.0625 -2.53125 C 0.945312 -2.632812 0.859375 -2.753906 0.796875 -2.890625 C 0.734375 -3.035156 0.703125 -3.191406 0.703125 -3.359375 Z M 1.171875 -3.359375 C 1.171875 -3.160156 1.238281 -2.976562 1.375 -2.8125 C 1.519531 -2.65625 1.75 -2.578125 2.0625 -2.578125 C 2.375 -2.578125 2.601562 -2.65625 2.75 -2.8125 C 2.894531 -2.976562 2.96875 -3.160156 2.96875 -3.359375 C 2.96875 -3.566406 2.894531 -3.75 2.75 -3.90625 C 2.601562 -4.070312 2.375 -4.15625 2.0625 -4.15625 C 1.757812 -4.15625 1.535156 -4.070312 1.390625 -3.90625 C 1.242188 -3.75 1.171875 -3.566406 1.171875 -3.359375 Z M 4.265625 -4.625 L 4.75 -4.625 L 4.75 0.796875 L 4.265625 0.796875 Z M 1.765625 -1.203125 L 0.359375 -1.203125 L 0.359375 -1.625 L 1.921875 -1.625 C 2.023438 -1.625 2.171875 -1.628906 2.359375 -1.640625 C 2.546875 -1.648438 2.738281 -1.660156 2.9375 -1.671875 C 3.144531 -1.679688 3.347656 -1.691406 3.546875 -1.703125 C 3.742188 -1.722656 3.90625 -1.742188 4.03125 -1.765625 L 4.03125 -1.359375 C 3.769531 -1.316406 3.484375 -1.285156 3.171875 -1.265625 C 2.867188 -1.242188 2.550781 -1.226562 2.21875 -1.21875 L 2.21875 0.671875 L 1.765625 0.671875 Z M 1.765625 -1.203125 "/>
</g>
<g id="glyph-5-11">
<path d="M 0.96875 -2.203125 L 2.484375 -2.203125 L 2.484375 -3.125 L 0.96875 -3.125 Z M 0.5 -1.921875 L 0.5 -4.421875 L 0.96875 -4.421875 L 0.96875 -3.53125 L 2.484375 -3.53125 L 2.484375 -4.421875 L 2.953125 -4.421875 L 2.953125 -1.921875 C 2.953125 -1.867188 2.941406 -1.832031 2.921875 -1.8125 C 2.910156 -1.800781 2.878906 -1.796875 2.828125 -1.796875 L 0.640625 -1.796875 C 0.585938 -1.796875 0.550781 -1.800781 0.53125 -1.8125 C 0.507812 -1.832031 0.5 -1.867188 0.5 -1.921875 Z M 5.234375 -3 L 4.5 -3 L 4.5 -1.40625 L 4.015625 -1.40625 L 4.015625 -4.625 L 4.5 -4.625 L 4.5 -3.421875 L 5.234375 -3.421875 Z M 2.78125 -1.109375 L 4.375 -1.109375 C 4.425781 -1.109375 4.457031 -1.097656 4.46875 -1.078125 C 4.488281 -1.066406 4.5 -1.035156 4.5 -0.984375 L 4.5 0.828125 L 4.03125 0.828125 L 4.03125 -0.6875 L 2.78125 -0.6875 Z M 0.859375 -1.109375 L 2.4375 -1.109375 C 2.488281 -1.109375 2.523438 -1.097656 2.546875 -1.078125 C 2.566406 -1.066406 2.578125 -1.035156 2.578125 -0.984375 L 2.578125 0.828125 L 2.09375 0.828125 L 2.09375 -0.6875 L 0.859375 -0.6875 Z M 0.859375 -1.109375 "/>
</g>
<g id="glyph-5-12">
<path d="M 3.21875 -3.953125 L 2.15625 -3.953125 L 2.15625 -3.734375 C 2.15625 -3.515625 2.191406 -3.3125 2.265625 -3.125 C 2.347656 -2.945312 2.457031 -2.785156 2.59375 -2.640625 C 2.71875 -2.492188 2.863281 -2.367188 3.03125 -2.265625 C 3.195312 -2.160156 3.375 -2.078125 3.5625 -2.015625 L 3.25 -1.671875 C 3.144531 -1.710938 3.03125 -1.769531 2.90625 -1.84375 C 2.78125 -1.925781 2.65625 -2.015625 2.53125 -2.109375 C 2.414062 -2.203125 2.300781 -2.3125 2.1875 -2.4375 C 2.070312 -2.5625 1.976562 -2.695312 1.90625 -2.84375 C 1.8125 -2.5625 1.640625 -2.300781 1.390625 -2.0625 C 1.148438 -1.832031 0.875 -1.644531 0.5625 -1.5 L 0.203125 -1.828125 C 0.398438 -1.898438 0.585938 -1.992188 0.765625 -2.109375 C 0.941406 -2.234375 1.09375 -2.378906 1.21875 -2.546875 C 1.351562 -2.703125 1.457031 -2.878906 1.53125 -3.078125 C 1.613281 -3.285156 1.65625 -3.507812 1.65625 -3.75 L 1.65625 -3.953125 L 0.578125 -3.953125 L 0.578125 -4.375 L 3.21875 -4.375 Z M 4.296875 -1.34375 L 4.296875 -2.984375 L 3.171875 -2.984375 L 3.171875 -3.390625 L 4.296875 -3.390625 L 4.296875 -4.625 L 4.765625 -4.625 L 4.765625 -1.34375 Z M 3.015625 0.890625 C 2.734375 0.890625 2.476562 0.863281 2.25 0.8125 C 2.03125 0.757812 1.84375 0.6875 1.6875 0.59375 C 1.519531 0.5 1.390625 0.382812 1.296875 0.25 C 1.210938 0.113281 1.171875 -0.0351562 1.171875 -0.203125 C 1.171875 -0.367188 1.210938 -0.519531 1.296875 -0.65625 C 1.390625 -0.789062 1.519531 -0.90625 1.6875 -1 C 1.851562 -1.101562 2.046875 -1.179688 2.265625 -1.234375 C 2.492188 -1.285156 2.742188 -1.3125 3.015625 -1.3125 C 3.578125 -1.3125 4.023438 -1.207031 4.359375 -1 C 4.703125 -0.800781 4.875 -0.535156 4.875 -0.203125 C 4.875 0.128906 4.703125 0.394531 4.359375 0.59375 C 4.023438 0.789062 3.578125 0.890625 3.015625 0.890625 Z M 1.6875 -0.203125 C 1.6875 -0.0976562 1.71875 -0.00390625 1.78125 0.078125 C 1.851562 0.171875 1.953125 0.25 2.078125 0.3125 C 2.191406 0.375 2.328125 0.421875 2.484375 0.453125 C 2.648438 0.484375 2.828125 0.5 3.015625 0.5 C 3.210938 0.5 3.390625 0.484375 3.546875 0.453125 C 3.710938 0.421875 3.859375 0.375 3.984375 0.3125 C 4.097656 0.25 4.1875 0.175781 4.25 0.09375 C 4.320312 0.0078125 4.359375 -0.0859375 4.359375 -0.203125 C 4.359375 -0.421875 4.226562 -0.59375 3.96875 -0.71875 C 3.71875 -0.84375 3.398438 -0.90625 3.015625 -0.90625 C 2.828125 -0.90625 2.648438 -0.890625 2.484375 -0.859375 C 2.328125 -0.828125 2.191406 -0.78125 2.078125 -0.71875 C 1.953125 -0.664062 1.851562 -0.59375 1.78125 -0.5 C 1.71875 -0.414062 1.6875 -0.316406 1.6875 -0.203125 Z M 1.6875 -0.203125 "/>
</g>
<g id="glyph-5-13">
<path d="M 3.21875 -3.953125 L 2.171875 -3.953125 L 2.171875 -3.78125 C 2.171875 -3.5625 2.207031 -3.359375 2.28125 -3.171875 C 2.363281 -2.992188 2.472656 -2.832031 2.609375 -2.6875 C 2.742188 -2.550781 2.894531 -2.429688 3.0625 -2.328125 C 3.238281 -2.222656 3.421875 -2.144531 3.609375 -2.09375 L 3.296875 -1.734375 C 3.191406 -1.773438 3.070312 -1.832031 2.9375 -1.90625 C 2.8125 -1.976562 2.6875 -2.0625 2.5625 -2.15625 C 2.4375 -2.257812 2.316406 -2.367188 2.203125 -2.484375 C 2.085938 -2.609375 1.992188 -2.75 1.921875 -2.90625 C 1.804688 -2.59375 1.617188 -2.328125 1.359375 -2.109375 C 1.109375 -1.898438 0.832031 -1.722656 0.53125 -1.578125 L 0.171875 -1.890625 C 0.359375 -1.972656 0.546875 -2.070312 0.734375 -2.1875 C 0.921875 -2.300781 1.082031 -2.4375 1.21875 -2.59375 C 1.351562 -2.75 1.460938 -2.925781 1.546875 -3.125 C 1.628906 -3.332031 1.671875 -3.554688 1.671875 -3.796875 L 1.671875 -3.953125 L 0.578125 -3.953125 L 0.578125 -4.375 L 3.21875 -4.375 Z M 3.171875 -3.421875 L 4.28125 -3.421875 L 4.28125 -4.625 L 4.765625 -4.625 L 4.765625 -1.484375 L 4.28125 -1.484375 L 4.28125 -3 L 3.171875 -3 Z M 1.75 0.34375 L 4.28125 0.34375 L 4.28125 -0.8125 L 1.75 -0.8125 Z M 1.40625 -1.203125 L 4.640625 -1.203125 C 4.691406 -1.203125 4.722656 -1.191406 4.734375 -1.171875 C 4.753906 -1.160156 4.765625 -1.128906 4.765625 -1.078125 L 4.765625 0.609375 C 4.765625 0.648438 4.753906 0.679688 4.734375 0.703125 C 4.722656 0.722656 4.691406 0.734375 4.640625 0.734375 L 1.40625 0.734375 C 1.351562 0.734375 1.316406 0.722656 1.296875 0.703125 C 1.273438 0.679688 1.265625 0.648438 1.265625 0.609375 L 1.265625 -1.078125 C 1.265625 -1.128906 1.273438 -1.160156 1.296875 -1.171875 C 1.316406 -1.191406 1.351562 -1.203125 1.40625 -1.203125 Z M 1.40625 -1.203125 "/>
</g>
<g id="glyph-5-14">
<path d="M 0.75 -3.5 C 0.75 -3.84375 0.910156 -4.117188 1.234375 -4.328125 C 1.554688 -4.546875 2.03125 -4.65625 2.65625 -4.65625 C 3.28125 -4.65625 3.753906 -4.546875 4.078125 -4.328125 C 4.398438 -4.117188 4.5625 -3.84375 4.5625 -3.5 C 4.5625 -3.15625 4.398438 -2.878906 4.078125 -2.671875 C 3.753906 -2.472656 3.28125 -2.375 2.65625 -2.375 C 2.03125 -2.375 1.554688 -2.472656 1.234375 -2.671875 C 0.910156 -2.878906 0.75 -3.15625 0.75 -3.5 Z M 4.03125 -3.5 C 4.03125 -3.75 3.90625 -3.9375 3.65625 -4.0625 C 3.40625 -4.195312 3.070312 -4.265625 2.65625 -4.265625 C 2.238281 -4.265625 1.898438 -4.195312 1.640625 -4.0625 C 1.390625 -3.9375 1.265625 -3.75 1.265625 -3.5 C 1.265625 -3.25 1.390625 -3.0625 1.640625 -2.9375 C 1.890625 -2.820312 2.226562 -2.765625 2.65625 -2.765625 C 3.070312 -2.765625 3.40625 -2.820312 3.65625 -2.9375 C 3.90625 -3.0625 4.03125 -3.25 4.03125 -3.5 Z M 5.125 -1.40625 L 0.171875 -1.40625 L 0.171875 -1.796875 L 5.125 -1.796875 Z M 0.96875 0.6875 C 0.914062 0.6875 0.878906 0.675781 0.859375 0.65625 C 0.847656 0.632812 0.84375 0.601562 0.84375 0.5625 L 0.84375 -0.890625 L 1.3125 -0.890625 L 1.3125 0.265625 L 4.671875 0.265625 L 4.671875 0.6875 Z M 0.96875 0.6875 "/>
</g>
<g id="glyph-5-15">
<path d="M 3.21875 -3.96875 L 2.15625 -3.96875 C 2.15625 -3.738281 2.191406 -3.535156 2.265625 -3.359375 C 2.335938 -3.179688 2.4375 -3.03125 2.5625 -2.90625 C 2.695312 -2.769531 2.84375 -2.65625 3 -2.5625 C 3.164062 -2.476562 3.335938 -2.410156 3.515625 -2.359375 L 3.21875 -2.015625 C 3.125 -2.054688 3.015625 -2.109375 2.890625 -2.171875 C 2.765625 -2.234375 2.640625 -2.3125 2.515625 -2.40625 C 2.390625 -2.488281 2.273438 -2.585938 2.171875 -2.703125 C 2.066406 -2.816406 1.976562 -2.941406 1.90625 -3.078125 C 1.78125 -2.785156 1.585938 -2.539062 1.328125 -2.34375 C 1.078125 -2.144531 0.820312 -1.984375 0.5625 -1.859375 L 0.21875 -2.1875 C 0.40625 -2.257812 0.582031 -2.34375 0.75 -2.4375 C 0.925781 -2.539062 1.082031 -2.660156 1.21875 -2.796875 C 1.34375 -2.941406 1.441406 -3.109375 1.515625 -3.296875 C 1.597656 -3.492188 1.640625 -3.71875 1.640625 -3.96875 L 0.5625 -3.96875 L 0.5625 -4.375 L 3.21875 -4.375 Z M 5.3125 -3.09375 L 4.578125 -3.09375 L 4.578125 -1.796875 L 4.109375 -1.796875 L 4.109375 -4.625 L 4.578125 -4.625 L 4.578125 -3.515625 L 5.3125 -3.515625 Z M 1.171875 -1.515625 L 4.453125 -1.515625 C 4.503906 -1.515625 4.535156 -1.503906 4.546875 -1.484375 C 4.566406 -1.460938 4.578125 -1.429688 4.578125 -1.390625 L 4.578125 -0.328125 C 4.578125 -0.273438 4.566406 -0.238281 4.546875 -0.21875 C 4.535156 -0.207031 4.503906 -0.203125 4.453125 -0.203125 L 1.6875 -0.203125 L 1.6875 0.359375 L 4.703125 0.359375 L 4.703125 0.75 L 1.296875 0.75 C 1.242188 0.75 1.207031 0.738281 1.1875 0.71875 C 1.175781 0.695312 1.171875 0.660156 1.171875 0.609375 L 1.171875 -0.453125 C 1.171875 -0.492188 1.175781 -0.523438 1.1875 -0.546875 C 1.207031 -0.566406 1.242188 -0.578125 1.296875 -0.578125 L 4.078125 -0.578125 L 4.078125 -1.125 L 1.171875 -1.125 Z M 1.171875 -1.515625 "/>
</g>
<g id="glyph-5-16">
<path d="M 0.78125 -0.515625 C 0.738281 -0.515625 0.707031 -0.523438 0.6875 -0.546875 C 0.664062 -0.566406 0.65625 -0.597656 0.65625 -0.640625 L 0.65625 -2.53125 C 0.65625 -2.582031 0.664062 -2.613281 0.6875 -2.625 C 0.707031 -2.644531 0.738281 -2.65625 0.78125 -2.65625 L 2.421875 -2.65625 L 2.421875 -3.9375 L 0.65625 -3.9375 L 0.65625 -4.359375 L 2.78125 -4.359375 C 2.820312 -4.359375 2.851562 -4.347656 2.875 -4.328125 C 2.894531 -4.304688 2.90625 -4.273438 2.90625 -4.234375 L 2.90625 -2.375 C 2.90625 -2.320312 2.894531 -2.285156 2.875 -2.265625 C 2.851562 -2.253906 2.820312 -2.25 2.78125 -2.25 L 1.140625 -2.25 L 1.140625 -0.953125 L 1.515625 -0.953125 C 1.734375 -0.953125 1.945312 -0.957031 2.15625 -0.96875 C 2.375 -0.976562 2.578125 -0.992188 2.765625 -1.015625 C 2.960938 -1.035156 3.140625 -1.054688 3.296875 -1.078125 C 3.453125 -1.097656 3.585938 -1.125 3.703125 -1.15625 L 3.703125 -0.734375 C 3.578125 -0.703125 3.425781 -0.671875 3.25 -0.640625 C 3.082031 -0.617188 2.898438 -0.601562 2.703125 -0.59375 C 2.492188 -0.570312 2.273438 -0.550781 2.046875 -0.53125 C 1.816406 -0.519531 1.582031 -0.515625 1.34375 -0.515625 Z M 4.671875 -4.625 L 4.671875 0.796875 L 4.1875 0.796875 L 4.1875 -1.75 L 3.34375 -1.75 L 3.34375 -2.1875 L 4.1875 -2.1875 L 4.1875 -3.171875 L 3.34375 -3.171875 L 3.34375 -3.59375 L 4.1875 -3.59375 L 4.1875 -4.625 Z M 4.671875 -4.625 "/>
</g>
<g id="glyph-5-17">
<path d="M 0.5625 -4.390625 L 1.046875 -4.390625 L 1.046875 -1.046875 L 1.734375 -1.046875 C 2.140625 -1.046875 2.507812 -1.066406 2.84375 -1.109375 C 3.1875 -1.160156 3.46875 -1.210938 3.6875 -1.265625 L 3.6875 -0.828125 C 3.5625 -0.796875 3.421875 -0.765625 3.265625 -0.734375 C 3.109375 -0.710938 2.941406 -0.691406 2.765625 -0.671875 C 2.585938 -0.648438 2.40625 -0.632812 2.21875 -0.625 C 2.03125 -0.613281 1.84375 -0.609375 1.65625 -0.609375 L 0.6875 -0.609375 C 0.632812 -0.609375 0.597656 -0.613281 0.578125 -0.625 C 0.566406 -0.644531 0.5625 -0.679688 0.5625 -0.734375 Z M 5.234375 -2.171875 L 4.4375 -2.171875 L 4.4375 0.796875 L 3.953125 0.796875 L 3.953125 -4.625 L 4.4375 -4.625 L 4.4375 -2.625 L 5.234375 -2.625 Z M 5.234375 -2.171875 "/>
</g>
<g id="glyph-5-18">
<path d="M 2.90625 -4.375 C 2.957031 -4.375 2.988281 -4.363281 3 -4.34375 C 3.019531 -4.320312 3.03125 -4.285156 3.03125 -4.234375 C 2.96875 -3.566406 2.722656 -3.003906 2.296875 -2.546875 C 1.867188 -2.097656 1.296875 -1.753906 0.578125 -1.515625 L 0.265625 -1.859375 C 0.523438 -1.929688 0.773438 -2.023438 1.015625 -2.140625 C 1.265625 -2.265625 1.488281 -2.410156 1.6875 -2.578125 C 1.882812 -2.753906 2.050781 -2.953125 2.1875 -3.171875 C 2.332031 -3.398438 2.4375 -3.660156 2.5 -3.953125 L 0.5625 -3.953125 L 0.5625 -4.375 Z M 5.265625 -2.9375 L 4.515625 -2.9375 L 4.515625 -1.5625 L 4.03125 -1.5625 L 4.03125 -4.625 L 4.515625 -4.625 L 4.515625 -3.359375 L 5.265625 -3.359375 Z M 1.609375 0.34375 L 4.0625 0.34375 L 4.0625 -0.875 L 1.609375 -0.859375 Z M 1.265625 -1.265625 L 4.40625 -1.265625 C 4.457031 -1.265625 4.488281 -1.253906 4.5 -1.234375 C 4.519531 -1.222656 4.53125 -1.191406 4.53125 -1.140625 L 4.53125 0.609375 C 4.53125 0.648438 4.519531 0.679688 4.5 0.703125 C 4.488281 0.722656 4.457031 0.734375 4.40625 0.734375 L 1.265625 0.734375 C 1.210938 0.734375 1.175781 0.722656 1.15625 0.703125 C 1.132812 0.679688 1.125 0.648438 1.125 0.609375 L 1.125 -1.140625 C 1.125 -1.191406 1.132812 -1.222656 1.15625 -1.234375 C 1.175781 -1.253906 1.210938 -1.265625 1.265625 -1.265625 Z M 1.265625 -1.265625 "/>
</g>
<g id="glyph-5-19">
<path d="M 1.59375 -1.9375 C 1.59375 -1.6875 1.5625 -1.429688 1.5 -1.171875 C 1.445312 -0.910156 1.367188 -0.65625 1.265625 -0.40625 C 1.160156 -0.144531 1.03125 0.0976562 0.875 0.328125 C 0.71875 0.566406 0.546875 0.785156 0.359375 0.984375 L 0 0.984375 C 0.351562 0.515625 0.617188 0.0273438 0.796875 -0.46875 C 0.972656 -0.976562 1.0625 -1.46875 1.0625 -1.9375 C 1.0625 -2.414062 0.972656 -2.90625 0.796875 -3.40625 C 0.617188 -3.90625 0.351562 -4.394531 0 -4.875 L 0.359375 -4.875 C 0.546875 -4.664062 0.71875 -4.441406 0.875 -4.203125 C 1.03125 -3.972656 1.160156 -3.734375 1.265625 -3.484375 C 1.367188 -3.222656 1.445312 -2.960938 1.5 -2.703125 C 1.5625 -2.441406 1.59375 -2.1875 1.59375 -1.9375 Z M 1.59375 -1.9375 "/>
</g>
</g>
</defs>
<path fill-rule="nonzero" fill="rgb(90.19928%, 93.299866%, 97.299194%)" fill-opacity="1" stroke-width="1.0959" stroke-linecap="butt" stroke-linejoin="miter" stroke="rgb(27.450562%, 50.979614%, 78.431702%)" stroke-opacity="1" stroke-miterlimit="10" d="M -66.615878 -66.615622 L -66.615878 66.615651 L 66.615395 66.615651 L 66.615395 -66.615622 Z M -66.615878 -66.615622 " transform="matrix(0.996593, 0, 0, -0.996593, 112.978756, 105.751968)"/>
<path fill="none" stroke-width="0.89664" stroke-linecap="butt" stroke-linejoin="miter" stroke="rgb(8.625793%, 21.961975%, 39.216614%)" stroke-opacity="1" stroke-miterlimit="10" d="M -85.265356 -0.00194522 L 83.328588 -0.00194522 " transform="matrix(0.996593, 0, 0, -0.996593, 112.978756, 105.751968)"/>
<path fill-rule="nonzero" fill="rgb(8.625793%, 21.961975%, 39.216614%)" fill-opacity="1" stroke-width="0.89664" stroke-linecap="butt" stroke-linejoin="miter" stroke="rgb(8.625793%, 21.961975%, 39.216614%)" stroke-opacity="1" stroke-miterlimit="10" d="M 6.094032 -0.00194522 L 1.449301 1.757957 L 2.989706 -0.00194522 L 1.449301 -1.757928 Z M 6.094032 -0.00194522 " transform="matrix(0.996593, 0, 0, -0.996593, 193.266574, 105.751968)"/>
<g fill="rgb(8.599854%, 21.998596%, 39.199829%)" fill-opacity="1">
<use xlink:href="#glyph-0-0" x="203.97068" y="107.675392"/>
</g>
<path fill="none" stroke-width="0.89664" stroke-linecap="butt" stroke-linejoin="miter" stroke="rgb(8.625793%, 21.961975%, 39.216614%)" stroke-opacity="1" stroke-miterlimit="10" d="M 0.00171819 -85.269019 L 0.00171819 83.324925 " transform="matrix(0.996593, 0, 0, -0.996593, 112.978756, 105.751968)"/>
<path fill-rule="nonzero" fill="rgb(8.625793%, 21.961975%, 39.216614%)" fill-opacity="1" stroke-width="0.89664" stroke-linecap="butt" stroke-linejoin="miter" stroke="rgb(8.625793%, 21.961975%, 39.216614%)" stroke-opacity="1" stroke-miterlimit="10" d="M 6.094289 -0.00171819 L 1.449557 1.758184 L 2.989962 -0.00171819 L 1.449557 -1.757701 Z M 6.094289 -0.00171819 " transform="matrix(0, -0.996593, -0.996593, 0, 112.978756, 25.46415)"/>
<g fill="rgb(8.599854%, 21.998596%, 39.199829%)" fill-opacity="1">
<use xlink:href="#glyph-0-1" x="110.557036" y="13.022983"/>
</g>
<path fill="none" stroke-width="0.59776" stroke-linecap="butt" stroke-linejoin="miter" stroke="rgb(49.699402%, 57.099915%, 66.598511%)" stroke-opacity="1" stroke-miterlimit="10" d="M -66.615878 2.663386 L -66.615878 -2.663357 " transform="matrix(0.996593, 0, 0, -0.996593, 112.978756, 105.751968)"/>
<path fill="none" stroke-width="0.59776" stroke-linecap="butt" stroke-linejoin="miter" stroke="rgb(49.699402%, 57.099915%, 66.598511%)" stroke-opacity="1" stroke-miterlimit="10" d="M 2.66313 -66.615622 L -2.663613 -66.615622 " transform="matrix(0.996593, 0, 0, -0.996593, 112.978756, 105.751968)"/>
<path fill="none" stroke-width="0.59776" stroke-linecap="butt" stroke-linejoin="miter" stroke="rgb(49.699402%, 57.099915%, 66.598511%)" stroke-opacity="1" stroke-miterlimit="10" d="M 66.615395 2.663386 L 66.615395 -2.663357 " transform="matrix(0.996593, 0, 0, -0.996593, 112.978756, 105.751968)"/>
<path fill="none" stroke-width="0.59776" stroke-linecap="butt" stroke-linejoin="miter" stroke="rgb(49.699402%, 57.099915%, 66.598511%)" stroke-opacity="1" stroke-miterlimit="10" d="M 2.66313 66.615651 L -2.663613 66.615651 " transform="matrix(0.996593, 0, 0, -0.996593, 112.978756, 105.751968)"/>
<path fill-rule="nonzero" fill="rgb(8.599854%, 21.998596%, 39.199829%)" fill-opacity="1" d="M 49.625 39.363281 C 49.625 37.6875 48.265625 36.332031 46.589844 36.332031 C 44.914062 36.332031 43.558594 37.6875 43.558594 39.363281 C 43.558594 41.039062 44.914062 42.398438 46.589844 42.398438 C 48.265625 42.398438 49.625 41.039062 49.625 39.363281 Z M 49.625 39.363281 "/>
<g fill="rgb(21.598816%, 25.498962%, 31.399536%)" fill-opacity="1">
<use xlink:href="#glyph-1-0" x="15.432241" y="33.564756"/>
</g>
<g fill="rgb(21.598816%, 25.498962%, 31.399536%)" fill-opacity="1">
<use xlink:href="#glyph-2-0" x="18.715018" y="33.564756"/>
</g>
<g fill="rgb(21.598816%, 25.498962%, 31.399536%)" fill-opacity="1">
<use xlink:href="#glyph-1-1" x="25.278579" y="33.564756"/>
</g>
<g fill="rgb(21.598816%, 25.498962%, 31.399536%)" fill-opacity="1">
<use xlink:href="#glyph-3-0" x="29.498154" y="33.564756"/>
</g>
<g fill="rgb(21.598816%, 25.498962%, 31.399536%)" fill-opacity="1">
<use xlink:href="#glyph-1-1" x="35.2764" y="33.564756"/>
<use xlink:href="#glyph-1-2" x="39.494104" y="33.564756"/>
</g>
<path fill-rule="nonzero" fill="rgb(8.599854%, 21.998596%, 39.199829%)" fill-opacity="1" d="M 182.398438 39.363281 C 182.398438 37.6875 181.042969 36.332031 179.367188 36.332031 C 177.691406 36.332031 176.332031 37.6875 176.332031 39.363281 C 176.332031 41.039062 177.691406 42.398438 179.367188 42.398438 C 181.042969 42.398438 182.398438 41.039062 182.398438 39.363281 Z M 182.398438 39.363281 "/>
<g fill="rgb(21.598816%, 25.498962%, 31.399536%)" fill-opacity="1">
<use xlink:href="#glyph-1-0" x="183.179758" y="33.564756"/>
<use xlink:href="#glyph-1-1" x="186.460195" y="33.564756"/>
</g>
<g fill="rgb(21.598816%, 25.498962%, 31.399536%)" fill-opacity="1">
<use xlink:href="#glyph-3-0" x="190.68211" y="33.564756"/>
</g>
<g fill="rgb(21.598816%, 25.498962%, 31.399536%)" fill-opacity="1">
<use xlink:href="#glyph-1-1" x="196.459359" y="33.564756"/>
<use xlink:href="#glyph-1-2" x="200.677063" y="33.564756"/>
</g>
<path fill-rule="nonzero" fill="rgb(8.599854%, 21.998596%, 39.199829%)" fill-opacity="1" d="M 49.625 172.140625 C 49.625 170.464844 48.265625 169.105469 46.589844 169.105469 C 44.914062 169.105469 43.558594 170.464844 43.558594 172.140625 C 43.558594 173.816406 44.914062 175.171875 46.589844 175.171875 C 48.265625 175.171875 49.625 173.816406 49.625 172.140625 Z M 49.625 172.140625 "/>
<g fill="rgb(21.598816%, 25.498962%, 31.399536%)" fill-opacity="1">
<use xlink:href="#glyph-1-0" x="8.867684" y="181.910602"/>
</g>
<g fill="rgb(21.598816%, 25.498962%, 31.399536%)" fill-opacity="1">
<use xlink:href="#glyph-2-0" x="12.150461" y="181.910602"/>
</g>
<g fill="rgb(21.598816%, 25.498962%, 31.399536%)" fill-opacity="1">
<use xlink:href="#glyph-1-1" x="18.714022" y="181.910602"/>
</g>
<g fill="rgb(21.598816%, 25.498962%, 31.399536%)" fill-opacity="1">
<use xlink:href="#glyph-3-0" x="22.933596" y="181.910602"/>
</g>
<g fill="rgb(21.598816%, 25.498962%, 31.399536%)" fill-opacity="1">
<use xlink:href="#glyph-2-0" x="28.711842" y="181.910602"/>
</g>
<g fill="rgb(21.598816%, 25.498962%, 31.399536%)" fill-opacity="1">
<use xlink:href="#glyph-1-1" x="35.275403" y="181.910602"/>
<use xlink:href="#glyph-1-2" x="39.493107" y="181.910602"/>
</g>
<path fill-rule="nonzero" fill="rgb(8.599854%, 21.998596%, 39.199829%)" fill-opacity="1" d="M 182.398438 172.140625 C 182.398438 170.464844 181.042969 169.105469 179.367188 169.105469 C 177.691406 169.105469 176.332031 170.464844 176.332031 172.140625 C 176.332031 173.816406 177.691406 175.171875 179.367188 175.171875 C 181.042969 175.171875 182.398438 173.816406 182.398438 172.140625 Z M 182.398438 172.140625 "/>
<g fill="rgb(21.598816%, 25.498962%, 31.399536%)" fill-opacity="1">
<use xlink:href="#glyph-1-0" x="183.179758" y="181.910602"/>
<use xlink:href="#glyph-1-1" x="186.460195" y="181.910602"/>
</g>
<g fill="rgb(21.598816%, 25.498962%, 31.399536%)" fill-opacity="1">
<use xlink:href="#glyph-3-0" x="190.68211" y="181.910602"/>
</g>
<g fill="rgb(21.598816%, 25.498962%, 31.399536%)" fill-opacity="1">
<use xlink:href="#glyph-2-0" x="196.459359" y="181.910602"/>
</g>
<g fill="rgb(21.598816%, 25.498962%, 31.399536%)" fill-opacity="1">
<use xlink:href="#glyph-1-1" x="203.023917" y="181.910602"/>
<use xlink:href="#glyph-1-2" x="207.24162" y="181.910602"/>
</g>
<path fill-rule="nonzero" fill="rgb(78.399658%, 41.19873%, 19.599915%)" fill-opacity="1" d="M 116.710938 105.753906 C 116.710938 103.691406 115.039062 102.019531 112.980469 102.019531 C 110.917969 102.019531 109.246094 103.691406 109.246094 105.753906 C 109.246094 107.8125 110.917969 109.484375 112.980469 109.484375 C 115.039062 109.484375 116.710938 107.8125 116.710938 105.753906 Z M 116.710938 105.753906 "/>
<g fill="rgb(78.399658%, 41.19873%, 19.599915%)" fill-opacity="1">
<use xlink:href="#glyph-1-0" x="88.093831" y="114.819967"/>
<use xlink:href="#glyph-1-3" x="91.374268" y="114.819967"/>
</g>
<g fill="rgb(78.399658%, 41.19873%, 19.599915%)" fill-opacity="1">
<use xlink:href="#glyph-3-0" x="95.596183" y="114.819967"/>
</g>
<g fill="rgb(78.399658%, 41.19873%, 19.599915%)" fill-opacity="1">
<use xlink:href="#glyph-1-3" x="101.373432" y="114.819967"/>
<use xlink:href="#glyph-1-2" x="105.591136" y="114.819967"/>
</g>
<g fill="rgb(37.298584%, 41.19873%, 47.099304%)" fill-opacity="1">
<use xlink:href="#glyph-4-0" x="48.412491" y="191.096199"/>
<use xlink:href="#glyph-4-1" x="54.5076" y="191.096199"/>
<use xlink:href="#glyph-4-2" x="60.602709" y="191.096199"/>
</g>
<g fill="rgb(37.298584%, 41.19873%, 47.099304%)" fill-opacity="1">
<use xlink:href="#glyph-4-3" x="68.724861" y="191.096199"/>
<use xlink:href="#glyph-4-4" x="74.81997" y="191.096199"/>
</g>
<g fill="rgb(37.298584%, 41.19873%, 47.099304%)" fill-opacity="1">
<use xlink:href="#glyph-4-5" x="82.942121" y="191.096199"/>
</g>
<g fill="rgb(37.298584%, 41.19873%, 47.099304%)" fill-opacity="1">
<use xlink:href="#glyph-4-6" x="89.093149" y="191.096199"/>
<use xlink:href="#glyph-4-7" x="95.188258" y="191.096199"/>
</g>
<g fill="rgb(37.298584%, 41.19873%, 47.099304%)" fill-opacity="1">
<use xlink:href="#glyph-4-8" x="103.31041" y="191.096199"/>
<use xlink:href="#glyph-4-9" x="109.405519" y="191.096199"/>
</g>
<g fill="rgb(37.298584%, 41.19873%, 47.099304%)" fill-opacity="1">
<use xlink:href="#glyph-1-4" x="117.528203" y="191.096199"/>
</g>
<g fill="rgb(37.298584%, 41.19873%, 47.099304%)" fill-opacity="1">
<use xlink:href="#glyph-2-0" x="119.87219" y="191.096199"/>
</g>
<g fill="rgb(37.298584%, 41.19873%, 47.099304%)" fill-opacity="1">
<use xlink:href="#glyph-1-1" x="126.436747" y="191.096199"/>
</g>
<g fill="rgb(37.298584%, 41.19873%, 47.099304%)" fill-opacity="1">
<use xlink:href="#glyph-3-0" x="130.656322" y="191.096199"/>
</g>
<g fill="rgb(37.298584%, 41.19873%, 47.099304%)" fill-opacity="1">
<use xlink:href="#glyph-1-1" x="135.81369" y="191.096199"/>
<use xlink:href="#glyph-1-5" x="140.031394" y="191.096199"/>
</g>
<g fill="rgb(37.298584%, 41.19873%, 47.099304%)" fill-opacity="1">
<use xlink:href="#glyph-2-1" x="144.253835" y="191.096199"/>
</g>
<g fill="rgb(37.298584%, 41.19873%, 47.099304%)" fill-opacity="1">
<use xlink:href="#glyph-1-4" x="152.692984" y="191.096199"/>
</g>
<g fill="rgb(37.298584%, 41.19873%, 47.099304%)" fill-opacity="1">
<use xlink:href="#glyph-2-0" x="155.036971" y="191.096199"/>
</g>
<g fill="rgb(37.298584%, 41.19873%, 47.099304%)" fill-opacity="1">
<use xlink:href="#glyph-1-1" x="161.601528" y="191.096199"/>
</g>
<g fill="rgb(37.298584%, 41.19873%, 47.099304%)" fill-opacity="1">
<use xlink:href="#glyph-3-0" x="165.821103" y="191.096199"/>
</g>
<g fill="rgb(37.298584%, 41.19873%, 47.099304%)" fill-opacity="1">
<use xlink:href="#glyph-1-1" x="170.978471" y="191.096199"/>
<use xlink:href="#glyph-1-5" x="175.196175" y="191.096199"/>
</g>
<g fill="rgb(37.298584%, 41.19873%, 47.099304%)" fill-opacity="1">
<use xlink:href="#glyph-5-0" x="58.623582" y="200.527954"/>
<use xlink:href="#glyph-5-1" x="60.51957" y="200.527954"/>
<use xlink:href="#glyph-5-2" x="65.852801" y="200.527954"/>
</g>
<g fill="rgb(37.298584%, 41.19873%, 47.099304%)" fill-opacity="1">
<use xlink:href="#glyph-5-3" x="72.959699" y="200.527954"/>
<use xlink:href="#glyph-5-4" x="78.29293" y="200.527954"/>
<use xlink:href="#glyph-5-5" x="83.626161" y="200.527954"/>
</g>
<g fill="rgb(37.298584%, 41.19873%, 47.099304%)" fill-opacity="1">
<use xlink:href="#glyph-5-6" x="90.733058" y="200.527954"/>
<use xlink:href="#glyph-5-7" x="96.06629" y="200.527954"/>
<use xlink:href="#glyph-5-8" x="101.399521" y="200.527954"/>
</g>
<g fill="rgb(37.298584%, 41.19873%, 47.099304%)" fill-opacity="1">
<use xlink:href="#glyph-5-9" x="105.008014" y="200.527954"/>
<use xlink:href="#glyph-5-10" x="110.341245" y="200.527954"/>
</g>
<g fill="rgb(37.298584%, 41.19873%, 47.099304%)" fill-opacity="1">
<use xlink:href="#glyph-5-11" x="117.448143" y="200.527954"/>
</g>
<g fill="rgb(37.298584%, 41.19873%, 47.099304%)" fill-opacity="1">
<use xlink:href="#glyph-5-12" x="124.55504" y="200.527954"/>
<use xlink:href="#glyph-5-13" x="129.888271" y="200.527954"/>
<use xlink:href="#glyph-5-14" x="135.221503" y="200.527954"/>
</g>
<g fill="rgb(37.298584%, 41.19873%, 47.099304%)" fill-opacity="1">
<use xlink:href="#glyph-5-15" x="142.3284" y="200.527954"/>
<use xlink:href="#glyph-5-16" x="147.661631" y="200.527954"/>
</g>
<g fill="rgb(37.298584%, 41.19873%, 47.099304%)" fill-opacity="1">
<use xlink:href="#glyph-5-17" x="154.768529" y="200.527954"/>
<use xlink:href="#glyph-5-18" x="160.10176" y="200.527954"/>
<use xlink:href="#glyph-5-19" x="165.434991" y="200.527954"/>
</g>
</svg>
