<?xml version="1.0" encoding="UTF-8"?>
<svg xmlns="http://www.w3.org/2000/svg" xmlns:xlink="http://www.w3.org/1999/xlink" width="339.69pt" height="153.27pt" viewBox="0 0 339.69 153.27">
<defs>
<g>
<g id="glyph-0-0">
<path d="M 0.9375 -3.390625 L 0.9375 -4.140625 C 0.9375 -4.472656 0.972656 -4.757812 1.046875 -5 C 1.117188 -5.238281 1.222656 -5.429688 1.359375 -5.578125 C 1.484375 -5.722656 1.628906 -5.828125 1.796875 -5.890625 C 1.960938 -5.960938 2.128906 -6 2.296875 -6 C 2.503906 -6 2.6875 -5.945312 2.84375 -5.84375 C 3 -5.75 3.078125 -5.644531 3.078125 -5.53125 C 3.078125 -5.4375 3.039062 -5.363281 2.96875 -5.3125 C 2.90625 -5.269531 2.84375 -5.25 2.78125 -5.25 C 2.726562 -5.25 2.671875 -5.257812 2.609375 -5.28125 C 2.546875 -5.3125 2.503906 -5.359375 2.484375 -5.421875 C 2.453125 -5.503906 2.410156 -5.570312 2.359375 -5.625 C 2.304688 -5.675781 2.21875 -5.703125 2.09375 -5.703125 C 1.914062 -5.703125 1.773438 -5.613281 1.671875 -5.4375 C 1.578125 -5.257812 1.53125 -4.992188 1.53125 -4.640625 L 1.53125 -3.5 C 1.53125 -3.425781 1.539062 -3.378906 1.5625 -3.359375 C 1.582031 -3.335938 1.632812 -3.328125 1.71875 -3.328125 L 2.453125 -3.328125 C 2.492188 -3.328125 2.523438 -3.3125 2.546875 -3.28125 C 2.578125 -3.257812 2.59375 -3.210938 2.59375 -3.140625 C 2.59375 -3.066406 2.578125 -3.015625 2.546875 -2.984375 C 2.515625 -2.960938 2.484375 -2.953125 2.453125 -2.953125 L 1.734375 -2.953125 C 1.648438 -2.953125 1.597656 -2.941406 1.578125 -2.921875 C 1.554688 -2.898438 1.546875 -2.851562 1.546875 -2.78125 L 1.546875 -0.265625 C 1.546875 -0.140625 1.554688 -0.0507812 1.578125 0 C 1.609375 0.0625 1.65625 0.101562 1.71875 0.125 C 1.757812 0.132812 1.8125 0.144531 1.875 0.15625 C 1.945312 0.175781 2.015625 0.1875 2.078125 0.1875 C 2.117188 0.1875 2.148438 0.195312 2.171875 0.21875 C 2.191406 0.238281 2.203125 0.273438 2.203125 0.328125 C 2.203125 0.378906 2.1875 0.410156 2.15625 0.421875 C 2.125 0.429688 2.09375 0.4375 2.0625 0.4375 C 2.039062 0.4375 1.992188 0.4375 1.921875 0.4375 C 1.847656 0.4375 1.765625 0.4375 1.671875 0.4375 C 1.578125 0.4375 1.488281 0.429688 1.40625 0.421875 C 1.320312 0.421875 1.269531 0.421875 1.25 0.421875 C 1.21875 0.421875 1.160156 0.421875 1.078125 0.421875 C 0.992188 0.429688 0.90625 0.4375 0.8125 0.4375 C 0.726562 0.4375 0.648438 0.4375 0.578125 0.4375 C 0.503906 0.4375 0.457031 0.4375 0.4375 0.4375 C 0.394531 0.4375 0.359375 0.429688 0.328125 0.421875 C 0.304688 0.410156 0.296875 0.378906 0.296875 0.328125 C 0.296875 0.273438 0.304688 0.238281 0.328125 0.21875 C 0.347656 0.195312 0.378906 0.1875 0.421875 0.1875 C 0.472656 0.1875 0.53125 0.175781 0.59375 0.15625 C 0.664062 0.144531 0.726562 0.132812 0.78125 0.125 C 0.84375 0.101562 0.882812 0.0625 0.90625 0 C 0.9375 -0.0507812 0.953125 -0.140625 0.953125 -0.265625 L 0.953125 -2.78125 C 0.953125 -2.851562 0.941406 -2.898438 0.921875 -2.921875 C 0.898438 -2.941406 0.847656 -2.953125 0.765625 -2.953125 L 0.53125 -2.953125 C 0.488281 -2.941406 0.457031 -2.941406 0.4375 -2.953125 C 0.414062 -2.960938 0.398438 -2.988281 0.390625 -3.03125 C 0.390625 -3.050781 0.390625 -3.066406 0.390625 -3.078125 C 0.390625 -3.097656 0.394531 -3.113281 0.40625 -3.125 C 0.414062 -3.132812 0.425781 -3.140625 0.4375 -3.140625 C 0.445312 -3.140625 0.46875 -3.144531 0.5 -3.15625 C 0.53125 -3.164062 0.5625 -3.175781 0.59375 -3.1875 C 0.625 -3.195312 0.65625 -3.207031 0.6875 -3.21875 C 0.71875 -3.238281 0.75 -3.253906 0.78125 -3.265625 C 0.8125 -3.285156 0.84375 -3.300781 0.875 -3.3125 C 0.894531 -3.320312 0.90625 -3.332031 0.90625 -3.34375 C 0.914062 -3.351562 0.925781 -3.367188 0.9375 -3.390625 Z M 0.9375 -3.390625 "/>
</g>
<g id="glyph-0-1">
<path d="M 2.15625 0.484375 C 1.769531 0.484375 1.460938 0.394531 1.234375 0.21875 C 1.003906 0.0390625 0.890625 -0.242188 0.890625 -0.640625 L 0.890625 -2.796875 C 0.890625 -2.847656 0.875 -2.890625 0.84375 -2.921875 C 0.8125 -2.953125 0.769531 -2.976562 0.71875 -3 C 0.675781 -3.019531 0.625 -3.035156 0.5625 -3.046875 C 0.507812 -3.054688 0.457031 -3.066406 0.40625 -3.078125 C 0.382812 -3.078125 0.363281 -3.078125 0.34375 -3.078125 C 0.332031 -3.085938 0.320312 -3.097656 0.3125 -3.109375 C 0.300781 -3.117188 0.289062 -3.128906 0.28125 -3.140625 C 0.28125 -3.148438 0.28125 -3.164062 0.28125 -3.1875 C 0.28125 -3.238281 0.285156 -3.269531 0.296875 -3.28125 C 0.316406 -3.300781 0.347656 -3.3125 0.390625 -3.3125 C 0.546875 -3.320312 0.707031 -3.34375 0.875 -3.375 C 1.050781 -3.40625 1.207031 -3.441406 1.34375 -3.484375 C 1.40625 -3.492188 1.445312 -3.488281 1.46875 -3.46875 C 1.5 -3.457031 1.515625 -3.425781 1.515625 -3.375 C 1.492188 -3.289062 1.484375 -3.1875 1.484375 -3.0625 C 1.484375 -2.9375 1.484375 -2.832031 1.484375 -2.75 L 1.484375 -0.78125 C 1.484375 -0.476562 1.5625 -0.269531 1.71875 -0.15625 C 1.875 -0.0390625 2.085938 0.015625 2.359375 0.015625 C 2.597656 0.015625 2.804688 -0.0507812 2.984375 -0.1875 C 3.160156 -0.320312 3.285156 -0.460938 3.359375 -0.609375 C 3.378906 -0.640625 3.394531 -0.679688 3.40625 -0.734375 C 3.414062 -0.796875 3.421875 -0.851562 3.421875 -0.90625 L 3.421875 -2.796875 C 3.421875 -2.847656 3.40625 -2.890625 3.375 -2.921875 C 3.34375 -2.953125 3.300781 -2.976562 3.25 -3 C 3.207031 -3.019531 3.15625 -3.035156 3.09375 -3.046875 C 3.039062 -3.054688 2.992188 -3.066406 2.953125 -3.078125 C 2.929688 -3.078125 2.910156 -3.078125 2.890625 -3.078125 C 2.878906 -3.085938 2.863281 -3.097656 2.84375 -3.109375 C 2.832031 -3.117188 2.820312 -3.128906 2.8125 -3.140625 C 2.8125 -3.148438 2.8125 -3.164062 2.8125 -3.1875 C 2.8125 -3.238281 2.816406 -3.269531 2.828125 -3.28125 C 2.847656 -3.300781 2.882812 -3.3125 2.9375 -3.3125 C 3.082031 -3.320312 3.242188 -3.34375 3.421875 -3.375 C 3.597656 -3.40625 3.753906 -3.441406 3.890625 -3.484375 C 3.941406 -3.492188 3.976562 -3.488281 4 -3.46875 C 4.03125 -3.457031 4.046875 -3.425781 4.046875 -3.375 C 4.023438 -3.289062 4.015625 -3.179688 4.015625 -3.046875 C 4.015625 -2.910156 4.015625 -2.804688 4.015625 -2.734375 L 4.015625 -0.34375 C 4.015625 -0.257812 4.019531 -0.195312 4.03125 -0.15625 C 4.050781 -0.113281 4.082031 -0.0820312 4.125 -0.0625 C 4.175781 -0.03125 4.234375 -0.0078125 4.296875 0 C 4.359375 0.0078125 4.429688 0.00390625 4.515625 -0.015625 C 4.546875 -0.015625 4.570312 -0.0078125 4.59375 0 C 4.613281 0 4.628906 0.015625 4.640625 0.046875 C 4.648438 0.078125 4.648438 0.109375 4.640625 0.140625 C 4.640625 0.171875 4.617188 0.191406 4.578125 0.203125 C 4.398438 0.242188 4.226562 0.285156 4.0625 0.328125 C 3.894531 0.378906 3.726562 0.4375 3.5625 0.5 C 3.5 0.519531 3.453125 0.519531 3.421875 0.5 C 3.398438 0.488281 3.390625 0.453125 3.390625 0.390625 L 3.390625 0 C 3.390625 -0.0507812 3.375 -0.078125 3.34375 -0.078125 C 3.320312 -0.0859375 3.296875 -0.078125 3.265625 -0.046875 C 3.160156 0.078125 3.007812 0.195312 2.8125 0.3125 C 2.613281 0.425781 2.394531 0.484375 2.15625 0.484375 Z M 2.15625 0.484375 "/>
</g>
<g id="glyph-0-2">
<path d="M 1.5 -2.296875 L 1.5 -0.234375 C 1.5 -0.128906 1.507812 -0.0507812 1.53125 0 C 1.5625 0.0507812 1.609375 0.0859375 1.671875 0.109375 C 1.722656 0.128906 1.785156 0.144531 1.859375 0.15625 C 1.941406 0.164062 2.015625 0.175781 2.078125 0.1875 C 2.117188 0.1875 2.148438 0.195312 2.171875 0.21875 C 2.191406 0.238281 2.203125 0.273438 2.203125 0.328125 C 2.203125 0.378906 2.1875 0.410156 2.15625 0.421875 C 2.132812 0.429688 2.101562 0.4375 2.0625 0.4375 C 2.039062 0.4375 1.988281 0.4375 1.90625 0.4375 C 1.832031 0.4375 1.75 0.4375 1.65625 0.4375 C 1.550781 0.4375 1.453125 0.429688 1.359375 0.421875 C 1.273438 0.421875 1.21875 0.421875 1.1875 0.421875 C 1.15625 0.421875 1.097656 0.421875 1.015625 0.421875 C 0.941406 0.429688 0.863281 0.4375 0.78125 0.4375 C 0.695312 0.4375 0.617188 0.4375 0.546875 0.4375 C 0.472656 0.4375 0.425781 0.4375 0.40625 0.4375 C 0.363281 0.4375 0.328125 0.429688 0.296875 0.421875 C 0.273438 0.410156 0.265625 0.378906 0.265625 0.328125 C 0.265625 0.273438 0.273438 0.238281 0.296875 0.21875 C 0.316406 0.195312 0.347656 0.1875 0.390625 0.1875 C 0.441406 0.1875 0.503906 0.175781 0.578125 0.15625 C 0.648438 0.144531 0.710938 0.128906 0.765625 0.109375 C 0.816406 0.0976562 0.851562 0.0625 0.875 0 C 0.894531 -0.0625 0.90625 -0.140625 0.90625 -0.234375 L 0.90625 -2.578125 C 0.90625 -2.628906 0.894531 -2.671875 0.875 -2.703125 C 0.851562 -2.734375 0.820312 -2.757812 0.78125 -2.78125 C 0.75 -2.800781 0.707031 -2.816406 0.65625 -2.828125 C 0.613281 -2.835938 0.570312 -2.847656 0.53125 -2.859375 C 0.507812 -2.859375 0.488281 -2.859375 0.46875 -2.859375 C 0.457031 -2.867188 0.441406 -2.878906 0.421875 -2.890625 C 0.410156 -2.890625 0.398438 -2.894531 0.390625 -2.90625 C 0.390625 -2.925781 0.390625 -2.945312 0.390625 -2.96875 C 0.390625 -3.019531 0.394531 -3.050781 0.40625 -3.0625 C 0.425781 -3.070312 0.460938 -3.082031 0.515625 -3.09375 C 0.660156 -3.125 0.800781 -3.164062 0.9375 -3.21875 C 1.082031 -3.269531 1.226562 -3.335938 1.375 -3.421875 C 1.414062 -3.453125 1.457031 -3.457031 1.5 -3.4375 C 1.539062 -3.425781 1.5625 -3.390625 1.5625 -3.328125 C 1.550781 -3.296875 1.546875 -3.265625 1.546875 -3.234375 C 1.546875 -3.210938 1.546875 -3.1875 1.546875 -3.15625 C 1.546875 -3.125 1.539062 -3.09375 1.53125 -3.0625 C 1.53125 -3.039062 1.53125 -3.015625 1.53125 -2.984375 C 1.53125 -2.941406 1.539062 -2.921875 1.5625 -2.921875 C 1.582031 -2.921875 1.613281 -2.9375 1.65625 -2.96875 C 1.769531 -3.0625 1.914062 -3.164062 2.09375 -3.28125 C 2.269531 -3.394531 2.453125 -3.453125 2.640625 -3.453125 C 2.773438 -3.453125 2.890625 -3.410156 2.984375 -3.328125 C 3.078125 -3.242188 3.125 -3.140625 3.125 -3.015625 C 3.125 -2.898438 3.078125 -2.796875 2.984375 -2.703125 C 2.898438 -2.617188 2.789062 -2.578125 2.65625 -2.578125 C 2.582031 -2.578125 2.519531 -2.585938 2.46875 -2.609375 C 2.414062 -2.640625 2.375 -2.671875 2.34375 -2.703125 C 2.28125 -2.742188 2.21875 -2.773438 2.15625 -2.796875 C 2.09375 -2.816406 2.019531 -2.828125 1.9375 -2.828125 C 1.789062 -2.804688 1.679688 -2.742188 1.609375 -2.640625 C 1.535156 -2.535156 1.5 -2.421875 1.5 -2.296875 Z M 1.5 -2.296875 "/>
</g>
<g id="glyph-1-0">
<path d="M 0.46875 -2.5 C 0.46875 -2.820312 0.5 -3.148438 0.5625 -3.484375 C 0.632812 -3.816406 0.738281 -4.148438 0.875 -4.484375 C 1.019531 -4.804688 1.191406 -5.117188 1.390625 -5.421875 C 1.585938 -5.722656 1.8125 -6.003906 2.0625 -6.265625 L 2.53125 -6.265625 C 2.0625 -5.660156 1.710938 -5.03125 1.484375 -4.375 C 1.265625 -3.726562 1.15625 -3.101562 1.15625 -2.5 C 1.15625 -1.882812 1.265625 -1.253906 1.484375 -0.609375 C 1.710938 0.0351562 2.0625 0.660156 2.53125 1.265625 L 2.0625 1.265625 C 1.8125 1.015625 1.585938 0.734375 1.390625 0.421875 C 1.191406 0.117188 1.019531 -0.191406 0.875 -0.515625 C 0.738281 -0.835938 0.632812 -1.164062 0.5625 -1.5 C 0.5 -1.84375 0.46875 -2.175781 0.46875 -2.5 Z M 0.46875 -2.5 "/>
</g>
<g id="glyph-1-1">
<path d="M 0.078125 -0.78125 C 0.710938 -1.175781 1.203125 -1.679688 1.546875 -2.296875 C 1.890625 -2.921875 2.0625 -3.613281 2.0625 -4.375 L 2.0625 -5.65625 L 2.71875 -5.65625 L 2.71875 -4.296875 C 2.71875 -3.554688 2.867188 -2.921875 3.171875 -2.390625 C 3.472656 -1.867188 3.957031 -1.398438 4.625 -0.984375 L 4.171875 -0.546875 C 3.796875 -0.796875 3.445312 -1.101562 3.125 -1.46875 C 2.800781 -1.832031 2.550781 -2.25 2.375 -2.71875 C 2.226562 -2.226562 1.988281 -1.78125 1.65625 -1.375 C 1.320312 -0.976562 0.96875 -0.640625 0.59375 -0.359375 Z M 6.046875 -5.9375 L 6.046875 1.015625 L 5.421875 1.015625 L 5.421875 -5.9375 Z M 6.046875 -5.9375 "/>
</g>
<g id="glyph-1-2">
<path d="M 4.125 -2.0625 C 3.96875 -2.125 3.804688 -2.207031 3.640625 -2.3125 C 3.484375 -2.414062 3.328125 -2.535156 3.171875 -2.671875 C 3.015625 -2.796875 2.863281 -2.9375 2.71875 -3.09375 C 2.582031 -3.257812 2.472656 -3.4375 2.390625 -3.625 C 2.316406 -3.425781 2.21875 -3.238281 2.09375 -3.0625 C 1.96875 -2.894531 1.828125 -2.734375 1.671875 -2.578125 C 1.515625 -2.429688 1.347656 -2.296875 1.171875 -2.171875 C 0.992188 -2.054688 0.820312 -1.953125 0.65625 -1.859375 L 0.171875 -2.28125 C 0.429688 -2.40625 0.671875 -2.550781 0.890625 -2.71875 C 1.117188 -2.882812 1.320312 -3.070312 1.5 -3.28125 C 1.664062 -3.488281 1.800781 -3.722656 1.90625 -3.984375 C 2.007812 -4.242188 2.0625 -4.53125 2.0625 -4.84375 L 2.0625 -5.765625 L 2.703125 -5.765625 L 2.703125 -4.890625 C 2.703125 -4.597656 2.753906 -4.328125 2.859375 -4.078125 C 2.960938 -3.828125 3.097656 -3.601562 3.265625 -3.40625 C 3.429688 -3.207031 3.625 -3.035156 3.84375 -2.890625 C 4.070312 -2.742188 4.300781 -2.628906 4.53125 -2.546875 Z M 3.90625 -4.5625 L 5.4375 -4.5625 L 5.4375 -5.9375 L 6.046875 -5.9375 L 6.046875 -0.84375 L 5.4375 -0.84375 L 5.4375 -4.015625 L 3.90625 -4.015625 Z M 1.703125 0.875 C 1.640625 0.875 1.597656 0.863281 1.578125 0.84375 C 1.554688 0.820312 1.546875 0.78125 1.546875 0.71875 L 1.546875 -1.34375 L 2.171875 -1.34375 L 2.171875 0.34375 L 6.25 0.34375 L 6.25 0.875 Z M 1.703125 0.875 "/>
</g>
<g id="glyph-1-3">
<path d="M 1.25 -2.859375 L 3.203125 -2.859375 L 3.203125 -4.0625 L 1.25 -4.0625 Z M 0.640625 -2.484375 L 0.640625 -5.703125 L 1.25 -5.703125 L 1.25 -4.59375 L 3.203125 -4.59375 L 3.203125 -5.703125 L 3.796875 -5.703125 L 3.796875 -2.484375 C 3.796875 -2.421875 3.785156 -2.378906 3.765625 -2.359375 C 3.742188 -2.335938 3.703125 -2.328125 3.640625 -2.328125 L 0.8125 -2.328125 C 0.75 -2.328125 0.703125 -2.335938 0.671875 -2.359375 C 0.648438 -2.378906 0.640625 -2.421875 0.640625 -2.484375 Z M 6.765625 -3.84375 L 5.796875 -3.84375 L 5.796875 -1.640625 L 5.171875 -1.640625 L 5.171875 -5.9375 L 5.796875 -5.9375 L 5.796875 -4.390625 L 6.765625 -4.390625 Z M 3.59375 1.15625 C 2.875 1.15625 2.296875 1.03125 1.859375 0.78125 C 1.429688 0.53125 1.21875 0.183594 1.21875 -0.25 C 1.21875 -0.457031 1.273438 -0.644531 1.390625 -0.8125 C 1.503906 -0.988281 1.664062 -1.140625 1.875 -1.265625 C 2.082031 -1.390625 2.332031 -1.484375 2.625 -1.546875 C 2.914062 -1.617188 3.238281 -1.65625 3.59375 -1.65625 C 4.3125 -1.65625 4.882812 -1.523438 5.3125 -1.265625 C 5.75 -1.003906 5.96875 -0.664062 5.96875 -0.25 C 5.96875 0.183594 5.75 0.53125 5.3125 0.78125 C 4.882812 1.03125 4.3125 1.15625 3.59375 1.15625 Z M 1.890625 -0.25 C 1.890625 -0.101562 1.929688 0.0234375 2.015625 0.140625 C 2.097656 0.253906 2.21875 0.347656 2.375 0.421875 C 2.53125 0.503906 2.710938 0.566406 2.921875 0.609375 C 3.128906 0.648438 3.351562 0.671875 3.59375 0.671875 C 3.84375 0.671875 4.070312 0.648438 4.28125 0.609375 C 4.488281 0.566406 4.671875 0.507812 4.828125 0.4375 C 4.972656 0.351562 5.09375 0.253906 5.1875 0.140625 C 5.28125 0.0234375 5.328125 -0.0976562 5.328125 -0.234375 C 5.328125 -0.515625 5.160156 -0.734375 4.828125 -0.890625 C 4.503906 -1.054688 4.09375 -1.140625 3.59375 -1.140625 C 3.351562 -1.140625 3.128906 -1.117188 2.921875 -1.078125 C 2.710938 -1.035156 2.53125 -0.976562 2.375 -0.90625 C 2.21875 -0.820312 2.097656 -0.722656 2.015625 -0.609375 C 1.929688 -0.503906 1.890625 -0.382812 1.890625 -0.25 Z M 1.890625 -0.25 "/>
</g>
<g id="glyph-1-4">
<path d="M 0.390625 -5.046875 L 4.390625 -5.046875 L 4.390625 -4.5625 L 0.390625 -4.5625 Z M 3.40625 -5.46875 L 1.34375 -5.46875 L 1.34375 -5.953125 L 3.40625 -5.953125 Z M 2.390625 -4.203125 C 2.898438 -4.203125 3.316406 -4.097656 3.640625 -3.890625 C 3.960938 -3.679688 4.125 -3.398438 4.125 -3.046875 C 4.125 -2.867188 4.078125 -2.707031 3.984375 -2.5625 C 3.890625 -2.425781 3.769531 -2.304688 3.625 -2.203125 C 3.46875 -2.097656 3.285156 -2.019531 3.078125 -1.96875 C 2.867188 -1.914062 2.640625 -1.890625 2.390625 -1.890625 C 2.140625 -1.890625 1.90625 -1.914062 1.6875 -1.96875 C 1.476562 -2.019531 1.296875 -2.097656 1.140625 -2.203125 C 0.992188 -2.304688 0.875 -2.425781 0.78125 -2.5625 C 0.695312 -2.707031 0.65625 -2.867188 0.65625 -3.046875 C 0.65625 -3.398438 0.816406 -3.679688 1.140625 -3.890625 C 1.460938 -4.097656 1.878906 -4.203125 2.390625 -4.203125 Z M 2.390625 -3.734375 C 2.046875 -3.734375 1.773438 -3.671875 1.578125 -3.546875 C 1.390625 -3.429688 1.296875 -3.265625 1.296875 -3.046875 C 1.296875 -2.835938 1.390625 -2.664062 1.578125 -2.53125 C 1.773438 -2.40625 2.046875 -2.34375 2.390625 -2.34375 C 2.734375 -2.34375 3 -2.40625 3.1875 -2.53125 C 3.382812 -2.664062 3.484375 -2.835938 3.484375 -3.046875 C 3.484375 -3.265625 3.382812 -3.429688 3.1875 -3.546875 C 3 -3.671875 2.734375 -3.734375 2.390625 -3.734375 Z M 6.71875 -4.25 L 5.78125 -4.25 L 5.78125 -3.28125 L 6.71875 -3.28125 L 6.71875 -2.75 L 5.78125 -2.75 L 5.78125 -1.53125 L 5.171875 -1.53125 L 5.171875 -5.9375 L 5.78125 -5.9375 L 5.78125 -4.78125 L 6.71875 -4.78125 Z M 1.1875 -0.15625 C 1.1875 -0.53125 1.382812 -0.835938 1.78125 -1.078125 C 2.1875 -1.328125 2.785156 -1.453125 3.578125 -1.453125 C 4.359375 -1.453125 4.945312 -1.328125 5.34375 -1.078125 C 5.75 -0.835938 5.953125 -0.53125 5.953125 -0.15625 C 5.953125 0.226562 5.75 0.539062 5.34375 0.78125 C 4.945312 1.03125 4.359375 1.15625 3.578125 1.15625 C 2.785156 1.15625 2.1875 1.03125 1.78125 0.78125 C 1.382812 0.539062 1.1875 0.226562 1.1875 -0.15625 Z M 1.84375 -0.15625 C 1.84375 0.113281 2.003906 0.316406 2.328125 0.453125 C 2.648438 0.597656 3.066406 0.671875 3.578125 0.671875 C 4.078125 0.671875 4.488281 0.597656 4.8125 0.453125 C 5.132812 0.316406 5.296875 0.113281 5.296875 -0.15625 C 5.296875 -0.414062 5.132812 -0.613281 4.8125 -0.75 C 4.488281 -0.894531 4.078125 -0.96875 3.578125 -0.96875 C 3.066406 -0.96875 2.648438 -0.894531 2.328125 -0.75 C 2.003906 -0.613281 1.84375 -0.414062 1.84375 -0.15625 Z M 1.84375 -0.15625 "/>
</g>
<g id="glyph-1-5">
<path d="M 2.0625 -2.5 C 2.0625 -2.175781 2.023438 -1.84375 1.953125 -1.5 C 1.878906 -1.164062 1.773438 -0.835938 1.640625 -0.515625 C 1.492188 -0.191406 1.320312 0.117188 1.125 0.421875 C 0.925781 0.734375 0.707031 1.015625 0.46875 1.265625 L -0.015625 1.265625 C 0.453125 0.660156 0.796875 0.0351562 1.015625 -0.609375 C 1.242188 -1.253906 1.359375 -1.882812 1.359375 -2.5 C 1.359375 -3.101562 1.242188 -3.726562 1.015625 -4.375 C 0.796875 -5.03125 0.453125 -5.660156 -0.015625 -6.265625 L 0.46875 -6.265625 C 0.707031 -6.003906 0.925781 -5.722656 1.125 -5.421875 C 1.320312 -5.117188 1.492188 -4.804688 1.640625 -4.484375 C 1.773438 -4.148438 1.878906 -3.816406 1.953125 -3.484375 C 2.023438 -3.148438 2.0625 -2.820312 2.0625 -2.5 Z M 2.0625 -2.5 "/>
</g>
<g id="glyph-1-6">
<path d="M 3.234375 0.296875 L 3.25 -0.21875 C 3.0625 0.0195312 2.863281 0.1875 2.65625 0.28125 C 2.445312 0.375 2.21875 0.421875 1.96875 0.421875 C 1.519531 0.421875 1.1875 0.289062 0.96875 0.03125 C 0.75 -0.21875 0.640625 -0.578125 0.640625 -1.046875 L 0.640625 -3.703125 L 1.25 -3.703125 L 1.25 -1.21875 C 1.25 -0.820312 1.316406 -0.535156 1.453125 -0.359375 C 1.597656 -0.179688 1.835938 -0.09375 2.171875 -0.09375 C 2.296875 -0.09375 2.425781 -0.117188 2.5625 -0.171875 C 2.695312 -0.222656 2.8125 -0.300781 2.90625 -0.40625 C 3.007812 -0.519531 3.09375 -0.65625 3.15625 -0.8125 C 3.21875 -0.976562 3.25 -1.171875 3.25 -1.390625 L 3.25 -3.703125 L 3.8125 -3.703125 L 3.8125 0.296875 Z M 3.234375 0.296875 "/>
</g>
<g id="glyph-1-7">
<path d="M 2.296875 -3.328125 C 2.078125 -3.328125 1.890625 -3.285156 1.734375 -3.203125 C 1.585938 -3.117188 1.46875 -3.003906 1.375 -2.859375 C 1.269531 -2.722656 1.195312 -2.5625 1.15625 -2.375 C 1.113281 -2.1875 1.09375 -1.988281 1.09375 -1.78125 C 1.09375 -1.550781 1.113281 -1.332031 1.15625 -1.125 C 1.195312 -0.914062 1.269531 -0.738281 1.375 -0.59375 C 1.46875 -0.4375 1.59375 -0.3125 1.75 -0.21875 C 1.914062 -0.132812 2.113281 -0.09375 2.34375 -0.09375 C 2.5625 -0.09375 2.738281 -0.144531 2.875 -0.25 C 3.007812 -0.351562 3.117188 -0.484375 3.203125 -0.640625 C 3.285156 -0.804688 3.34375 -0.988281 3.375 -1.1875 C 3.414062 -1.382812 3.4375 -1.578125 3.4375 -1.765625 C 3.4375 -1.960938 3.414062 -2.15625 3.375 -2.34375 C 3.332031 -2.53125 3.265625 -2.695312 3.171875 -2.84375 C 3.078125 -2.988281 2.957031 -3.101562 2.8125 -3.1875 C 2.664062 -3.28125 2.492188 -3.328125 2.296875 -3.328125 Z M 0.546875 1.828125 L 0.546875 -3.703125 L 1.140625 -3.703125 L 1.109375 -3.15625 C 1.253906 -3.382812 1.441406 -3.550781 1.671875 -3.65625 C 1.910156 -3.769531 2.148438 -3.828125 2.390625 -3.828125 C 2.691406 -3.828125 2.945312 -3.765625 3.15625 -3.640625 C 3.375 -3.523438 3.550781 -3.375 3.6875 -3.1875 C 3.820312 -2.988281 3.921875 -2.757812 3.984375 -2.5 C 4.046875 -2.25 4.078125 -1.988281 4.078125 -1.71875 C 4.078125 -1.4375 4.039062 -1.164062 3.96875 -0.90625 C 3.90625 -0.644531 3.804688 -0.421875 3.671875 -0.234375 C 3.535156 -0.0234375 3.359375 0.132812 3.140625 0.25 C 2.929688 0.363281 2.675781 0.421875 2.375 0.421875 C 2.0625 0.421875 1.804688 0.363281 1.609375 0.25 C 1.421875 0.144531 1.253906 -0.00390625 1.109375 -0.203125 L 1.140625 0.359375 L 1.140625 1.828125 Z M 0.546875 1.828125 "/>
</g>
<g id="glyph-1-8">
<path d="M 0.90625 -4.328125 C 0.90625 -4.523438 0.941406 -4.710938 1.015625 -4.890625 C 1.097656 -5.078125 1.210938 -5.242188 1.359375 -5.390625 C 1.515625 -5.535156 1.695312 -5.648438 1.90625 -5.734375 C 2.125 -5.816406 2.375 -5.859375 2.65625 -5.859375 C 2.925781 -5.859375 3.171875 -5.816406 3.390625 -5.734375 C 3.609375 -5.648438 3.789062 -5.535156 3.9375 -5.390625 C 4.09375 -5.242188 4.207031 -5.078125 4.28125 -4.890625 C 4.363281 -4.710938 4.40625 -4.523438 4.40625 -4.328125 C 4.40625 -4.117188 4.363281 -3.921875 4.28125 -3.734375 C 4.195312 -3.546875 4.082031 -3.382812 3.9375 -3.25 C 3.78125 -3.113281 3.59375 -3.003906 3.375 -2.921875 C 3.164062 -2.847656 2.925781 -2.8125 2.65625 -2.8125 C 2.375 -2.8125 2.125 -2.847656 1.90625 -2.921875 C 1.695312 -3.003906 1.519531 -3.113281 1.375 -3.25 C 1.21875 -3.382812 1.097656 -3.546875 1.015625 -3.734375 C 0.941406 -3.921875 0.90625 -4.117188 0.90625 -4.328125 Z M 1.5 -4.328125 C 1.5 -4.066406 1.59375 -3.832031 1.78125 -3.625 C 1.96875 -3.414062 2.257812 -3.3125 2.65625 -3.3125 C 3.050781 -3.3125 3.34375 -3.414062 3.53125 -3.625 C 3.71875 -3.832031 3.8125 -4.066406 3.8125 -4.328125 C 3.8125 -4.597656 3.71875 -4.835938 3.53125 -5.046875 C 3.34375 -5.253906 3.050781 -5.359375 2.65625 -5.359375 C 2.257812 -5.359375 1.96875 -5.253906 1.78125 -5.046875 C 1.59375 -4.835938 1.5 -4.597656 1.5 -4.328125 Z M 5.5 -5.9375 L 6.109375 -5.9375 L 6.109375 1.015625 L 5.5 1.015625 Z M 2.265625 -1.5625 L 0.46875 -1.5625 L 0.46875 -2.09375 L 2.46875 -2.09375 C 2.613281 -2.09375 2.800781 -2.097656 3.03125 -2.109375 C 3.269531 -2.117188 3.519531 -2.128906 3.78125 -2.140625 C 4.050781 -2.160156 4.3125 -2.179688 4.5625 -2.203125 C 4.8125 -2.222656 5.015625 -2.242188 5.171875 -2.265625 L 5.171875 -1.75 C 4.847656 -1.695312 4.488281 -1.65625 4.09375 -1.625 C 3.695312 -1.601562 3.285156 -1.582031 2.859375 -1.5625 L 2.859375 0.875 L 2.265625 0.875 Z M 2.265625 -1.5625 "/>
</g>
<g id="glyph-1-9">
<path d="M 0.40625 -3.546875 C 0.8125 -3.710938 1.140625 -3.941406 1.390625 -4.234375 C 1.648438 -4.535156 1.800781 -4.863281 1.84375 -5.21875 L 0.875 -5.21875 L 0.875 -5.734375 L 3.328125 -5.734375 L 3.328125 -5.21875 L 2.4375 -5.21875 C 2.46875 -4.914062 2.570312 -4.640625 2.75 -4.390625 C 2.9375 -4.148438 3.15625 -3.953125 3.40625 -3.796875 C 3.675781 -3.953125 3.898438 -4.160156 4.078125 -4.421875 C 4.265625 -4.679688 4.363281 -4.945312 4.375 -5.21875 L 3.5 -5.21875 L 3.5 -5.734375 L 5.953125 -5.734375 L 5.953125 -5.21875 L 4.984375 -5.21875 C 5.035156 -4.863281 5.1875 -4.53125 5.4375 -4.21875 C 5.6875 -3.914062 6.007812 -3.6875 6.40625 -3.53125 L 5.96875 -3.15625 C 5.707031 -3.257812 5.460938 -3.429688 5.234375 -3.671875 C 5.003906 -3.910156 4.816406 -4.148438 4.671875 -4.390625 C 4.546875 -4.191406 4.382812 -3.976562 4.1875 -3.75 C 4 -3.519531 3.785156 -3.335938 3.546875 -3.203125 L 3.734375 -3.203125 L 3.734375 -2.40625 L 6.609375 -2.40625 L 6.609375 -1.875 L 0.21875 -1.875 L 0.21875 -2.40625 L 3.078125 -2.40625 L 3.078125 -3.203125 L 3.296875 -3.203125 C 3.054688 -3.347656 2.832031 -3.523438 2.625 -3.734375 C 2.425781 -3.953125 2.265625 -4.171875 2.140625 -4.390625 C 1.992188 -4.117188 1.800781 -3.867188 1.5625 -3.640625 C 1.332031 -3.421875 1.085938 -3.253906 0.828125 -3.140625 Z M 5.578125 -1.171875 C 5.640625 -1.171875 5.679688 -1.15625 5.703125 -1.125 C 5.734375 -1.101562 5.75 -1.0625 5.75 -1 L 5.75 1.0625 L 5.109375 1.0625 L 5.109375 -0.640625 L 0.984375 -0.640625 L 0.984375 -1.171875 Z M 5.578125 -1.171875 "/>
</g>
<g id="glyph-1-10">
<path d="M 0.484375 -4.875 L 4.46875 -4.875 L 4.46875 -4.375 L 0.484375 -4.375 Z M 3.484375 -5.46875 L 1.421875 -5.46875 L 1.421875 -5.953125 L 3.484375 -5.953125 Z M 2.484375 -3.96875 C 2.992188 -3.96875 3.410156 -3.863281 3.734375 -3.65625 C 4.054688 -3.445312 4.21875 -3.160156 4.21875 -2.796875 C 4.21875 -2.421875 4.050781 -2.125 3.71875 -1.90625 C 3.394531 -1.695312 2.984375 -1.59375 2.484375 -1.59375 C 1.984375 -1.59375 1.566406 -1.695312 1.234375 -1.90625 C 0.910156 -2.125 0.75 -2.421875 0.75 -2.796875 C 0.75 -3.160156 0.910156 -3.445312 1.234375 -3.65625 C 1.554688 -3.863281 1.972656 -3.96875 2.484375 -3.96875 Z M 2.484375 -3.46875 C 2.140625 -3.46875 1.867188 -3.410156 1.671875 -3.296875 C 1.484375 -3.179688 1.390625 -3.015625 1.390625 -2.796875 C 1.390625 -2.566406 1.484375 -2.390625 1.671875 -2.265625 C 1.867188 -2.148438 2.140625 -2.09375 2.484375 -2.09375 C 2.828125 -2.09375 3.09375 -2.148438 3.28125 -2.265625 C 3.476562 -2.390625 3.578125 -2.566406 3.578125 -2.796875 C 3.578125 -3.015625 3.476562 -3.179688 3.28125 -3.296875 C 3.09375 -3.410156 2.828125 -3.46875 2.484375 -3.46875 Z M 6.15625 -5.9375 L 6.15625 -0.8125 L 5.546875 -0.8125 L 5.546875 -5.9375 Z M 1.8125 0.875 C 1.75 0.875 1.703125 0.863281 1.671875 0.84375 C 1.648438 0.820312 1.640625 0.78125 1.640625 0.71875 L 1.640625 -1.09375 L 2.265625 -1.09375 L 2.265625 0.34375 L 6.359375 0.34375 L 6.359375 0.875 Z M 1.8125 0.875 "/>
</g>
<g id="glyph-1-11">
<path d="M 1.25 -5.609375 L 5.734375 -5.609375 L 5.734375 -5.078125 L 1.71875 -5.078125 L 1.71875 -3.890625 L 5.71875 -3.890625 L 5.71875 -3.375 L 1.71875 -3.375 L 1.71875 -2.1875 L 5.8125 -2.1875 L 5.8125 -1.65625 L 1.25 -1.65625 C 1.1875 -1.65625 1.144531 -1.664062 1.125 -1.6875 C 1.101562 -1.707031 1.09375 -1.75 1.09375 -1.8125 L 1.09375 -5.453125 C 1.09375 -5.515625 1.101562 -5.554688 1.125 -5.578125 C 1.144531 -5.597656 1.1875 -5.609375 1.25 -5.609375 Z M 6.609375 0.078125 L 0.21875 0.078125 L 0.21875 -0.46875 L 6.609375 -0.46875 Z M 6.609375 0.078125 "/>
</g>
<g id="glyph-1-12">
<path d="M 3.421875 -2.46875 C 3.660156 -2.46875 3.890625 -2.5 4.109375 -2.5625 C 4.328125 -2.632812 4.515625 -2.726562 4.671875 -2.84375 C 4.828125 -2.96875 4.953125 -3.113281 5.046875 -3.28125 C 5.140625 -3.445312 5.1875 -3.640625 5.1875 -3.859375 C 5.1875 -4.304688 5.019531 -4.648438 4.6875 -4.890625 C 4.363281 -5.140625 3.941406 -5.265625 3.421875 -5.265625 C 2.898438 -5.265625 2.472656 -5.140625 2.140625 -4.890625 C 1.816406 -4.648438 1.65625 -4.304688 1.65625 -3.859375 C 1.65625 -3.640625 1.695312 -3.445312 1.78125 -3.28125 C 1.875 -3.113281 2 -2.96875 2.15625 -2.84375 C 2.3125 -2.726562 2.5 -2.632812 2.71875 -2.5625 C 2.9375 -2.5 3.171875 -2.46875 3.421875 -2.46875 Z M 3.078125 -1.96875 C 2.453125 -2.019531 1.945312 -2.210938 1.5625 -2.546875 C 1.1875 -2.890625 1 -3.328125 1 -3.859375 C 1 -4.140625 1.054688 -4.394531 1.171875 -4.625 C 1.285156 -4.863281 1.445312 -5.070312 1.65625 -5.25 C 1.863281 -5.414062 2.117188 -5.546875 2.421875 -5.640625 C 2.722656 -5.742188 3.054688 -5.796875 3.421875 -5.796875 C 3.796875 -5.796875 4.128906 -5.742188 4.421875 -5.640625 C 4.722656 -5.546875 4.976562 -5.414062 5.1875 -5.25 C 5.394531 -5.070312 5.554688 -4.863281 5.671875 -4.625 C 5.785156 -4.394531 5.84375 -4.140625 5.84375 -3.859375 C 5.84375 -3.585938 5.789062 -3.34375 5.6875 -3.125 C 5.582031 -2.90625 5.441406 -2.707031 5.265625 -2.53125 C 5.066406 -2.375 4.835938 -2.242188 4.578125 -2.140625 C 4.328125 -2.035156 4.039062 -1.972656 3.71875 -1.953125 L 3.71875 -0.390625 L 6.609375 -0.390625 L 6.609375 0.15625 L 0.21875 0.15625 L 0.21875 -0.390625 L 3.078125 -0.390625 Z M 3.078125 -1.96875 "/>
</g>
<g id="glyph-1-13">
<path d="M 1.234375 -2.734375 C 1.171875 -2.734375 1.128906 -2.742188 1.109375 -2.765625 C 1.085938 -2.785156 1.078125 -2.828125 1.078125 -2.890625 L 1.078125 -4.34375 C 1.078125 -4.40625 1.085938 -4.445312 1.109375 -4.46875 C 1.128906 -4.488281 1.171875 -4.5 1.234375 -4.5 L 5.046875 -4.5 L 5.046875 -5.296875 L 1.078125 -5.296875 L 1.078125 -5.796875 L 5.546875 -5.796875 C 5.609375 -5.796875 5.648438 -5.78125 5.671875 -5.75 C 5.691406 -5.726562 5.703125 -5.6875 5.703125 -5.625 L 5.703125 -4.1875 C 5.703125 -4.125 5.691406 -4.078125 5.671875 -4.046875 C 5.648438 -4.023438 5.609375 -4.015625 5.546875 -4.015625 L 1.71875 -4.015625 L 1.71875 -3.234375 L 5.84375 -3.234375 L 5.84375 -2.734375 Z M 0.234375 -2 L 6.609375 -2 L 6.609375 -1.484375 L 0.234375 -1.484375 Z M 1.234375 0.875 C 1.171875 0.875 1.128906 0.863281 1.109375 0.84375 C 1.085938 0.820312 1.078125 0.78125 1.078125 0.71875 L 1.078125 -0.9375 L 1.703125 -0.9375 L 1.703125 0.359375 L 6 0.359375 L 6 0.875 Z M 1.234375 0.875 "/>
</g>
<g id="glyph-1-14">
<path d="M 1.015625 -2.0625 L 3.375 -2.0625 C 3.34375 -2.4375 3.226562 -2.738281 3.03125 -2.96875 C 2.832031 -3.207031 2.546875 -3.328125 2.171875 -3.328125 C 1.816406 -3.328125 1.539062 -3.195312 1.34375 -2.9375 C 1.15625 -2.6875 1.046875 -2.394531 1.015625 -2.0625 Z M 4 -1.71875 C 4 -1.65625 3.988281 -1.613281 3.96875 -1.59375 C 3.945312 -1.570312 3.910156 -1.5625 3.859375 -1.5625 L 1 -1.5625 C 1 -1.351562 1.019531 -1.160156 1.0625 -0.984375 C 1.113281 -0.804688 1.191406 -0.648438 1.296875 -0.515625 C 1.398438 -0.378906 1.53125 -0.273438 1.6875 -0.203125 C 1.84375 -0.128906 2.035156 -0.09375 2.265625 -0.09375 C 2.523438 -0.09375 2.742188 -0.175781 2.921875 -0.34375 C 3.109375 -0.507812 3.238281 -0.738281 3.3125 -1.03125 L 3.96875 -1.03125 C 3.84375 -0.53125 3.625 -0.164062 3.3125 0.0625 C 3.007812 0.300781 2.613281 0.421875 2.125 0.421875 C 1.820312 0.421875 1.554688 0.363281 1.328125 0.25 C 1.109375 0.132812 0.925781 -0.0195312 0.78125 -0.21875 C 0.632812 -0.414062 0.523438 -0.640625 0.453125 -0.890625 C 0.390625 -1.148438 0.359375 -1.421875 0.359375 -1.703125 C 0.359375 -1.972656 0.394531 -2.238281 0.46875 -2.5 C 0.539062 -2.757812 0.65625 -2.984375 0.8125 -3.171875 C 0.957031 -3.367188 1.140625 -3.523438 1.359375 -3.640625 C 1.585938 -3.765625 1.851562 -3.828125 2.15625 -3.828125 C 2.488281 -3.828125 2.769531 -3.769531 3 -3.65625 C 3.226562 -3.550781 3.414062 -3.410156 3.5625 -3.234375 C 3.707031 -3.046875 3.816406 -2.820312 3.890625 -2.5625 C 3.960938 -2.300781 4 -2.019531 4 -1.71875 Z M 4 -1.71875 "/>
</g>
<g id="glyph-1-15">
<path d="M 0.0625 -3.703125 L 0.71875 -3.703125 L 2 -0.375 L 3.25 -3.703125 L 3.90625 -3.703125 L 1.6875 1.828125 L 1.046875 1.828125 L 1.671875 0.265625 Z M 0.0625 -3.703125 "/>
</g>
<g id="glyph-1-16">
<path d="M 2.703125 -3.203125 C 2.515625 -3.160156 2.316406 -3.128906 2.109375 -3.109375 C 1.898438 -3.097656 1.695312 -3.09375 1.5 -3.09375 L 0.53125 -3.09375 L 0.53125 -3.609375 L 1.734375 -3.609375 C 1.953125 -3.609375 2.15625 -3.613281 2.34375 -3.625 C 2.53125 -3.632812 2.722656 -3.660156 2.921875 -3.703125 C 2.984375 -3.910156 3.039062 -4.117188 3.09375 -4.328125 C 3.144531 -4.546875 3.179688 -4.773438 3.203125 -5.015625 L 0.78125 -5.015625 L 0.78125 -5.546875 L 3.71875 -5.546875 C 3.78125 -5.546875 3.820312 -5.53125 3.84375 -5.5 C 3.863281 -5.476562 3.875 -5.4375 3.875 -5.375 C 3.84375 -4.90625 3.765625 -4.441406 3.640625 -3.984375 C 3.515625 -3.535156 3.332031 -3.101562 3.09375 -2.6875 C 2.851562 -2.257812 2.550781 -1.851562 2.1875 -1.46875 C 1.832031 -1.09375 1.40625 -0.75 0.90625 -0.4375 L 0.359375 -0.84375 C 0.878906 -1.113281 1.335938 -1.445312 1.734375 -1.84375 C 2.128906 -2.238281 2.453125 -2.691406 2.703125 -3.203125 Z M 6.75 -2.6875 L 5.71875 -2.6875 L 5.71875 1.03125 L 5.09375 1.03125 L 5.09375 -5.9375 L 5.71875 -5.9375 L 5.71875 -3.25 L 6.75 -3.25 Z M 6.75 -2.6875 "/>
</g>
<g id="glyph-1-17">
<path d="M 1.34375 -1.28125 L 2.671875 -1.28125 L 2.671875 -4.953125 L 1.34375 -4.953125 Z M 0.90625 -5.484375 L 3.09375 -5.484375 C 3.15625 -5.484375 3.195312 -5.472656 3.21875 -5.453125 C 3.238281 -5.429688 3.25 -5.390625 3.25 -5.328125 L 3.25 -3.625 L 4.15625 -3.625 L 4.15625 -5.828125 L 4.75 -5.828125 L 4.75 0.703125 L 4.15625 0.703125 L 4.15625 -3.0625 L 3.25 -3.0625 L 3.25 -0.90625 C 3.25 -0.84375 3.238281 -0.800781 3.21875 -0.78125 C 3.195312 -0.757812 3.15625 -0.75 3.09375 -0.75 L 0.90625 -0.75 C 0.84375 -0.75 0.800781 -0.757812 0.78125 -0.78125 C 0.757812 -0.800781 0.75 -0.84375 0.75 -0.90625 L 0.75 -5.328125 C 0.75 -5.390625 0.757812 -5.429688 0.78125 -5.453125 C 0.800781 -5.472656 0.84375 -5.484375 0.90625 -5.484375 Z M 6.125 -5.9375 L 6.125 1.03125 L 5.515625 1.03125 L 5.515625 -5.9375 Z M 6.125 -5.9375 "/>
</g>
<g id="glyph-1-18">
<path d="M 0.65625 -5.609375 L 3.546875 -5.609375 C 3.609375 -5.609375 3.648438 -5.59375 3.671875 -5.5625 C 3.703125 -5.539062 3.71875 -5.5 3.71875 -5.4375 L 3.71875 -3.0625 C 3.71875 -3 3.703125 -2.957031 3.671875 -2.9375 C 3.648438 -2.914062 3.609375 -2.90625 3.546875 -2.90625 L 1.25 -2.890625 L 1.25 -1.234375 L 1.921875 -1.234375 C 2.203125 -1.234375 2.476562 -1.238281 2.75 -1.25 C 3.03125 -1.269531 3.296875 -1.296875 3.546875 -1.328125 C 3.785156 -1.347656 4.003906 -1.375 4.203125 -1.40625 C 4.410156 -1.4375 4.585938 -1.46875 4.734375 -1.5 L 4.734375 -0.953125 C 4.578125 -0.921875 4.390625 -0.890625 4.171875 -0.859375 C 3.953125 -0.828125 3.710938 -0.796875 3.453125 -0.765625 C 3.191406 -0.742188 2.910156 -0.722656 2.609375 -0.703125 C 2.304688 -0.691406 2.003906 -0.6875 1.703125 -0.6875 L 0.8125 -0.6875 C 0.75 -0.6875 0.703125 -0.695312 0.671875 -0.71875 C 0.648438 -0.738281 0.640625 -0.78125 0.640625 -0.84375 L 0.640625 -3.265625 C 0.640625 -3.328125 0.648438 -3.367188 0.671875 -3.390625 C 0.703125 -3.410156 0.75 -3.421875 0.8125 -3.421875 L 3.09375 -3.421875 L 3.09375 -5.0625 L 0.65625 -5.0625 Z M 5.078125 1.046875 L 5.078125 -5.9375 L 5.703125 -5.9375 L 5.703125 -3.375 L 6.734375 -3.375 L 6.734375 -2.8125 L 5.703125 -2.8125 L 5.703125 1.046875 Z M 5.078125 1.046875 "/>
</g>
<g id="glyph-1-19">
<path d="M 1.515625 -5.828125 L 3.609375 -5.828125 L 3.609375 -5.296875 L 1.515625 -5.296875 Z M 0.34375 -0.78125 C 0.96875 -1.125 1.4375 -1.535156 1.75 -2.015625 C 2.070312 -2.503906 2.238281 -3.050781 2.25 -3.65625 L 2.25 -3.984375 L 0.734375 -3.984375 L 0.734375 -4.515625 L 4.421875 -4.515625 L 4.421875 -3.984375 L 2.90625 -3.984375 L 2.90625 -3.65625 C 2.90625 -3.113281 3.046875 -2.613281 3.328125 -2.15625 C 3.617188 -1.695312 4.0625 -1.289062 4.65625 -0.9375 L 4.21875 -0.484375 C 3.84375 -0.710938 3.519531 -0.988281 3.25 -1.3125 C 2.976562 -1.632812 2.753906 -2.003906 2.578125 -2.421875 C 2.441406 -2.035156 2.226562 -1.664062 1.9375 -1.3125 C 1.65625 -0.96875 1.300781 -0.644531 0.875 -0.34375 Z M 5.5625 1.015625 L 5.5625 -5.9375 L 6.1875 -5.9375 L 6.1875 1.015625 Z M 5.5625 1.015625 "/>
</g>
<g id="glyph-1-20">
<path d="M 3.703125 -2.390625 L 3.0625 -2.390625 C 3.050781 -2.710938 2.953125 -2.945312 2.765625 -3.09375 C 2.585938 -3.25 2.347656 -3.328125 2.046875 -3.328125 C 1.878906 -3.328125 1.726562 -3.285156 1.59375 -3.203125 C 1.46875 -3.117188 1.351562 -3.003906 1.25 -2.859375 C 1.15625 -2.710938 1.082031 -2.539062 1.03125 -2.34375 C 0.976562 -2.144531 0.953125 -1.9375 0.953125 -1.71875 C 0.953125 -1.488281 0.976562 -1.269531 1.03125 -1.0625 C 1.082031 -0.863281 1.15625 -0.695312 1.25 -0.5625 C 1.351562 -0.414062 1.46875 -0.300781 1.59375 -0.21875 C 1.726562 -0.132812 1.878906 -0.09375 2.046875 -0.09375 C 2.328125 -0.09375 2.554688 -0.164062 2.734375 -0.3125 C 2.921875 -0.46875 3.03125 -0.707031 3.0625 -1.03125 L 3.71875 -1.03125 C 3.644531 -0.550781 3.460938 -0.191406 3.171875 0.046875 C 2.878906 0.296875 2.519531 0.421875 2.09375 0.421875 C 1.789062 0.421875 1.523438 0.363281 1.296875 0.25 C 1.078125 0.132812 0.894531 -0.0195312 0.75 -0.21875 C 0.601562 -0.414062 0.492188 -0.640625 0.421875 -0.890625 C 0.347656 -1.148438 0.3125 -1.421875 0.3125 -1.703125 C 0.3125 -1.972656 0.347656 -2.238281 0.421875 -2.5 C 0.503906 -2.757812 0.617188 -2.984375 0.765625 -3.171875 C 0.921875 -3.367188 1.109375 -3.523438 1.328125 -3.640625 C 1.554688 -3.765625 1.820312 -3.828125 2.125 -3.828125 C 2.332031 -3.828125 2.53125 -3.789062 2.71875 -3.71875 C 2.90625 -3.65625 3.070312 -3.566406 3.21875 -3.453125 C 3.351562 -3.328125 3.460938 -3.175781 3.546875 -3 C 3.640625 -2.820312 3.691406 -2.617188 3.703125 -2.390625 Z M 3.703125 -2.390625 "/>
</g>
<g id="glyph-1-21">
<path d="M 1.21875 -3.703125 L 1.203125 -3.1875 C 1.390625 -3.425781 1.582031 -3.59375 1.78125 -3.6875 C 1.988281 -3.78125 2.222656 -3.828125 2.484375 -3.828125 C 2.921875 -3.828125 3.25 -3.695312 3.46875 -3.4375 C 3.6875 -3.1875 3.796875 -2.828125 3.796875 -2.359375 L 3.796875 0.296875 L 3.203125 0.296875 L 3.203125 -2.1875 C 3.203125 -2.582031 3.128906 -2.867188 2.984375 -3.046875 C 2.847656 -3.234375 2.613281 -3.328125 2.28125 -3.328125 C 2.144531 -3.328125 2.007812 -3.296875 1.875 -3.234375 C 1.75 -3.179688 1.640625 -3.101562 1.546875 -3 C 1.441406 -2.882812 1.359375 -2.742188 1.296875 -2.578125 C 1.234375 -2.421875 1.203125 -2.238281 1.203125 -2.03125 L 1.203125 0.296875 L 0.640625 0.296875 L 0.640625 -3.703125 Z M 1.21875 -3.703125 "/>
</g>
<g id="glyph-1-22">
<path d="M 1.53125 -4.859375 L 1.53125 -3.71875 L 2.421875 -3.71875 L 2.421875 -3.203125 L 1.53125 -3.203125 L 1.53125 -0.6875 C 1.53125 -0.4375 1.578125 -0.269531 1.671875 -0.1875 C 1.765625 -0.113281 1.882812 -0.078125 2.03125 -0.078125 C 2.125 -0.078125 2.203125 -0.0820312 2.265625 -0.09375 C 2.328125 -0.113281 2.394531 -0.140625 2.46875 -0.171875 L 2.46875 0.34375 C 2.382812 0.363281 2.296875 0.378906 2.203125 0.390625 C 2.109375 0.410156 2.023438 0.421875 1.953125 0.421875 C 1.804688 0.421875 1.671875 0.40625 1.546875 0.375 C 1.429688 0.34375 1.328125 0.289062 1.234375 0.21875 C 1.140625 0.144531 1.066406 0.0390625 1.015625 -0.09375 C 0.972656 -0.226562 0.953125 -0.398438 0.953125 -0.609375 L 0.953125 -3.203125 L 0.171875 -3.203125 L 0.171875 -3.71875 L 0.953125 -3.71875 L 0.953125 -4.859375 Z M 1.53125 -4.859375 "/>
</g>
<g id="glyph-1-23">
<path d="M 2.265625 -3.21875 C 2.128906 -3.21875 2 -3.195312 1.875 -3.15625 C 1.75 -3.113281 1.632812 -3.039062 1.53125 -2.9375 C 1.425781 -2.84375 1.34375 -2.71875 1.28125 -2.5625 C 1.21875 -2.414062 1.1875 -2.238281 1.1875 -2.03125 L 1.1875 0.296875 L 0.609375 0.296875 L 0.609375 -3.703125 L 1.203125 -3.703125 L 1.1875 -3.1875 C 1.34375 -3.425781 1.503906 -3.59375 1.671875 -3.6875 C 1.847656 -3.78125 2.039062 -3.828125 2.25 -3.828125 C 2.3125 -3.828125 2.375 -3.820312 2.4375 -3.8125 C 2.507812 -3.8125 2.570312 -3.800781 2.625 -3.78125 L 2.625 -3.171875 C 2.550781 -3.179688 2.488281 -3.191406 2.4375 -3.203125 C 2.394531 -3.210938 2.335938 -3.21875 2.265625 -3.21875 Z M 2.265625 -3.21875 "/>
</g>
<g id="glyph-1-24">
<path d="M 1.25 -3.265625 L 1.25 -1.203125 L 3.21875 -1.203125 L 3.21875 -3.265625 Z M 0.640625 -5.609375 L 1.25 -5.609375 L 1.25 -3.796875 L 3.21875 -3.796875 L 3.21875 -5.609375 L 3.828125 -5.609375 L 3.828125 -0.84375 C 3.828125 -0.78125 3.816406 -0.734375 3.796875 -0.703125 C 3.773438 -0.679688 3.734375 -0.671875 3.671875 -0.671875 L 0.8125 -0.671875 C 0.75 -0.671875 0.703125 -0.679688 0.671875 -0.703125 C 0.648438 -0.734375 0.640625 -0.78125 0.640625 -0.84375 Z M 6.75 -2.796875 L 5.71875 -2.796875 L 5.71875 1.03125 L 5.09375 1.03125 L 5.09375 -5.9375 L 5.71875 -5.9375 L 5.71875 -3.375 L 6.75 -3.375 Z M 6.75 -2.796875 "/>
</g>
<g id="glyph-1-25">
<path d="M 1.703125 -2.46875 L 5.109375 -2.46875 L 5.109375 -3.90625 L 1.703125 -3.90625 Z M 5.734375 -2.09375 C 5.734375 -2.03125 5.722656 -1.988281 5.703125 -1.96875 C 5.679688 -1.945312 5.640625 -1.9375 5.578125 -1.9375 L 3.71875 -1.9375 L 3.71875 -0.390625 L 6.609375 -0.390625 L 6.609375 0.15625 L 0.21875 0.15625 L 0.21875 -0.390625 L 3.078125 -0.390625 L 3.078125 -1.9375 L 1.25 -1.9375 C 1.1875 -1.9375 1.140625 -1.945312 1.109375 -1.96875 C 1.085938 -1.988281 1.078125 -2.03125 1.078125 -2.09375 L 1.078125 -5.65625 L 1.703125 -5.65625 L 1.703125 -4.4375 L 5.109375 -4.4375 L 5.109375 -5.65625 L 5.734375 -5.65625 Z M 5.734375 -2.09375 "/>
</g>
<g id="glyph-1-26">
<path d="M 1.234375 -3.515625 C 1.171875 -3.515625 1.128906 -3.523438 1.109375 -3.546875 C 1.085938 -3.566406 1.078125 -3.609375 1.078125 -3.671875 L 1.078125 -5.90625 L 1.6875 -5.90625 L 1.6875 -4.046875 L 5.890625 -4.046875 L 5.890625 -3.515625 Z M 6.609375 -1.96875 L 0.21875 -1.96875 L 0.21875 -2.5 L 6.609375 -2.5 Z M 1.234375 0.875 C 1.171875 0.875 1.128906 0.863281 1.109375 0.84375 C 1.085938 0.820312 1.078125 0.78125 1.078125 0.71875 L 1.078125 -1.234375 L 1.671875 -1.234375 L 1.671875 0.34375 L 6 0.34375 L 6 0.875 Z M 1.234375 0.875 "/>
</g>
<g id="glyph-1-27">
<path d="M 4.15625 -5.078125 L 2.796875 -5.078125 L 2.796875 -4.875 C 2.796875 -4.582031 2.847656 -4.316406 2.953125 -4.078125 C 3.054688 -3.847656 3.191406 -3.644531 3.359375 -3.46875 C 3.535156 -3.28125 3.734375 -3.117188 3.953125 -2.984375 C 4.171875 -2.859375 4.398438 -2.757812 4.640625 -2.6875 L 4.25 -2.234375 C 4.113281 -2.285156 3.960938 -2.359375 3.796875 -2.453125 C 3.628906 -2.546875 3.460938 -2.65625 3.296875 -2.78125 C 3.140625 -2.90625 2.988281 -3.046875 2.84375 -3.203125 C 2.695312 -3.359375 2.570312 -3.535156 2.46875 -3.734375 C 2.320312 -3.335938 2.082031 -3 1.75 -2.71875 C 1.414062 -2.4375 1.0625 -2.207031 0.6875 -2.03125 L 0.21875 -2.4375 C 0.46875 -2.53125 0.707031 -2.648438 0.9375 -2.796875 C 1.175781 -2.953125 1.382812 -3.132812 1.5625 -3.34375 C 1.738281 -3.539062 1.878906 -3.769531 1.984375 -4.03125 C 2.097656 -4.289062 2.15625 -4.578125 2.15625 -4.890625 L 2.15625 -5.078125 L 0.75 -5.078125 L 0.75 -5.625 L 4.15625 -5.625 Z M 4.078125 -4.40625 L 5.515625 -4.40625 L 5.515625 -5.9375 L 6.140625 -5.9375 L 6.140625 -1.921875 L 5.515625 -1.921875 L 5.515625 -3.859375 L 4.078125 -3.859375 Z M 2.25 0.4375 L 5.515625 0.4375 L 5.515625 -1.046875 L 2.25 -1.046875 Z M 1.796875 -1.5625 L 5.96875 -1.5625 C 6.03125 -1.5625 6.070312 -1.546875 6.09375 -1.515625 C 6.125 -1.492188 6.140625 -1.453125 6.140625 -1.390625 L 6.140625 0.78125 C 6.140625 0.84375 6.125 0.882812 6.09375 0.90625 C 6.070312 0.925781 6.03125 0.9375 5.96875 0.9375 L 1.796875 0.9375 C 1.734375 0.9375 1.691406 0.925781 1.671875 0.90625 C 1.648438 0.882812 1.640625 0.84375 1.640625 0.78125 L 1.640625 -1.390625 C 1.640625 -1.453125 1.648438 -1.492188 1.671875 -1.515625 C 1.691406 -1.546875 1.734375 -1.5625 1.796875 -1.5625 Z M 1.796875 -1.5625 "/>
</g>
</g>
</defs>
<path fill="none" stroke-width="0.99628" stroke-linecap="butt" stroke-linejoin="miter" stroke="rgb(37.255859%, 41.175842%, 47.059631%)" stroke-opacity="1" stroke-dasharray="2.98883 2.39105" stroke-miterlimit="10" d="M 0.000146001 -0.00087142 L 209.767937 31.1821 " transform="matrix(0.99526, 0, 0, -0.99526, 83.011573, 76.784289)"/>
<path fill-rule="nonzero" fill="rgb(96.798706%, 92.698669%, 83.599854%)" fill-opacity="1" stroke-width="0.89664" stroke-linecap="butt" stroke-linejoin="miter" stroke="rgb(85.488892%, 66.665649%, 25.489807%)" stroke-opacity="1" stroke-miterlimit="10" d="M 194.174489 18.426322 L 194.174489 43.937878 L 225.357461 43.937878 L 225.357461 18.426322 Z M 194.174489 18.426322 " transform="matrix(0.99526, 0, 0, -0.99526, 83.011573, 76.784289)"/>
<path fill="none" stroke-width="0.89664" stroke-linecap="butt" stroke-linejoin="miter" stroke="rgb(85.499573%, 66.699219%, 25.498962%)" stroke-opacity="1" stroke-miterlimit="10" d="M 194.174489 43.937878 L 202.679649 53.290807 L 233.862621 53.290807 L 225.357461 43.937878 " transform="matrix(0.99526, 0, 0, -0.99526, 83.011573, 76.784289)"/>
<path fill="none" stroke-width="0.89664" stroke-linecap="butt" stroke-linejoin="miter" stroke="rgb(85.499573%, 66.699219%, 25.498962%)" stroke-opacity="1" stroke-miterlimit="10" d="M 225.357461 43.937878 L 233.862621 53.290807 " transform="matrix(0.99526, 0, 0, -0.99526, 83.011573, 76.784289)"/>
<path fill="none" stroke-width="0.89664" stroke-linecap="butt" stroke-linejoin="miter" stroke="rgb(85.499573%, 66.699219%, 25.498962%)" stroke-opacity="1" stroke-miterlimit="10" d="M 225.357461 18.426322 L 233.862621 27.779251 L 233.862621 53.290807 " transform="matrix(0.99526, 0, 0, -0.99526, 83.011573, 76.784289)"/>
<path fill-rule="nonzero" fill="rgb(88.999939%, 90.59906%, 92.698669%)" fill-opacity="1" stroke-width="0.99628" stroke-linecap="butt" stroke-linejoin="miter" stroke="rgb(8.625793%, 21.961975%, 39.216614%)" stroke-opacity="1" stroke-miterlimit="10" d="M -11.903939 -9.63639 L -11.903939 9.638572 L 11.904231 9.638572 L 11.904231 -9.63639 Z M -11.903939 -9.63639 " transform="matrix(0.99526, 0, 0, -0.99526, 83.011573, 76.784289)"/>
<path fill-rule="nonzero" fill="rgb(88.999939%, 90.59906%, 92.698669%)" fill-opacity="1" stroke-width="0.99628" stroke-linecap="butt" stroke-linejoin="miter" stroke="rgb(8.625793%, 21.961975%, 39.216614%)" stroke-opacity="1" stroke-miterlimit="10" d="M 11.904231 -5.103183 L 24.377419 -9.63639 L 24.377419 9.638572 L 11.904231 5.10144 Z M 11.904231 -5.103183 " transform="matrix(0.99526, 0, 0, -0.99526, 83.011573, 76.784289)"/>
<path fill-rule="nonzero" fill="rgb(8.599854%, 21.998596%, 39.199829%)" fill-opacity="1" stroke-width="0.3985" stroke-linecap="butt" stroke-linejoin="miter" stroke="rgb(8.625793%, 21.961975%, 39.216614%)" stroke-opacity="1" stroke-miterlimit="10" d="M 1.417019 9.638572 L 1.417019 13.041421 L 8.505306 13.041421 L 8.505306 9.638572 Z M 1.417019 9.638572 " transform="matrix(0.99526, 0, 0, -0.99526, 83.011573, 76.784289)"/>
<path fill="none" stroke-width="1.19553" stroke-linecap="butt" stroke-linejoin="miter" stroke="rgb(78.431702%, 41.175842%, 19.607544%)" stroke-opacity="1" stroke-miterlimit="10" d="M 0.000146001 -0.00087142 L 51.313698 7.621197 " transform="matrix(0.99526, 0, 0, -0.99526, 83.011573, 76.784289)"/>
<path fill-rule="nonzero" fill="rgb(78.431702%, 41.175842%, 19.607544%)" fill-opacity="1" stroke-width="1.19553" stroke-linecap="butt" stroke-linejoin="miter" stroke="rgb(78.431702%, 41.175842%, 19.607544%)" stroke-opacity="1" stroke-miterlimit="10" d="M 6.233885 0.000327123 L 1.929195 1.635432 L 3.369023 0.00108078 L 1.931766 -1.63467 Z M 6.233885 0.000327123 " transform="matrix(0.984411, -0.146154, -0.146154, -0.984411, 131.058653, 69.64971)"/>
<g fill="rgb(78.399658%, 41.19873%, 19.599915%)" fill-opacity="1">
<use xlink:href="#glyph-0-0" x="141.383557" y="64.705817"/>
</g>
<g fill="rgb(78.399658%, 41.19873%, 19.599915%)" fill-opacity="1">
<use xlink:href="#glyph-1-0" x="146.488244" y="64.705817"/>
<use xlink:href="#glyph-1-1" x="148.922704" y="64.705817"/>
<use xlink:href="#glyph-1-2" x="155.770605" y="64.705817"/>
</g>
<g fill="rgb(78.399658%, 41.19873%, 19.599915%)" fill-opacity="1">
<use xlink:href="#glyph-1-3" x="164.888051" y="64.705817"/>
<use xlink:href="#glyph-1-4" x="171.735951" y="64.705817"/>
<use xlink:href="#glyph-1-5" x="178.583852" y="64.705817"/>
</g>
<path fill="none" stroke-width="0.99628" stroke-linecap="butt" stroke-linejoin="miter" stroke="rgb(87.664795%, 71.665955%, 36.66687%)" stroke-opacity="1" stroke-dasharray="2.49069 1.99255" stroke-miterlimit="10" d="M 0.000146001 -0.00087142 L 0.000146001 52.12905 " transform="matrix(0.99526, 0, 0, -0.99526, 83.011573, 76.784289)"/>
<path fill-rule="nonzero" fill="rgb(87.664795%, 71.665955%, 36.66687%)" fill-opacity="1" stroke-width="0.99628" stroke-linecap="butt" stroke-linejoin="miter" stroke="rgb(87.664795%, 71.665955%, 36.66687%)" stroke-opacity="1" stroke-miterlimit="10" d="M 5.953344 -0.000146001 L 1.60853 1.644368 L 3.052876 -0.000146001 L 1.60853 -1.64466 Z M 5.953344 -0.000146001 " transform="matrix(0, -0.99526, -0.99526, 0, 83.011573, 27.694655)"/>
<g fill="rgb(85.499573%, 66.699219%, 25.498962%)" fill-opacity="1">
<use xlink:href="#glyph-1-6" x="60.190268" y="15.125958"/>
<use xlink:href="#glyph-1-7" x="64.603708" y="15.125958"/>
</g>
<g fill="rgb(85.499573%, 66.699219%, 25.498962%)" fill-opacity="1">
<use xlink:href="#glyph-1-0" x="71.294547" y="15.125958"/>
<use xlink:href="#glyph-1-8" x="73.729007" y="15.125958"/>
<use xlink:href="#glyph-1-9" x="80.576907" y="15.125958"/>
</g>
<g fill="rgb(85.499573%, 66.699219%, 25.498962%)" fill-opacity="1">
<use xlink:href="#glyph-1-10" x="89.702206" y="15.125958"/>
<use xlink:href="#glyph-1-11" x="96.550107" y="15.125958"/>
<use xlink:href="#glyph-1-5" x="103.398007" y="15.125958"/>
</g>
<path fill="none" stroke-width="1.19553" stroke-linecap="butt" stroke-linejoin="miter" stroke="rgb(85.488892%, 66.665649%, 25.489807%)" stroke-opacity="1" stroke-miterlimit="10" d="M 0.000146001 -0.00087142 L -7.617997 51.312681 " transform="matrix(0.99526, 0, 0, -0.99526, 83.011573, 76.784289)"/>
<path fill-rule="nonzero" fill="rgb(85.488892%, 66.665649%, 25.489807%)" fill-opacity="1" stroke-width="1.19553" stroke-linecap="butt" stroke-linejoin="miter" stroke="rgb(85.488892%, 66.665649%, 25.489807%)" stroke-opacity="1" stroke-miterlimit="10" d="M 6.232985 0.00119414 L 1.931601 1.63184 L 3.372006 0.00137137 L 1.930866 -1.633803 Z M 6.232985 0.00119414 " transform="matrix(-0.146154, -0.984411, -0.984411, 0.146154, 75.876994, 28.737209)"/>
<g fill="rgb(85.499573%, 66.699219%, 25.498962%)" fill-opacity="1">
<use xlink:href="#glyph-0-1" x="66.470357" y="22.412254"/>
</g>
<path fill="none" stroke-width="1.19553" stroke-linecap="butt" stroke-linejoin="miter" stroke="rgb(27.450562%, 50.979614%, 78.431702%)" stroke-opacity="1" stroke-miterlimit="10" d="M 0.000146001 -0.00087142 L 7.618289 -51.314423 " transform="matrix(0.99526, 0, 0, -0.99526, 83.011573, 76.784289)"/>
<path fill-rule="nonzero" fill="rgb(27.450562%, 50.979614%, 78.431702%)" fill-opacity="1" stroke-width="1.19553" stroke-linecap="butt" stroke-linejoin="miter" stroke="rgb(27.450562%, 50.979614%, 78.431702%)" stroke-opacity="1" stroke-miterlimit="10" d="M 6.234752 0.00122703 L 1.929486 1.632449 L 3.36989 0.00198069 L 1.92875 -1.633194 Z M 6.234752 0.00122703 " transform="matrix(0.146154, 0.984411, 0.984411, -0.146154, 90.146153, 124.831369)"/>
<g fill="rgb(27.49939%, 50.999451%, 78.399658%)" fill-opacity="1">
<use xlink:href="#glyph-0-2" x="75.827789" y="142.414702"/>
</g>
<g fill="rgb(27.49939%, 50.999451%, 78.399658%)" fill-opacity="1">
<use xlink:href="#glyph-1-0" x="81.372381" y="142.414702"/>
<use xlink:href="#glyph-1-12" x="83.806841" y="142.414702"/>
<use xlink:href="#glyph-1-13" x="90.654741" y="142.414702"/>
<use xlink:href="#glyph-1-9" x="97.502642" y="142.414702"/>
<use xlink:href="#glyph-1-5" x="104.350542" y="142.414702"/>
</g>
<path fill-rule="nonzero" fill="rgb(8.625793%, 21.961975%, 39.216614%)" fill-opacity="1" d="M 85.09375 76.785156 C 85.09375 75.632812 84.160156 74.703125 83.011719 74.703125 C 81.863281 74.703125 80.929688 75.632812 80.929688 76.785156 C 80.929688 77.933594 81.863281 78.867188 83.011719 78.867188 C 84.160156 78.867188 85.09375 77.933594 85.09375 76.785156 Z M 85.09375 76.785156 "/>
<path fill-rule="nonzero" fill="rgb(78.431702%, 41.175842%, 19.607544%)" fill-opacity="1" d="M 293.867188 45.75 C 293.867188 44.601562 292.933594 43.667969 291.785156 43.667969 C 290.632812 43.667969 289.703125 44.601562 289.703125 45.75 C 289.703125 46.902344 290.632812 47.832031 291.785156 47.832031 C 292.933594 47.832031 293.867188 46.902344 293.867188 45.75 Z M 293.867188 45.75 "/>
<g fill="rgb(8.599854%, 21.998596%, 39.199829%)" fill-opacity="1">
<use xlink:href="#glyph-1-14" x="9.507661" y="101.67474"/>
</g>
<g fill="rgb(8.599854%, 21.998596%, 39.199829%)" fill-opacity="1">
<use xlink:href="#glyph-1-15" x="13.84257" y="101.67474"/>
</g>
<g fill="rgb(8.599854%, 21.998596%, 39.199829%)" fill-opacity="1">
<use xlink:href="#glyph-1-14" x="17.722" y="101.67474"/>
</g>
<g fill="rgb(8.599854%, 21.998596%, 39.199829%)" fill-opacity="1">
<use xlink:href="#glyph-1-0" x="24.404986" y="101.67474"/>
</g>
<g fill="rgb(8.599854%, 21.998596%, 39.199829%)" fill-opacity="1">
<use xlink:href="#glyph-1-16" x="26.847299" y="101.67474"/>
<use xlink:href="#glyph-1-17" x="33.695199" y="101.67474"/>
<use xlink:href="#glyph-1-18" x="40.5431" y="101.67474"/>
</g>
<g fill="rgb(8.599854%, 21.998596%, 39.199829%)" fill-opacity="1">
<use xlink:href="#glyph-1-8" x="49.668399" y="101.67474"/>
<use xlink:href="#glyph-1-19" x="56.516299" y="101.67474"/>
<use xlink:href="#glyph-1-5" x="63.3642" y="101.67474"/>
</g>
<g fill="rgb(21.598816%, 25.498962%, 31.399536%)" fill-opacity="1">
<use xlink:href="#glyph-1-20" x="258.749562" y="57.107009"/>
</g>
<g fill="rgb(21.598816%, 25.498962%, 31.399536%)" fill-opacity="1">
<use xlink:href="#glyph-1-14" x="262.581873" y="57.107009"/>
<use xlink:href="#glyph-1-21" x="266.995314" y="57.107009"/>
<use xlink:href="#glyph-1-22" x="271.408754" y="57.107009"/>
</g>
<g fill="rgb(21.598816%, 25.498962%, 31.399536%)" fill-opacity="1">
<use xlink:href="#glyph-1-14" x="274.070954" y="57.107009"/>
<use xlink:href="#glyph-1-23" x="278.484395" y="57.107009"/>
</g>
<g fill="rgb(21.598816%, 25.498962%, 31.399536%)" fill-opacity="1">
<use xlink:href="#glyph-1-0" x="283.431846" y="57.107009"/>
<use xlink:href="#glyph-1-24" x="285.866306" y="57.107009"/>
<use xlink:href="#glyph-1-18" x="292.714207" y="57.107009"/>
<use xlink:href="#glyph-1-25" x="299.562107" y="57.107009"/>
<use xlink:href="#glyph-1-26" x="306.410008" y="57.107009"/>
</g>
<g fill="rgb(21.598816%, 25.498962%, 31.399536%)" fill-opacity="1">
<use xlink:href="#glyph-1-27" x="315.535306" y="57.107009"/>
<use xlink:href="#glyph-1-5" x="322.383207" y="57.107009"/>
</g>
<path fill="none" stroke-width="0.69739" stroke-linecap="butt" stroke-linejoin="miter" stroke="rgb(37.255859%, 41.175842%, 47.059631%)" stroke-opacity="1" stroke-miterlimit="10" d="M 3.116481 -0.84864 L 3.968174 5.384029 L -1.134137 6.235723 " transform="matrix(0.99526, 0, 0, -0.99526, 83.011573, 76.784289)"/>
</svg>
